<?xml version="1.0" standalone="no"?>
<!DOCTYPE svg PUBLIC "-//W3C//DTD SVG 1.1//EN" "http://www.w3.org/Graphics/SVG/1.1/DTD/svg11.dtd">
<svg version="1.1" width="1200" height="294" onload="init(evt)" viewBox="0 0 1200 294" xmlns="http://www.w3.org/2000/svg" xmlns:xlink="http://www.w3.org/1999/xlink">
<!-- Flame graph stack visualization. See https://github.com/brendangregg/FlameGraph for latest version, and http://www.brendangregg.com/flamegraphs.html for examples. -->
<!-- NOTES:  -->
<defs>
	<linearGradient id="background" y1="0" y2="1" x1="0" x2="0" >
		<stop stop-color="#eeeeee" offset="5%" />
		<stop stop-color="#eeeeb0" offset="95%" />
	</linearGradient>
</defs>
<style type="text/css">
	text { font-family:Verdana; font-size:12px; fill:rgb(0,0,0); }
	#search, #ignorecase { opacity:0.1; cursor:pointer; }
	#search:hover, #search.show, #ignorecase:hover, #ignorecase.show { opacity:1; }
	#subtitle { text-anchor:middle; font-color:rgb(160,160,160); }
	#title { text-anchor:middle; font-size:17px}
	#unzoom { cursor:pointer; }
	#frames > *:hover { stroke:black; stroke-width:0.5; cursor:pointer; }
	.hide { display:none; }
	.parent { opacity:0.5; }
</style>
<script type="text/ecmascript">
<![CDATA[
	"use strict";
	var details, searchbtn, unzoombtn, matchedtxt, svg, searching, currentSearchTerm, ignorecase, ignorecaseBtn;
	function init(evt) {
		details = document.getElementById("details").firstChild;
		searchbtn = document.getElementById("search");
		ignorecaseBtn = document.getElementById("ignorecase");
		unzoombtn = document.getElementById("unzoom");
		matchedtxt = document.getElementById("matched");
		svg = document.getElementsByTagName("svg")[0];
		searching = 0;
		currentSearchTerm = null;

		// use GET parameters to restore a flamegraphs state.
		var params = get_params();
		if (params.x && params.y)
			zoom(find_group(document.querySelector('[x="' + params.x + '"][y="' + params.y + '"]')));
                if (params.s) search(params.s);
	}

	// event listeners
	window.addEventListener("click", function(e) {
		var target = find_group(e.target);
		if (target) {
			if (target.nodeName == "a") {
				if (e.ctrlKey === false) return;
				e.preventDefault();
			}
			if (target.classList.contains("parent")) unzoom(true);
			zoom(target);
			if (!document.querySelector('.parent')) {
				// we have basically done a clearzoom so clear the url
				var params = get_params();
				if (params.x) delete params.x;
				if (params.y) delete params.y;
				history.replaceState(null, null, parse_params(params));
				unzoombtn.classList.add("hide");
				return;
			}

			// set parameters for zoom state
			var el = target.querySelector("rect");
			if (el && el.attributes && el.attributes.y && el.attributes._orig_x) {
				var params = get_params()
				params.x = el.attributes._orig_x.value;
				params.y = el.attributes.y.value;
				history.replaceState(null, null, parse_params(params));
			}
		}
		else if (e.target.id == "unzoom") clearzoom();
		else if (e.target.id == "search") search_prompt();
		else if (e.target.id == "ignorecase") toggle_ignorecase();
	}, false)

	// mouse-over for info
	// show
	window.addEventListener("mouseover", function(e) {
		var target = find_group(e.target);
		if (target) details.nodeValue = "Function: " + g_to_text(target);
	}, false)

	// clear
	window.addEventListener("mouseout", function(e) {
		var target = find_group(e.target);
		if (target) details.nodeValue = ' ';
	}, false)

	// ctrl-F for search
	// ctrl-I to toggle case-sensitive search
	window.addEventListener("keydown",function (e) {
		if (e.keyCode === 114 || (e.ctrlKey && e.keyCode === 70)) {
			e.preventDefault();
			search_prompt();
		}
		else if (e.ctrlKey && e.keyCode === 73) {
			e.preventDefault();
			toggle_ignorecase();
		}
	}, false)

	// functions
	function get_params() {
		var params = {};
		var paramsarr = window.location.search.substr(1).split('&');
		for (var i = 0; i < paramsarr.length; ++i) {
			var tmp = paramsarr[i].split("=");
			if (!tmp[0] || !tmp[1]) continue;
			params[tmp[0]]  = decodeURIComponent(tmp[1]);
		}
		return params;
	}
	function parse_params(params) {
		var uri = "?";
		for (var key in params) {
			uri += key + '=' + encodeURIComponent(params[key]) + '&';
		}
		if (uri.slice(-1) == "&")
			uri = uri.substring(0, uri.length - 1);
		if (uri == '?')
			uri = window.location.href.split('?')[0];
		return uri;
	}
	function find_child(node, selector) {
		var children = node.querySelectorAll(selector);
		if (children.length) return children[0];
	}
	function find_group(node) {
		var parent = node.parentElement;
		if (!parent) return;
		if (parent.id == "frames") return node;
		return find_group(parent);
	}
	function orig_save(e, attr, val) {
		if (e.attributes["_orig_" + attr] != undefined) return;
		if (e.attributes[attr] == undefined) return;
		if (val == undefined) val = e.attributes[attr].value;
		e.setAttribute("_orig_" + attr, val);
	}
	function orig_load(e, attr) {
		if (e.attributes["_orig_"+attr] == undefined) return;
		e.attributes[attr].value = e.attributes["_orig_" + attr].value;
		e.removeAttribute("_orig_"+attr);
	}
	function g_to_text(e) {
		var text = find_child(e, "title").firstChild.nodeValue;
		return (text)
	}
	function g_to_func(e) {
		var func = g_to_text(e);
		// if there's any manipulation we want to do to the function
		// name before it's searched, do it here before returning.
		return (func);
	}
	function update_text(e) {
		var r = find_child(e, "rect");
		var t = find_child(e, "text");
		var w = parseFloat(r.attributes.width.value) -3;
		var txt = find_child(e, "title").textContent.replace(/\([^(]*\)$/,"");
		t.attributes.x.value = parseFloat(r.attributes.x.value) + 3;

		// Smaller than this size won't fit anything
		if (w < 2 * 12 * 0.59) {
			t.textContent = "";
			return;
		}

		t.textContent = txt;
		var sl = t.getSubStringLength(0, txt.length);
		// check if only whitespace or if we can fit the entire string into width w
		if (/^ *$/.test(txt) || sl < w)
			return;

		// this isn't perfect, but gives a good starting point
		// and avoids calling getSubStringLength too often
		var start = Math.floor((w/sl) * txt.length);
		for (var x = start; x > 0; x = x-2) {
			if (t.getSubStringLength(0, x + 2) <= w) {
				t.textContent = txt.substring(0, x) + "..";
				return;
			}
		}
		t.textContent = "";
	}

	// zoom
	function zoom_reset(e) {
		if (e.attributes != undefined) {
			orig_load(e, "x");
			orig_load(e, "width");
		}
		if (e.childNodes == undefined) return;
		for (var i = 0, c = e.childNodes; i < c.length; i++) {
			zoom_reset(c[i]);
		}
	}
	function zoom_child(e, x, ratio) {
		if (e.attributes != undefined) {
			if (e.attributes.x != undefined) {
				orig_save(e, "x");
				e.attributes.x.value = (parseFloat(e.attributes.x.value) - x - 10) * ratio + 10;
				if (e.tagName == "text")
					e.attributes.x.value = find_child(e.parentNode, "rect[x]").attributes.x.value + 3;
			}
			if (e.attributes.width != undefined) {
				orig_save(e, "width");
				e.attributes.width.value = parseFloat(e.attributes.width.value) * ratio;
			}
		}

		if (e.childNodes == undefined) return;
		for (var i = 0, c = e.childNodes; i < c.length; i++) {
			zoom_child(c[i], x - 10, ratio);
		}
	}
	function zoom_parent(e) {
		if (e.attributes) {
			if (e.attributes.x != undefined) {
				orig_save(e, "x");
				e.attributes.x.value = 10;
			}
			if (e.attributes.width != undefined) {
				orig_save(e, "width");
				e.attributes.width.value = parseInt(svg.width.baseVal.value) - (10 * 2);
			}
		}
		if (e.childNodes == undefined) return;
		for (var i = 0, c = e.childNodes; i < c.length; i++) {
			zoom_parent(c[i]);
		}
	}
	function zoom(node) {
		var attr = find_child(node, "rect").attributes;
		var width = parseFloat(attr.width.value);
		var xmin = parseFloat(attr.x.value);
		var xmax = parseFloat(xmin + width);
		var ymin = parseFloat(attr.y.value);
		var ratio = (svg.width.baseVal.value - 2 * 10) / width;

		// XXX: Workaround for JavaScript float issues (fix me)
		var fudge = 0.0001;

		unzoombtn.classList.remove("hide");

		var el = document.getElementById("frames").children;
		for (var i = 0; i < el.length; i++) {
			var e = el[i];
			var a = find_child(e, "rect").attributes;
			var ex = parseFloat(a.x.value);
			var ew = parseFloat(a.width.value);
			var upstack;
			// Is it an ancestor
			if (0 == 0) {
				upstack = parseFloat(a.y.value) > ymin;
			} else {
				upstack = parseFloat(a.y.value) < ymin;
			}
			if (upstack) {
				// Direct ancestor
				if (ex <= xmin && (ex+ew+fudge) >= xmax) {
					e.classList.add("parent");
					zoom_parent(e);
					update_text(e);
				}
				// not in current path
				else
					e.classList.add("hide");
			}
			// Children maybe
			else {
				// no common path
				if (ex < xmin || ex + fudge >= xmax) {
					e.classList.add("hide");
				}
				else {
					zoom_child(e, xmin, ratio);
					update_text(e);
				}
			}
		}
		search();
	}
	function unzoom(dont_update_text) {
		unzoombtn.classList.add("hide");
		var el = document.getElementById("frames").children;
		for(var i = 0; i < el.length; i++) {
			el[i].classList.remove("parent");
			el[i].classList.remove("hide");
			zoom_reset(el[i]);
			if(!dont_update_text) update_text(el[i]);
		}
		search();
	}
	function clearzoom() {
		unzoom();

		// remove zoom state
		var params = get_params();
		if (params.x) delete params.x;
		if (params.y) delete params.y;
		history.replaceState(null, null, parse_params(params));
	}

	// search
	function toggle_ignorecase() {
		ignorecase = !ignorecase;
		if (ignorecase) {
			ignorecaseBtn.classList.add("show");
		} else {
			ignorecaseBtn.classList.remove("show");
		}
		reset_search();
		search();
	}
	function reset_search() {
		var el = document.querySelectorAll("#frames rect");
		for (var i = 0; i < el.length; i++) {
			orig_load(el[i], "fill")
		}
		var params = get_params();
		delete params.s;
		history.replaceState(null, null, parse_params(params));
	}
	function search_prompt() {
		if (!searching) {
			var term = prompt("Enter a search term (regexp " +
			    "allowed, eg: ^ext4_)"
			    + (ignorecase ? ", ignoring case" : "")
			    + "\nPress Ctrl-i to toggle case sensitivity", "");
			if (term != null) search(term);
		} else {
			reset_search();
			searching = 0;
			currentSearchTerm = null;
			searchbtn.classList.remove("show");
			searchbtn.firstChild.nodeValue = "Search"
			matchedtxt.classList.add("hide");
			matchedtxt.firstChild.nodeValue = ""
		}
	}
	function search(term) {
		if (term) currentSearchTerm = term;

		var re = new RegExp(currentSearchTerm, ignorecase ? 'i' : '');
		var el = document.getElementById("frames").children;
		var matches = new Object();
		var maxwidth = 0;
		for (var i = 0; i < el.length; i++) {
			var e = el[i];
			var func = g_to_func(e);
			var rect = find_child(e, "rect");
			if (func == null || rect == null)
				continue;

			// Save max width. Only works as we have a root frame
			var w = parseFloat(rect.attributes.width.value);
			if (w > maxwidth)
				maxwidth = w;

			if (func.match(re)) {
				// highlight
				var x = parseFloat(rect.attributes.x.value);
				orig_save(rect, "fill");
				rect.attributes.fill.value = "rgb(230,0,230)";

				// remember matches
				if (matches[x] == undefined) {
					matches[x] = w;
				} else {
					if (w > matches[x]) {
						// overwrite with parent
						matches[x] = w;
					}
				}
				searching = 1;
			}
		}
		if (!searching)
			return;
		var params = get_params();
		params.s = currentSearchTerm;
		history.replaceState(null, null, parse_params(params));

		searchbtn.classList.add("show");
		searchbtn.firstChild.nodeValue = "Reset Search";

		// calculate percent matched, excluding vertical overlap
		var count = 0;
		var lastx = -1;
		var lastw = 0;
		var keys = Array();
		for (k in matches) {
			if (matches.hasOwnProperty(k))
				keys.push(k);
		}
		// sort the matched frames by their x location
		// ascending, then width descending
		keys.sort(function(a, b){
			return a - b;
		});
		// Step through frames saving only the biggest bottom-up frames
		// thanks to the sort order. This relies on the tree property
		// where children are always smaller than their parents.
		var fudge = 0.0001;	// JavaScript floating point
		for (var k in keys) {
			var x = parseFloat(keys[k]);
			var w = matches[keys[k]];
			if (x >= lastx + lastw - fudge) {
				count += w;
				lastx = x;
				lastw = w;
			}
		}
		// display matched percent
		matchedtxt.classList.remove("hide");
		var pct = 100 * count / maxwidth;
		if (pct != 100) pct = pct.toFixed(1)
		matchedtxt.firstChild.nodeValue = "Matched: " + pct + "%";
	}
]]>
</script>
<rect x="0.0" y="0" width="1200.0" height="294.0" fill="url(#background)"  />
<text id="title" x="600.00" y="24" >CUDA Time</text>
<text id="details" x="10.00" y="277" > </text>
<text id="unzoom" x="10.00" y="24" class="hide">Reset Zoom</text>
<text id="search" x="1090.00" y="24" >Search</text>
<text id="ignorecase" x="1174.00" y="24" >ic</text>
<text id="matched" x="1090.00" y="277" > </text>
<g id="frames">
<g >
<title>transformers/models/opt/modeling_opt.py(533):__prepare_decoder_attention_mask (8,241 us., 0.03%)</title><rect x="1051.5" y="213" width="0.3" height="15.0" fill="rgb(215,191,23)" rx="2" ry="2" />
<text  x="1054.47" y="223.5" ></text>
</g>
<g >
<title>transformers/models/opt/modeling_opt.py(840):_forward (373,892 us., 1.14%)</title><rect x="1051.9" y="101" width="13.5" height="15.0" fill="rgb(249,77,35)" rx="2" ry="2" />
<text  x="1054.86" y="111.5" ></text>
</g>
<g >
<title>nn.Module:_OPTForCausalLM (1,569,569 us., 4.81%)</title><rect x="1119.3" y="117" width="56.7" height="15.0" fill="rgb(222,122,3)" rx="2" ry="2" />
<text  x="1122.33" y="127.5" >nn.Mod..</text>
</g>
<g >
<title>transformers/models/opt/modeling_opt.py(840):_forward (8,214,496 us., 25.16%)</title><rect x="10.0" y="85" width="296.8" height="15.0" fill="rgb(238,68,14)" rx="2" ry="2" />
<text  x="13.00" y="95.5" >transformers/models/opt/modeling_opt.py..</text>
</g>
<g >
<title>nn.Module:_OPTAttention (8,214,496 us., 25.16%)</title><rect x="10.0" y="165" width="296.8" height="15.0" fill="rgb(253,211,19)" rx="2" ry="2" />
<text  x="13.00" y="175.5" >nn.Module:_OPTAttention</text>
</g>
<g >
<title>nn.Module:_OPTAttention (1,605,326 us., 4.92%)</title><rect x="993.5" y="197" width="58.0" height="15.0" fill="rgb(245,70,26)" rx="2" ry="2" />
<text  x="996.46" y="207.5" >nn.Mod..</text>
</g>
<g >
<title>transformers/models/opt/modeling_opt.py(160):_forward (993,339 us., 3.04%)</title><rect x="1065.5" y="213" width="35.9" height="15.0" fill="rgb(243,199,1)" rx="2" ry="2" />
<text  x="1068.54" y="223.5" >tra..</text>
</g>
<g >
<title>transformers/models/opt/modeling_opt.py(298):_forward (380,650 us., 1.17%)</title><rect x="1176.0" y="229" width="13.8" height="15.0" fill="rgb(232,8,51)" rx="2" ry="2" />
<text  x="1179.04" y="239.5" ></text>
</g>
<g >
<title>nn.Module:_OPTDecoder (380,650 us., 1.17%)</title><rect x="1176.0" y="181" width="13.8" height="15.0" fill="rgb(236,223,2)" rx="2" ry="2" />
<text  x="1179.04" y="191.5" ></text>
</g>
<g >
<title>transformers/models/opt/modeling_opt.py(298):_forward (1,501,568 us., 4.60%)</title><rect x="923.6" y="165" width="54.2" height="15.0" fill="rgb(212,130,9)" rx="2" ry="2" />
<text  x="926.57" y="175.5" >trans..</text>
</g>
<g >
<title>transformers/models/opt/modeling_opt.py(298):_forward (1,478,540 us., 4.53%)</title><rect x="869.7" y="181" width="53.4" height="15.0" fill="rgb(221,79,4)" rx="2" ry="2" />
<text  x="872.68" y="191.5" >trans..</text>
</g>
<g >
<title>nn.Module:_OPTForCausalLM (373,892 us., 1.14%)</title><rect x="1051.9" y="85" width="13.5" height="15.0" fill="rgb(244,213,7)" rx="2" ry="2" />
<text  x="1054.86" y="95.5" ></text>
</g>
<g >
<title>transformers/models/opt/modeling_opt.py(553):_forward (993,339 us., 3.04%)</title><rect x="1065.5" y="149" width="35.9" height="15.0" fill="rgb(237,171,53)" rx="2" ry="2" />
<text  x="1068.54" y="159.5" >tra..</text>
</g>
<g >
<title>transformers/models/opt/modeling_opt.py(553):_forward (4,887 us., 0.01%)</title><rect x="1189.8" y="229" width="0.2" height="15.0" fill="rgb(221,37,39)" rx="2" ry="2" />
<text  x="1192.82" y="239.5" ></text>
</g>
<g >
<title>transformers/models/opt/modeling_opt.py(840):_forward (380,650 us., 1.17%)</title><rect x="1176.0" y="165" width="13.8" height="15.0" fill="rgb(227,55,52)" rx="2" ry="2" />
<text  x="1179.04" y="175.5" ></text>
</g>
<g >
<title>torch/autograd/grad_mode.py(27):_decorate_context (1,605,326 us., 4.92%)</title><rect x="993.5" y="69" width="58.0" height="15.0" fill="rgb(219,38,51)" rx="2" ry="2" />
<text  x="996.46" y="79.5" >torch/..</text>
</g>
<g >
<title>nn.Module:_OPTDecoderLayer (15,134,157 us., 46.35%)</title><rect x="306.8" y="165" width="546.9" height="15.0" fill="rgb(247,227,15)" rx="2" ry="2" />
<text  x="309.84" y="175.5" >nn.Module:_OPTDecoderLayer</text>
</g>
<g >
<title>nn.Module:_OPTAttention (1,478,540 us., 4.53%)</title><rect x="869.7" y="197" width="53.4" height="15.0" fill="rgb(252,179,14)" rx="2" ry="2" />
<text  x="872.68" y="207.5" >nn.Mo..</text>
</g>
<g >
<title>profiling/utils.py(18):_profile_model (432,046 us., 1.32%)</title><rect x="977.8" y="69" width="15.7" height="15.0" fill="rgb(247,226,26)" rx="2" ry="2" />
<text  x="980.85" y="79.5" ></text>
</g>
<g >
<title>torch/autograd/grad_mode.py(27):_decorate_context (380,650 us., 1.17%)</title><rect x="1176.0" y="117" width="13.8" height="15.0" fill="rgb(211,70,20)" rx="2" ry="2" />
<text  x="1179.04" y="127.5" ></text>
</g>
<g >
<title>transformers/models/opt/modeling_opt.py(298):_forward (493,967 us., 1.51%)</title><rect x="1101.4" y="165" width="17.9" height="15.0" fill="rgb(209,106,39)" rx="2" ry="2" />
<text  x="1104.44" y="175.5" ></text>
</g>
<g >
<title>nn.Module:_OPTForCausalLM (993,339 us., 3.04%)</title><rect x="1065.5" y="101" width="35.9" height="15.0" fill="rgb(229,25,21)" rx="2" ry="2" />
<text  x="1068.54" y="111.5" >nn...</text>
</g>
<g >
<title>transformers/models/opt/modeling_opt.py(553):_forward (8,214,496 us., 25.16%)</title><rect x="10.0" y="117" width="296.8" height="15.0" fill="rgb(223,20,29)" rx="2" ry="2" />
<text  x="13.00" y="127.5" >transformers/models/opt/modeling_opt.py..</text>
</g>
<g >
<title>transformers/models/opt/modeling_opt.py(298):_forward (8,214,496 us., 25.16%)</title><rect x="10.0" y="149" width="296.8" height="15.0" fill="rgb(233,50,32)" rx="2" ry="2" />
<text  x="13.00" y="159.5" >transformers/models/opt/modeling_opt.py..</text>
</g>
<g >
<title>nn.Module:_OPTDecoderLayer (993,339 us., 3.04%)</title><rect x="1065.5" y="165" width="35.9" height="15.0" fill="rgb(205,91,1)" rx="2" ry="2" />
<text  x="1068.54" y="175.5" >nn...</text>
</g>
<g >
<title>transformers/models/opt/modeling_opt.py(553):_forward (1,501,568 us., 4.60%)</title><rect x="923.6" y="133" width="54.2" height="15.0" fill="rgb(219,99,21)" rx="2" ry="2" />
<text  x="926.57" y="143.5" >trans..</text>
</g>
<g >
<title>nn.Module:_OPTAttention (432,046 us., 1.32%)</title><rect x="977.8" y="181" width="15.7" height="15.0" fill="rgb(246,174,15)" rx="2" ry="2" />
<text  x="980.85" y="191.5" ></text>
</g>
<g >
<title>nn.Module:_OPTDecoderLayer (432,046 us., 1.32%)</title><rect x="977.8" y="149" width="15.7" height="15.0" fill="rgb(234,89,16)" rx="2" ry="2" />
<text  x="980.85" y="159.5" ></text>
</g>
<g >
<title>transformers/models/opt/modeling_opt.py(160):_forward (1,605,326 us., 4.92%)</title><rect x="993.5" y="213" width="58.0" height="15.0" fill="rgb(220,60,48)" rx="2" ry="2" />
<text  x="996.46" y="223.5" >transf..</text>
</g>
<g >
<title>nn.Module:_OPTAttention (1,569,569 us., 4.81%)</title><rect x="1119.3" y="213" width="56.7" height="15.0" fill="rgb(224,227,8)" rx="2" ry="2" />
<text  x="1122.33" y="223.5" >nn.Mod..</text>
</g>
<g >
<title>nn.Module:_OPTDecoder (6,198 us., 0.02%)</title><rect x="923.1" y="149" width="0.3" height="15.0" fill="rgb(238,74,54)" rx="2" ry="2" />
<text  x="926.13" y="159.5" ></text>
</g>
<g >
<title>nn.Module:_OPTForCausalLM (4,681 us., 0.01%)</title><rect x="1065.4" y="117" width="0.1" height="15.0" fill="rgb(242,6,29)" rx="2" ry="2" />
<text  x="1068.37" y="127.5" ></text>
</g>
<g >
<title>nn.Module:_OPTForCausalLM (1,501,568 us., 4.60%)</title><rect x="923.6" y="85" width="54.2" height="15.0" fill="rgb(205,172,2)" rx="2" ry="2" />
<text  x="926.57" y="95.5" >nn.Mo..</text>
</g>
<g >
<title>profiling/utils.py(18):_profile_model (4,887 us., 0.01%)</title><rect x="1189.8" y="165" width="0.2" height="15.0" fill="rgb(213,189,54)" rx="2" ry="2" />
<text  x="1192.82" y="175.5" ></text>
</g>
<g >
<title>nn.Module:_OPTForCausalLM (4,887 us., 0.01%)</title><rect x="1189.8" y="181" width="0.2" height="15.0" fill="rgb(232,75,20)" rx="2" ry="2" />
<text  x="1192.82" y="191.5" ></text>
</g>
<g >
<title>nn.Module:_OPTDecoder (1,501,568 us., 4.60%)</title><rect x="923.6" y="117" width="54.2" height="15.0" fill="rgb(244,100,2)" rx="2" ry="2" />
<text  x="926.57" y="127.5" >nn.Mo..</text>
</g>
<g >
<title>transformers/models/opt/modeling_opt.py(553):_forward (6,054 us., 0.02%)</title><rect x="923.4" y="149" width="0.2" height="15.0" fill="rgb(246,178,16)" rx="2" ry="2" />
<text  x="926.35" y="159.5" ></text>
</g>
<g >
<title>all (32,654,329 us., 100%)</title><rect x="10.0" y="245" width="1180.0" height="15.0" fill="rgb(244,213,51)" rx="2" ry="2" />
<text  x="13.00" y="255.5" ></text>
</g>
<g >
<title>torch/autograd/grad_mode.py(27):_decorate_context (6,054 us., 0.02%)</title><rect x="923.4" y="69" width="0.2" height="15.0" fill="rgb(231,28,41)" rx="2" ry="2" />
<text  x="926.35" y="79.5" ></text>
</g>
<g >
<title>&lt;built-in_method_layer_norm_of_type_object_at_0x7fadbc0589c0&gt; (378,573 us., 1.16%)</title><rect x="1051.9" y="229" width="13.6" height="15.0" fill="rgb(205,85,43)" rx="2" ry="2" />
<text  x="1054.86" y="239.5" ></text>
</g>
<g >
<title>nn.Module:_OPTDecoder (993,339 us., 3.04%)</title><rect x="1065.5" y="133" width="35.9" height="15.0" fill="rgb(228,53,25)" rx="2" ry="2" />
<text  x="1068.54" y="143.5" >nn...</text>
</g>
<g >
<title>nn.Module:_OPTDecoder (432,046 us., 1.32%)</title><rect x="977.8" y="117" width="15.7" height="15.0" fill="rgb(251,94,36)" rx="2" ry="2" />
<text  x="980.85" y="127.5" ></text>
</g>
<g >
<title>nn.Module:_OPTDecoderLayer (8,214,496 us., 25.16%)</title><rect x="10.0" y="133" width="296.8" height="15.0" fill="rgb(254,30,20)" rx="2" ry="2" />
<text  x="13.00" y="143.5" >nn.Module:_OPTDecoderLayer</text>
</g>
<g >
<title>torch/autograd/grad_mode.py(27):_decorate_context (8,241 us., 0.03%)</title><rect x="1051.5" y="117" width="0.3" height="15.0" fill="rgb(220,147,5)" rx="2" ry="2" />
<text  x="1054.47" y="127.5" ></text>
</g>
<g >
<title>transformers/models/opt/modeling_opt.py(157):__shape (432,046 us., 1.32%)</title><rect x="977.8" y="213" width="15.7" height="15.0" fill="rgb(225,201,43)" rx="2" ry="2" />
<text  x="980.85" y="223.5" ></text>
</g>
<g >
<title>torch/autograd/grad_mode.py(27):_decorate_context (6,198 us., 0.02%)</title><rect x="923.1" y="85" width="0.3" height="15.0" fill="rgb(224,3,16)" rx="2" ry="2" />
<text  x="926.13" y="95.5" ></text>
</g>
<g >
<title>nn.Module:_OPTDecoder (1,478,540 us., 4.53%)</title><rect x="869.7" y="133" width="53.4" height="15.0" fill="rgb(228,136,12)" rx="2" ry="2" />
<text  x="872.68" y="143.5" >nn.Mo..</text>
</g>
<g >
<title>torch/autograd/grad_mode.py(27):_decorate_context (493,967 us., 1.51%)</title><rect x="1101.4" y="53" width="17.9" height="15.0" fill="rgb(223,118,28)" rx="2" ry="2" />
<text  x="1104.44" y="63.5" ></text>
</g>
<g >
<title>torch/nn/modules/linear.py(113):_forward (23,790,064 us., 72.85%)</title><rect x="10.0" y="213" width="859.7" height="15.0" fill="rgb(219,43,2)" rx="2" ry="2" />
<text  x="13.00" y="223.5" >torch/nn/modules/linear.py(113):_forward</text>
</g>
<g >
<title>torch/nn/modules/activation.py(97):_forward (493,967 us., 1.51%)</title><rect x="1101.4" y="197" width="17.9" height="15.0" fill="rgb(240,214,19)" rx="2" ry="2" />
<text  x="1104.44" y="207.5" ></text>
</g>
<g >
<title>nn.Module:_OPTForCausalLM (1,605,326 us., 4.92%)</title><rect x="993.5" y="101" width="58.0" height="15.0" fill="rgb(241,179,7)" rx="2" ry="2" />
<text  x="996.46" y="111.5" >nn.Mod..</text>
</g>
<g >
<title>transformers/models/opt/modeling_opt.py(840):_forward (993,339 us., 3.04%)</title><rect x="1065.5" y="117" width="35.9" height="15.0" fill="rgb(245,8,6)" rx="2" ry="2" />
<text  x="1068.54" y="127.5" >tra..</text>
</g>
<g >
<title>transformers/models/opt/modeling_opt.py(840):_forward (4,681 us., 0.01%)</title><rect x="1065.4" y="133" width="0.1" height="15.0" fill="rgb(244,6,52)" rx="2" ry="2" />
<text  x="1068.37" y="143.5" ></text>
</g>
<g >
<title>nn.Module:_LayerNorm (378,573 us., 1.16%)</title><rect x="1051.9" y="181" width="13.6" height="15.0" fill="rgb(228,163,27)" rx="2" ry="2" />
<text  x="1054.86" y="191.5" ></text>
</g>
<g >
<title>nn.Module:_OPTDecoder (4,887 us., 0.01%)</title><rect x="1189.8" y="213" width="0.2" height="15.0" fill="rgb(211,77,8)" rx="2" ry="2" />
<text  x="1192.82" y="223.5" ></text>
</g>
<g >
<title>transformers/models/opt/modeling_opt.py(160):_forward (8,214,496 us., 25.16%)</title><rect x="10.0" y="181" width="296.8" height="15.0" fill="rgb(206,195,30)" rx="2" ry="2" />
<text  x="13.00" y="191.5" >transformers/models/opt/modeling_opt.py..</text>
</g>
<g >
<title>&lt;built-in_method_max_of_type_object_at_0x7fadbc0589c0&gt; (993,339 us., 3.04%)</title><rect x="1065.5" y="229" width="35.9" height="15.0" fill="rgb(245,48,40)" rx="2" ry="2" />
<text  x="1068.54" y="239.5" >&lt;bu..</text>
</g>
<g >
<title>transformers/models/opt/modeling_opt.py(840):_forward (432,046 us., 1.32%)</title><rect x="977.8" y="101" width="15.7" height="15.0" fill="rgb(247,9,0)" rx="2" ry="2" />
<text  x="980.85" y="111.5" ></text>
</g>
<g >
<title>torch/nn/functional.py(1804):_softmax (1,501,568 us., 4.60%)</title><rect x="923.6" y="213" width="54.2" height="15.0" fill="rgb(248,165,33)" rx="2" ry="2" />
<text  x="926.57" y="223.5" >torch..</text>
</g>
<g >
<title>nn.Module:_OPTForCausalLM (380,650 us., 1.17%)</title><rect x="1176.0" y="149" width="13.8" height="15.0" fill="rgb(240,56,24)" rx="2" ry="2" />
<text  x="1179.04" y="159.5" ></text>
</g>
<g >
<title>nn.Module:_OPTDecoderLayer (493,967 us., 1.51%)</title><rect x="1101.4" y="149" width="17.9" height="15.0" fill="rgb(233,170,11)" rx="2" ry="2" />
<text  x="1104.44" y="159.5" ></text>
</g>
<g >
<title>&lt;built-in_method_encode_of_str_object_at_0x7facc7b4f4b0&gt; (3,550,002 us., 10.87%)</title><rect x="923.6" y="229" width="128.3" height="15.0" fill="rgb(207,171,27)" rx="2" ry="2" />
<text  x="926.57" y="239.5" >&lt;built-in_method..</text>
</g>
<g >
<title>transformers/models/opt/modeling_opt.py(840):_forward (6,198 us., 0.02%)</title><rect x="923.1" y="133" width="0.3" height="15.0" fill="rgb(247,139,51)" rx="2" ry="2" />
<text  x="926.13" y="143.5" ></text>
</g>
<g >
<title>transformers/models/opt/modeling_opt.py(553):_forward (493,967 us., 1.51%)</title><rect x="1101.4" y="133" width="17.9" height="15.0" fill="rgb(235,156,39)" rx="2" ry="2" />
<text  x="1104.44" y="143.5" ></text>
</g>
<g >
<title>nn.Module:_OPTForCausalLM (6,054 us., 0.02%)</title><rect x="923.4" y="101" width="0.2" height="15.0" fill="rgb(246,52,1)" rx="2" ry="2" />
<text  x="926.35" y="111.5" ></text>
</g>
<g >
<title>transformers/models/opt/modeling_opt.py(840):_forward (4,887 us., 0.01%)</title><rect x="1189.8" y="197" width="0.2" height="15.0" fill="rgb(210,54,51)" rx="2" ry="2" />
<text  x="1192.82" y="207.5" ></text>
</g>
<g >
<title>transformers/models/opt/modeling_opt.py(840):_forward (15,134,157 us., 46.35%)</title><rect x="306.8" y="117" width="546.9" height="15.0" fill="rgb(212,164,36)" rx="2" ry="2" />
<text  x="309.84" y="127.5" >transformers/models/opt/modeling_opt.py(840):_forward</text>
</g>
<g >
<title>nn.Module:_Embedding (6,198 us., 0.02%)</title><rect x="923.1" y="181" width="0.3" height="15.0" fill="rgb(229,135,33)" rx="2" ry="2" />
<text  x="926.13" y="191.5" ></text>
</g>
<g >
<title>transformers/models/opt/modeling_opt.py(553):_forward (8,241 us., 0.03%)</title><rect x="1051.5" y="197" width="0.3" height="15.0" fill="rgb(229,221,42)" rx="2" ry="2" />
<text  x="1054.47" y="207.5" ></text>
</g>
<g >
<title>torch/nn/functional.py(2488):_layer_norm (378,573 us., 1.16%)</title><rect x="1051.9" y="213" width="13.6" height="15.0" fill="rgb(230,203,7)" rx="2" ry="2" />
<text  x="1054.86" y="223.5" ></text>
</g>
<g >
<title>nn.Module:_OPTLearnedPositionalEmbedding (6,054 us., 0.02%)</title><rect x="923.4" y="165" width="0.2" height="15.0" fill="rgb(217,160,38)" rx="2" ry="2" />
<text  x="926.35" y="175.5" ></text>
</g>
<g >
<title>nn.Module:_OPTDecoderLayer (1,569,569 us., 4.81%)</title><rect x="1119.3" y="181" width="56.7" height="15.0" fill="rgb(214,140,47)" rx="2" ry="2" />
<text  x="1122.33" y="191.5" >nn.Mod..</text>
</g>
<g >
<title>nn.Module:_OPTDecoder (6,054 us., 0.02%)</title><rect x="923.4" y="133" width="0.2" height="15.0" fill="rgb(237,17,18)" rx="2" ry="2" />
<text  x="926.35" y="143.5" ></text>
</g>
<g >
<title>nn.Module:_OPTDecoder (373,892 us., 1.14%)</title><rect x="1051.9" y="117" width="13.5" height="15.0" fill="rgb(225,160,25)" rx="2" ry="2" />
<text  x="1054.86" y="127.5" ></text>
</g>
<g >
<title>torch/nn/modules/normalization.py(188):_forward (378,573 us., 1.16%)</title><rect x="1051.9" y="197" width="13.6" height="15.0" fill="rgb(232,149,11)" rx="2" ry="2" />
<text  x="1054.86" y="207.5" ></text>
</g>
<g >
<title>torch/autograd/grad_mode.py(27):_decorate_context (1,569,569 us., 4.81%)</title><rect x="1119.3" y="85" width="56.7" height="15.0" fill="rgb(222,83,31)" rx="2" ry="2" />
<text  x="1122.33" y="95.5" >torch/..</text>
</g>
<g >
<title>transformers/models/opt/modeling_opt.py(553):_forward (1,478,540 us., 4.53%)</title><rect x="869.7" y="149" width="53.4" height="15.0" fill="rgb(227,69,4)" rx="2" ry="2" />
<text  x="872.68" y="159.5" >trans..</text>
</g>
<g >
<title>profiling/utils.py(18):_profile_model (8,241 us., 0.03%)</title><rect x="1051.5" y="133" width="0.3" height="15.0" fill="rgb(251,194,10)" rx="2" ry="2" />
<text  x="1054.47" y="143.5" ></text>
</g>
<g >
<title>nn.Module:_OPTDecoderLayer (1,478,540 us., 4.53%)</title><rect x="869.7" y="165" width="53.4" height="15.0" fill="rgb(242,50,41)" rx="2" ry="2" />
<text  x="872.68" y="175.5" >nn.Mo..</text>
</g>
<g >
<title>transformers/models/opt/modeling_opt.py(114):_forward (6,054 us., 0.02%)</title><rect x="923.4" y="181" width="0.2" height="15.0" fill="rgb(237,187,26)" rx="2" ry="2" />
<text  x="926.35" y="191.5" ></text>
</g>
<g >
<title>transformers/models/opt/modeling_opt.py(840):_forward (8,241 us., 0.03%)</title><rect x="1051.5" y="165" width="0.3" height="15.0" fill="rgb(247,46,21)" rx="2" ry="2" />
<text  x="1054.47" y="175.5" ></text>
</g>
<g >
<title>profiling/utils.py(18):_profile_model (6,054 us., 0.02%)</title><rect x="923.4" y="85" width="0.2" height="15.0" fill="rgb(214,183,20)" rx="2" ry="2" />
<text  x="926.35" y="95.5" ></text>
</g>
<g >
<title>transformers/models/opt/modeling_opt.py(298):_forward (15,134,157 us., 46.35%)</title><rect x="306.8" y="181" width="546.9" height="15.0" fill="rgb(227,102,36)" rx="2" ry="2" />
<text  x="309.84" y="191.5" >transformers/models/opt/modeling_opt.py(298):_forward</text>
</g>
<g >
<title>nn.Module:_Linear (23,790,064 us., 72.85%)</title><rect x="10.0" y="197" width="859.7" height="15.0" fill="rgb(213,158,47)" rx="2" ry="2" />
<text  x="13.00" y="207.5" >nn.Module:_Linear</text>
</g>
<g >
<title>torch/nn/functional.py(2099):_embedding (12,252 us., 0.04%)</title><rect x="923.1" y="213" width="0.5" height="15.0" fill="rgb(209,158,34)" rx="2" ry="2" />
<text  x="926.13" y="223.5" ></text>
</g>
<g >
<title>transformers/models/opt/modeling_opt.py(840):_forward (1,478,540 us., 4.53%)</title><rect x="869.7" y="117" width="53.4" height="15.0" fill="rgb(231,164,3)" rx="2" ry="2" />
<text  x="872.68" y="127.5" >trans..</text>
</g>
<g >
<title>nn.Module:_OPTDecoderLayer (373,892 us., 1.14%)</title><rect x="1051.9" y="149" width="13.5" height="15.0" fill="rgb(253,199,26)" rx="2" ry="2" />
<text  x="1054.86" y="159.5" ></text>
</g>
<g >
<title>nn.Module:_OPTDecoder (4,681 us., 0.01%)</title><rect x="1065.4" y="149" width="0.1" height="15.0" fill="rgb(205,160,38)" rx="2" ry="2" />
<text  x="1068.37" y="159.5" ></text>
</g>
<g >
<title>transformers/models/opt/modeling_opt.py(298):_forward (373,892 us., 1.14%)</title><rect x="1051.9" y="165" width="13.5" height="15.0" fill="rgb(221,166,21)" rx="2" ry="2" />
<text  x="1054.86" y="175.5" ></text>
</g>
<g >
<title>transformers/models/opt/modeling_opt.py(553):_forward (373,892 us., 1.14%)</title><rect x="1051.9" y="133" width="13.5" height="15.0" fill="rgb(215,22,52)" rx="2" ry="2" />
<text  x="1054.86" y="143.5" ></text>
</g>
<g >
<title>nn.Module:_OPTForCausalLM (8,214,496 us., 25.16%)</title><rect x="10.0" y="69" width="296.8" height="15.0" fill="rgb(216,163,20)" rx="2" ry="2" />
<text  x="13.00" y="79.5" >nn.Module:_OPTForCausalLM</text>
</g>
<g >
<title>transformers/models/opt/modeling_opt.py(298):_forward (432,046 us., 1.32%)</title><rect x="977.8" y="165" width="15.7" height="15.0" fill="rgb(242,49,40)" rx="2" ry="2" />
<text  x="980.85" y="175.5" ></text>
</g>
<g >
<title>torch/autograd/grad_mode.py(27):_decorate_context (432,046 us., 1.32%)</title><rect x="977.8" y="53" width="15.7" height="15.0" fill="rgb(251,100,3)" rx="2" ry="2" />
<text  x="980.85" y="63.5" ></text>
</g>
<g >
<title>transformers/models/opt/modeling_opt.py(298):_forward (993,339 us., 3.04%)</title><rect x="1065.5" y="181" width="35.9" height="15.0" fill="rgb(219,32,19)" rx="2" ry="2" />
<text  x="1068.54" y="191.5" >tra..</text>
</g>
<g >
<title>nn.Module:_OPTForCausalLM (432,046 us., 1.32%)</title><rect x="977.8" y="85" width="15.7" height="15.0" fill="rgb(207,18,14)" rx="2" ry="2" />
<text  x="980.85" y="95.5" ></text>
</g>
<g >
<title>transformers/models/opt/modeling_opt.py(553):_forward (1,569,569 us., 4.81%)</title><rect x="1119.3" y="165" width="56.7" height="15.0" fill="rgb(226,201,3)" rx="2" ry="2" />
<text  x="1122.33" y="175.5" >transf..</text>
</g>
<g >
<title>nn.Module:_OPTDecoderLayer (1,605,326 us., 4.92%)</title><rect x="993.5" y="165" width="58.0" height="15.0" fill="rgb(210,139,5)" rx="2" ry="2" />
<text  x="996.46" y="175.5" >nn.Mod..</text>
</g>
<g >
<title>transformers/models/opt/modeling_opt.py(840):_forward (441,411 us., 1.35%)</title><rect x="853.7" y="181" width="16.0" height="15.0" fill="rgb(223,6,41)" rx="2" ry="2" />
<text  x="856.73" y="191.5" ></text>
</g>
<g >
<title>&lt;built-in_function_linear&gt; (23,790,064 us., 72.85%)</title><rect x="10.0" y="229" width="859.7" height="15.0" fill="rgb(233,211,14)" rx="2" ry="2" />
<text  x="13.00" y="239.5" >&lt;built-in_function_linear&gt;</text>
</g>
<g >
<title>torch/autograd/grad_mode.py(27):_decorate_context (1,478,540 us., 4.53%)</title><rect x="869.7" y="69" width="53.4" height="15.0" fill="rgb(213,104,2)" rx="2" ry="2" />
<text  x="872.68" y="79.5" >torch..</text>
</g>
<g >
<title>nn.Module:_OPTForCausalLM (1,478,540 us., 4.53%)</title><rect x="869.7" y="101" width="53.4" height="15.0" fill="rgb(247,220,53)" rx="2" ry="2" />
<text  x="872.68" y="111.5" >nn.Mo..</text>
</g>
<g >
<title>nn.Module:_OPTForCausalLM (441,411 us., 1.35%)</title><rect x="853.7" y="165" width="16.0" height="15.0" fill="rgb(214,200,3)" rx="2" ry="2" />
<text  x="856.73" y="175.5" ></text>
</g>
<g >
<title>torch/autograd/grad_mode.py(27):_decorate_context (4,887 us., 0.01%)</title><rect x="1189.8" y="149" width="0.2" height="15.0" fill="rgb(215,16,2)" rx="2" ry="2" />
<text  x="1192.82" y="159.5" ></text>
</g>
<g >
<title>transformers/models/opt/modeling_opt.py(840):_forward (493,967 us., 1.51%)</title><rect x="1101.4" y="101" width="17.9" height="15.0" fill="rgb(247,54,36)" rx="2" ry="2" />
<text  x="1104.44" y="111.5" ></text>
</g>
<g >
<title>transformers/models/opt/modeling_opt.py(553):_forward (432,046 us., 1.32%)</title><rect x="977.8" y="133" width="15.7" height="15.0" fill="rgb(235,170,48)" rx="2" ry="2" />
<text  x="980.85" y="143.5" ></text>
</g>
<g >
<title>nn.Module:_OPTDecoder (493,967 us., 1.51%)</title><rect x="1101.4" y="117" width="17.9" height="15.0" fill="rgb(219,134,20)" rx="2" ry="2" />
<text  x="1104.44" y="127.5" ></text>
</g>
<g >
<title>transformers/models/opt/modeling_opt.py(840):_forward (1,501,568 us., 4.60%)</title><rect x="923.6" y="101" width="54.2" height="15.0" fill="rgb(206,180,26)" rx="2" ry="2" />
<text  x="926.57" y="111.5" >trans..</text>
</g>
<g >
<title>torch/nn/functional.py(1446):_relu (493,967 us., 1.51%)</title><rect x="1101.4" y="213" width="17.9" height="15.0" fill="rgb(213,196,20)" rx="2" ry="2" />
<text  x="1104.44" y="223.5" ></text>
</g>
<g >
<title>nn.Module:_OPTDecoder (15,134,157 us., 46.35%)</title><rect x="306.8" y="133" width="546.9" height="15.0" fill="rgb(231,45,53)" rx="2" ry="2" />
<text  x="309.84" y="143.5" >nn.Module:_OPTDecoder</text>
</g>
<g >
<title>transformers/models/opt/modeling_opt.py(840):_forward (6,054 us., 0.02%)</title><rect x="923.4" y="117" width="0.2" height="15.0" fill="rgb(236,93,27)" rx="2" ry="2" />
<text  x="926.35" y="127.5" ></text>
</g>
<g >
<title>nn.Module:_OPTDecoder (8,214,496 us., 25.16%)</title><rect x="10.0" y="101" width="296.8" height="15.0" fill="rgb(214,62,27)" rx="2" ry="2" />
<text  x="13.00" y="111.5" >nn.Module:_OPTDecoder</text>
</g>
<g >
<title>transformers/models/opt/modeling_opt.py(840):_forward (1,569,569 us., 4.81%)</title><rect x="1119.3" y="133" width="56.7" height="15.0" fill="rgb(235,41,50)" rx="2" ry="2" />
<text  x="1122.33" y="143.5" >transf..</text>
</g>
<g >
<title>transformers/models/opt/modeling_opt.py(553):_forward (15,134,157 us., 46.35%)</title><rect x="306.8" y="149" width="546.9" height="15.0" fill="rgb(223,167,27)" rx="2" ry="2" />
<text  x="309.84" y="159.5" >transformers/models/opt/modeling_opt.py(553):_forward</text>
</g>
<g >
<title>nn.Module:_OPTAttention (993,339 us., 3.04%)</title><rect x="1065.5" y="197" width="35.9" height="15.0" fill="rgb(240,12,52)" rx="2" ry="2" />
<text  x="1068.54" y="207.5" >nn...</text>
</g>
<g >
<title>transformers/models/opt/modeling_opt.py(553):_forward (1,605,326 us., 4.92%)</title><rect x="993.5" y="149" width="58.0" height="15.0" fill="rgb(251,130,54)" rx="2" ry="2" />
<text  x="996.46" y="159.5" >transf..</text>
</g>
<g >
<title>torch/autograd/grad_mode.py(27):_decorate_context (15,134,157 us., 46.35%)</title><rect x="306.8" y="69" width="546.9" height="15.0" fill="rgb(248,29,22)" rx="2" ry="2" />
<text  x="309.84" y="79.5" >torch/autograd/grad_mode.py(27):_decorate_context</text>
</g>
<g >
<title>torch/autograd/grad_mode.py(27):_decorate_context (993,339 us., 3.04%)</title><rect x="1065.5" y="69" width="35.9" height="15.0" fill="rgb(251,90,33)" rx="2" ry="2" />
<text  x="1068.54" y="79.5" >tor..</text>
</g>
<g >
<title>&lt;built-in_method_relu_of_type_object_at_0x7fadbc0589c0&gt; (493,967 us., 1.51%)</title><rect x="1101.4" y="229" width="17.9" height="15.0" fill="rgb(232,205,13)" rx="2" ry="2" />
<text  x="1104.44" y="239.5" ></text>
</g>
<g >
<title>profiling/utils.py(18):_profile_model (380,650 us., 1.17%)</title><rect x="1176.0" y="133" width="13.8" height="15.0" fill="rgb(231,76,11)" rx="2" ry="2" />
<text  x="1179.04" y="143.5" ></text>
</g>
<g >
<title>profiling/utils.py(18):_profile_model (1,605,326 us., 4.92%)</title><rect x="993.5" y="85" width="58.0" height="15.0" fill="rgb(218,99,39)" rx="2" ry="2" />
<text  x="996.46" y="95.5" >profil..</text>
</g>
<g >
<title>nn.Module:_OPTForCausalLM (15,134,157 us., 46.35%)</title><rect x="306.8" y="101" width="546.9" height="15.0" fill="rgb(213,132,13)" rx="2" ry="2" />
<text  x="309.84" y="111.5" >nn.Module:_OPTForCausalLM</text>
</g>
<g >
<title>transformers/models/opt/modeling_opt.py(160):_forward (432,046 us., 1.32%)</title><rect x="977.8" y="197" width="15.7" height="15.0" fill="rgb(241,8,40)" rx="2" ry="2" />
<text  x="980.85" y="207.5" ></text>
</g>
<g >
<title>nn.Module:_OPTForCausalLM (8,241 us., 0.03%)</title><rect x="1051.5" y="149" width="0.3" height="15.0" fill="rgb(234,174,28)" rx="2" ry="2" />
<text  x="1054.47" y="159.5" ></text>
</g>
<g >
<title>nn.Module:_OPTAttention (1,501,568 us., 4.60%)</title><rect x="923.6" y="181" width="54.2" height="15.0" fill="rgb(225,36,22)" rx="2" ry="2" />
<text  x="926.57" y="191.5" >nn.Mo..</text>
</g>
<g >
<title>&lt;built-in_method_bmm_of_type_object_at_0x7fadbc0589c0&gt; (1,478,540 us., 4.53%)</title><rect x="869.7" y="229" width="53.4" height="15.0" fill="rgb(225,56,22)" rx="2" ry="2" />
<text  x="872.68" y="239.5" >&lt;buil..</text>
</g>
<g >
<title>torch/nn/modules/sparse.py(157):_forward (12,252 us., 0.04%)</title><rect x="923.1" y="197" width="0.5" height="15.0" fill="rgb(246,191,46)" rx="2" ry="2" />
<text  x="926.13" y="207.5" ></text>
</g>
<g >
<title>profiling/utils.py(18):_profile_model (493,967 us., 1.51%)</title><rect x="1101.4" y="69" width="17.9" height="15.0" fill="rgb(245,76,34)" rx="2" ry="2" />
<text  x="1104.44" y="79.5" ></text>
</g>
<g >
<title>nn.Module:_OPTDecoderLayer (380,650 us., 1.17%)</title><rect x="1176.0" y="213" width="13.8" height="15.0" fill="rgb(213,211,44)" rx="2" ry="2" />
<text  x="1179.04" y="223.5" ></text>
</g>
<g >
<title>profiling/utils.py(18):_profile_model (6,198 us., 0.02%)</title><rect x="923.1" y="101" width="0.3" height="15.0" fill="rgb(250,2,46)" rx="2" ry="2" />
<text  x="926.13" y="111.5" ></text>
</g>
<g >
<title>nn.Module:_ReLU (493,967 us., 1.51%)</title><rect x="1101.4" y="181" width="17.9" height="15.0" fill="rgb(207,214,50)" rx="2" ry="2" />
<text  x="1104.44" y="191.5" ></text>
</g>
<g >
<title>transformers/models/opt/modeling_opt.py(553):_forward (4,681 us., 0.01%)</title><rect x="1065.4" y="165" width="0.1" height="15.0" fill="rgb(253,187,51)" rx="2" ry="2" />
<text  x="1068.37" y="175.5" ></text>
</g>
<g >
<title>transformers/models/opt/modeling_opt.py(840):_forward (1,605,326 us., 4.92%)</title><rect x="993.5" y="117" width="58.0" height="15.0" fill="rgb(208,14,44)" rx="2" ry="2" />
<text  x="996.46" y="127.5" >transf..</text>
</g>
<g >
<title>profiling/utils.py(18):_profile_model (8,214,496 us., 25.16%)</title><rect x="10.0" y="53" width="296.8" height="15.0" fill="rgb(231,99,11)" rx="2" ry="2" />
<text  x="13.00" y="63.5" >profiling/utils.py(18):_profile_model</text>
</g>
<g >
<title>transformers/models/opt/modeling_opt.py(160):_forward (1,569,569 us., 4.81%)</title><rect x="1119.3" y="229" width="56.7" height="15.0" fill="rgb(250,161,26)" rx="2" ry="2" />
<text  x="1122.33" y="239.5" >transf..</text>
</g>
<g >
<title>nn.Module:_OPTForCausalLM (493,967 us., 1.51%)</title><rect x="1101.4" y="85" width="17.9" height="15.0" fill="rgb(210,193,45)" rx="2" ry="2" />
<text  x="1104.44" y="95.5" ></text>
</g>
<g >
<title>transformers/models/opt/modeling_opt.py(298):_forward (1,569,569 us., 4.81%)</title><rect x="1119.3" y="197" width="56.7" height="15.0" fill="rgb(212,67,47)" rx="2" ry="2" />
<text  x="1122.33" y="207.5" >transf..</text>
</g>
<g >
<title>transformers/models/opt/modeling_opt.py(298):_forward (1,605,326 us., 4.92%)</title><rect x="993.5" y="181" width="58.0" height="15.0" fill="rgb(254,212,15)" rx="2" ry="2" />
<text  x="996.46" y="191.5" >transf..</text>
</g>
<g >
<title>torch/autograd/grad_mode.py(27):_decorate_context (8,214,496 us., 25.16%)</title><rect x="10.0" y="37" width="296.8" height="15.0" fill="rgb(239,110,16)" rx="2" ry="2" />
<text  x="13.00" y="47.5" >torch/autograd/grad_mode.py(27):_decora..</text>
</g>
<g >
<title>torch/autograd/grad_mode.py(27):_decorate_context (1,501,568 us., 4.60%)</title><rect x="923.6" y="53" width="54.2" height="15.0" fill="rgb(208,7,16)" rx="2" ry="2" />
<text  x="926.57" y="63.5" >torch..</text>
</g>
<g >
<title>profiling/utils.py(18):_profile_model (1,478,540 us., 4.53%)</title><rect x="869.7" y="85" width="53.4" height="15.0" fill="rgb(208,92,12)" rx="2" ry="2" />
<text  x="872.68" y="95.5" >profi..</text>
</g>
<g >
<title>transformers/models/opt/modeling_opt.py(160):_forward (1,501,568 us., 4.60%)</title><rect x="923.6" y="197" width="54.2" height="15.0" fill="rgb(237,71,19)" rx="2" ry="2" />
<text  x="926.57" y="207.5" >trans..</text>
</g>
<g >
<title>transformers/models/opt/modeling_opt.py(553):_forward (6,198 us., 0.02%)</title><rect x="923.1" y="165" width="0.3" height="15.0" fill="rgb(236,74,32)" rx="2" ry="2" />
<text  x="926.13" y="175.5" ></text>
</g>
<g >
<title>profiling/utils.py(18):_profile_model (1,501,568 us., 4.60%)</title><rect x="923.6" y="69" width="54.2" height="15.0" fill="rgb(227,226,3)" rx="2" ry="2" />
<text  x="926.57" y="79.5" >profi..</text>
</g>
<g >
<title>torch/autograd/grad_mode.py(27):_decorate_context (441,411 us., 1.35%)</title><rect x="853.7" y="133" width="16.0" height="15.0" fill="rgb(237,64,8)" rx="2" ry="2" />
<text  x="856.73" y="143.5" ></text>
</g>
<g >
<title>nn.Module:_OPTDecoder (1,569,569 us., 4.81%)</title><rect x="1119.3" y="149" width="56.7" height="15.0" fill="rgb(210,95,44)" rx="2" ry="2" />
<text  x="1122.33" y="159.5" >nn.Mod..</text>
</g>
<g >
<title>torch/autograd/grad_mode.py(27):_decorate_context (373,892 us., 1.14%)</title><rect x="1051.9" y="53" width="13.5" height="15.0" fill="rgb(205,4,3)" rx="2" ry="2" />
<text  x="1054.86" y="63.5" ></text>
</g>
<g >
<title>transformers/models/opt/modeling_opt.py(553):_forward (380,650 us., 1.17%)</title><rect x="1176.0" y="197" width="13.8" height="15.0" fill="rgb(216,214,3)" rx="2" ry="2" />
<text  x="1179.04" y="207.5" ></text>
</g>
<g >
<title>profiling/utils.py(18):_profile_model (15,134,157 us., 46.35%)</title><rect x="306.8" y="85" width="546.9" height="15.0" fill="rgb(236,111,49)" rx="2" ry="2" />
<text  x="309.84" y="95.5" >profiling/utils.py(18):_profile_model</text>
</g>
<g >
<title>nn.Module:_OPTForCausalLM (6,198 us., 0.02%)</title><rect x="923.1" y="117" width="0.3" height="15.0" fill="rgb(214,0,40)" rx="2" ry="2" />
<text  x="926.13" y="127.5" ></text>
</g>
<g >
<title>profiling/utils.py(18):_profile_model (441,411 us., 1.35%)</title><rect x="853.7" y="149" width="16.0" height="15.0" fill="rgb(254,75,52)" rx="2" ry="2" />
<text  x="856.73" y="159.5" ></text>
</g>
<g >
<title>nn.Module:_OPTDecoder (8,241 us., 0.03%)</title><rect x="1051.5" y="181" width="0.3" height="15.0" fill="rgb(211,111,41)" rx="2" ry="2" />
<text  x="1054.47" y="191.5" ></text>
</g>
<g >
<title>profiling/utils.py(18):_profile_model (373,892 us., 1.14%)</title><rect x="1051.9" y="69" width="13.5" height="15.0" fill="rgb(231,222,38)" rx="2" ry="2" />
<text  x="1054.86" y="79.5" ></text>
</g>
<g >
<title>profiling/utils.py(18):_profile_model (4,681 us., 0.01%)</title><rect x="1065.4" y="101" width="0.1" height="15.0" fill="rgb(216,38,24)" rx="2" ry="2" />
<text  x="1068.37" y="111.5" ></text>
</g>
<g >
<title>nn.Module:_OPTDecoderLayer (1,501,568 us., 4.60%)</title><rect x="923.6" y="149" width="54.2" height="15.0" fill="rgb(214,188,14)" rx="2" ry="2" />
<text  x="926.57" y="159.5" >nn.Mo..</text>
</g>
<g >
<title>torch/autograd/grad_mode.py(27):_decorate_context (4,681 us., 0.01%)</title><rect x="1065.4" y="85" width="0.1" height="15.0" fill="rgb(214,216,25)" rx="2" ry="2" />
<text  x="1068.37" y="95.5" ></text>
</g>
<g >
<title>profiling/utils.py(18):_profile_model (993,339 us., 3.04%)</title><rect x="1065.5" y="85" width="35.9" height="15.0" fill="rgb(206,198,39)" rx="2" ry="2" />
<text  x="1068.54" y="95.5" >pro..</text>
</g>
<g >
<title>transformers/models/opt/modeling_opt.py(160):_forward (1,478,540 us., 4.53%)</title><rect x="869.7" y="213" width="53.4" height="15.0" fill="rgb(218,81,54)" rx="2" ry="2" />
<text  x="872.68" y="223.5" >trans..</text>
</g>
<g >
<title>profiling/utils.py(18):_profile_model (1,569,569 us., 4.81%)</title><rect x="1119.3" y="101" width="56.7" height="15.0" fill="rgb(230,27,3)" rx="2" ry="2" />
<text  x="1122.33" y="111.5" >profil..</text>
</g>
<g >
<title>nn.Module:_OPTDecoder (1,605,326 us., 4.92%)</title><rect x="993.5" y="133" width="58.0" height="15.0" fill="rgb(250,61,50)" rx="2" ry="2" />
<text  x="996.46" y="143.5" >nn.Mod..</text>
</g>
<g >
<title>&lt;built-in_method_embedding_of_type_object_at_0x7fadbc0589c0&gt; (12,252 us., 0.04%)</title><rect x="923.1" y="229" width="0.5" height="15.0" fill="rgb(220,75,3)" rx="2" ry="2" />
<text  x="926.13" y="239.5" ></text>
</g>
</g>
</svg>
