<?xml version="1.0" standalone="no"?>
<!DOCTYPE svg PUBLIC "-//W3C//DTD SVG 1.1//EN" "http://www.w3.org/Graphics/SVG/1.1/DTD/svg11.dtd">
<svg version="1.1" width="1200" height="294" onload="init(evt)" viewBox="0 0 1200 294" xmlns="http://www.w3.org/2000/svg" xmlns:xlink="http://www.w3.org/1999/xlink">
<!-- Flame graph stack visualization. See https://github.com/brendangregg/FlameGraph for latest version, and http://www.brendangregg.com/flamegraphs.html for examples. -->
<!-- NOTES:  -->
<defs>
	<linearGradient id="background" y1="0" y2="1" x1="0" x2="0" >
		<stop stop-color="#eeeeee" offset="5%" />
		<stop stop-color="#eeeeb0" offset="95%" />
	</linearGradient>
</defs>
<style type="text/css">
	text { font-family:Verdana; font-size:12px; fill:rgb(0,0,0); }
	#search, #ignorecase { opacity:0.1; cursor:pointer; }
	#search:hover, #search.show, #ignorecase:hover, #ignorecase.show { opacity:1; }
	#subtitle { text-anchor:middle; font-color:rgb(160,160,160); }
	#title { text-anchor:middle; font-size:17px}
	#unzoom { cursor:pointer; }
	#frames > *:hover { stroke:black; stroke-width:0.5; cursor:pointer; }
	.hide { display:none; }
	.parent { opacity:0.5; }
</style>
<script type="text/ecmascript">
<![CDATA[
	"use strict";
	var details, searchbtn, unzoombtn, matchedtxt, svg, searching, currentSearchTerm, ignorecase, ignorecaseBtn;
	function init(evt) {
		details = document.getElementById("details").firstChild;
		searchbtn = document.getElementById("search");
		ignorecaseBtn = document.getElementById("ignorecase");
		unzoombtn = document.getElementById("unzoom");
		matchedtxt = document.getElementById("matched");
		svg = document.getElementsByTagName("svg")[0];
		searching = 0;
		currentSearchTerm = null;

		// use GET parameters to restore a flamegraphs state.
		var params = get_params();
		if (params.x && params.y)
			zoom(find_group(document.querySelector('[x="' + params.x + '"][y="' + params.y + '"]')));
                if (params.s) search(params.s);
	}

	// event listeners
	window.addEventListener("click", function(e) {
		var target = find_group(e.target);
		if (target) {
			if (target.nodeName == "a") {
				if (e.ctrlKey === false) return;
				e.preventDefault();
			}
			if (target.classList.contains("parent")) unzoom(true);
			zoom(target);
			if (!document.querySelector('.parent')) {
				// we have basically done a clearzoom so clear the url
				var params = get_params();
				if (params.x) delete params.x;
				if (params.y) delete params.y;
				history.replaceState(null, null, parse_params(params));
				unzoombtn.classList.add("hide");
				return;
			}

			// set parameters for zoom state
			var el = target.querySelector("rect");
			if (el && el.attributes && el.attributes.y && el.attributes._orig_x) {
				var params = get_params()
				params.x = el.attributes._orig_x.value;
				params.y = el.attributes.y.value;
				history.replaceState(null, null, parse_params(params));
			}
		}
		else if (e.target.id == "unzoom") clearzoom();
		else if (e.target.id == "search") search_prompt();
		else if (e.target.id == "ignorecase") toggle_ignorecase();
	}, false)

	// mouse-over for info
	// show
	window.addEventListener("mouseover", function(e) {
		var target = find_group(e.target);
		if (target) details.nodeValue = "Function: " + g_to_text(target);
	}, false)

	// clear
	window.addEventListener("mouseout", function(e) {
		var target = find_group(e.target);
		if (target) details.nodeValue = ' ';
	}, false)

	// ctrl-F for search
	// ctrl-I to toggle case-sensitive search
	window.addEventListener("keydown",function (e) {
		if (e.keyCode === 114 || (e.ctrlKey && e.keyCode === 70)) {
			e.preventDefault();
			search_prompt();
		}
		else if (e.ctrlKey && e.keyCode === 73) {
			e.preventDefault();
			toggle_ignorecase();
		}
	}, false)

	// functions
	function get_params() {
		var params = {};
		var paramsarr = window.location.search.substr(1).split('&');
		for (var i = 0; i < paramsarr.length; ++i) {
			var tmp = paramsarr[i].split("=");
			if (!tmp[0] || !tmp[1]) continue;
			params[tmp[0]]  = decodeURIComponent(tmp[1]);
		}
		return params;
	}
	function parse_params(params) {
		var uri = "?";
		for (var key in params) {
			uri += key + '=' + encodeURIComponent(params[key]) + '&';
		}
		if (uri.slice(-1) == "&")
			uri = uri.substring(0, uri.length - 1);
		if (uri == '?')
			uri = window.location.href.split('?')[0];
		return uri;
	}
	function find_child(node, selector) {
		var children = node.querySelectorAll(selector);
		if (children.length) return children[0];
	}
	function find_group(node) {
		var parent = node.parentElement;
		if (!parent) return;
		if (parent.id == "frames") return node;
		return find_group(parent);
	}
	function orig_save(e, attr, val) {
		if (e.attributes["_orig_" + attr] != undefined) return;
		if (e.attributes[attr] == undefined) return;
		if (val == undefined) val = e.attributes[attr].value;
		e.setAttribute("_orig_" + attr, val);
	}
	function orig_load(e, attr) {
		if (e.attributes["_orig_"+attr] == undefined) return;
		e.attributes[attr].value = e.attributes["_orig_" + attr].value;
		e.removeAttribute("_orig_"+attr);
	}
	function g_to_text(e) {
		var text = find_child(e, "title").firstChild.nodeValue;
		return (text)
	}
	function g_to_func(e) {
		var func = g_to_text(e);
		// if there's any manipulation we want to do to the function
		// name before it's searched, do it here before returning.
		return (func);
	}
	function update_text(e) {
		var r = find_child(e, "rect");
		var t = find_child(e, "text");
		var w = parseFloat(r.attributes.width.value) -3;
		var txt = find_child(e, "title").textContent.replace(/\([^(]*\)$/,"");
		t.attributes.x.value = parseFloat(r.attributes.x.value) + 3;

		// Smaller than this size won't fit anything
		if (w < 2 * 12 * 0.59) {
			t.textContent = "";
			return;
		}

		t.textContent = txt;
		var sl = t.getSubStringLength(0, txt.length);
		// check if only whitespace or if we can fit the entire string into width w
		if (/^ *$/.test(txt) || sl < w)
			return;

		// this isn't perfect, but gives a good starting point
		// and avoids calling getSubStringLength too often
		var start = Math.floor((w/sl) * txt.length);
		for (var x = start; x > 0; x = x-2) {
			if (t.getSubStringLength(0, x + 2) <= w) {
				t.textContent = txt.substring(0, x) + "..";
				return;
			}
		}
		t.textContent = "";
	}

	// zoom
	function zoom_reset(e) {
		if (e.attributes != undefined) {
			orig_load(e, "x");
			orig_load(e, "width");
		}
		if (e.childNodes == undefined) return;
		for (var i = 0, c = e.childNodes; i < c.length; i++) {
			zoom_reset(c[i]);
		}
	}
	function zoom_child(e, x, ratio) {
		if (e.attributes != undefined) {
			if (e.attributes.x != undefined) {
				orig_save(e, "x");
				e.attributes.x.value = (parseFloat(e.attributes.x.value) - x - 10) * ratio + 10;
				if (e.tagName == "text")
					e.attributes.x.value = find_child(e.parentNode, "rect[x]").attributes.x.value + 3;
			}
			if (e.attributes.width != undefined) {
				orig_save(e, "width");
				e.attributes.width.value = parseFloat(e.attributes.width.value) * ratio;
			}
		}

		if (e.childNodes == undefined) return;
		for (var i = 0, c = e.childNodes; i < c.length; i++) {
			zoom_child(c[i], x - 10, ratio);
		}
	}
	function zoom_parent(e) {
		if (e.attributes) {
			if (e.attributes.x != undefined) {
				orig_save(e, "x");
				e.attributes.x.value = 10;
			}
			if (e.attributes.width != undefined) {
				orig_save(e, "width");
				e.attributes.width.value = parseInt(svg.width.baseVal.value) - (10 * 2);
			}
		}
		if (e.childNodes == undefined) return;
		for (var i = 0, c = e.childNodes; i < c.length; i++) {
			zoom_parent(c[i]);
		}
	}
	function zoom(node) {
		var attr = find_child(node, "rect").attributes;
		var width = parseFloat(attr.width.value);
		var xmin = parseFloat(attr.x.value);
		var xmax = parseFloat(xmin + width);
		var ymin = parseFloat(attr.y.value);
		var ratio = (svg.width.baseVal.value - 2 * 10) / width;

		// XXX: Workaround for JavaScript float issues (fix me)
		var fudge = 0.0001;

		unzoombtn.classList.remove("hide");

		var el = document.getElementById("frames").children;
		for (var i = 0; i < el.length; i++) {
			var e = el[i];
			var a = find_child(e, "rect").attributes;
			var ex = parseFloat(a.x.value);
			var ew = parseFloat(a.width.value);
			var upstack;
			// Is it an ancestor
			if (0 == 0) {
				upstack = parseFloat(a.y.value) > ymin;
			} else {
				upstack = parseFloat(a.y.value) < ymin;
			}
			if (upstack) {
				// Direct ancestor
				if (ex <= xmin && (ex+ew+fudge) >= xmax) {
					e.classList.add("parent");
					zoom_parent(e);
					update_text(e);
				}
				// not in current path
				else
					e.classList.add("hide");
			}
			// Children maybe
			else {
				// no common path
				if (ex < xmin || ex + fudge >= xmax) {
					e.classList.add("hide");
				}
				else {
					zoom_child(e, xmin, ratio);
					update_text(e);
				}
			}
		}
		search();
	}
	function unzoom(dont_update_text) {
		unzoombtn.classList.add("hide");
		var el = document.getElementById("frames").children;
		for(var i = 0; i < el.length; i++) {
			el[i].classList.remove("parent");
			el[i].classList.remove("hide");
			zoom_reset(el[i]);
			if(!dont_update_text) update_text(el[i]);
		}
		search();
	}
	function clearzoom() {
		unzoom();

		// remove zoom state
		var params = get_params();
		if (params.x) delete params.x;
		if (params.y) delete params.y;
		history.replaceState(null, null, parse_params(params));
	}

	// search
	function toggle_ignorecase() {
		ignorecase = !ignorecase;
		if (ignorecase) {
			ignorecaseBtn.classList.add("show");
		} else {
			ignorecaseBtn.classList.remove("show");
		}
		reset_search();
		search();
	}
	function reset_search() {
		var el = document.querySelectorAll("#frames rect");
		for (var i = 0; i < el.length; i++) {
			orig_load(el[i], "fill")
		}
		var params = get_params();
		delete params.s;
		history.replaceState(null, null, parse_params(params));
	}
	function search_prompt() {
		if (!searching) {
			var term = prompt("Enter a search term (regexp " +
			    "allowed, eg: ^ext4_)"
			    + (ignorecase ? ", ignoring case" : "")
			    + "\nPress Ctrl-i to toggle case sensitivity", "");
			if (term != null) search(term);
		} else {
			reset_search();
			searching = 0;
			currentSearchTerm = null;
			searchbtn.classList.remove("show");
			searchbtn.firstChild.nodeValue = "Search"
			matchedtxt.classList.add("hide");
			matchedtxt.firstChild.nodeValue = ""
		}
	}
	function search(term) {
		if (term) currentSearchTerm = term;

		var re = new RegExp(currentSearchTerm, ignorecase ? 'i' : '');
		var el = document.getElementById("frames").children;
		var matches = new Object();
		var maxwidth = 0;
		for (var i = 0; i < el.length; i++) {
			var e = el[i];
			var func = g_to_func(e);
			var rect = find_child(e, "rect");
			if (func == null || rect == null)
				continue;

			// Save max width. Only works as we have a root frame
			var w = parseFloat(rect.attributes.width.value);
			if (w > maxwidth)
				maxwidth = w;

			if (func.match(re)) {
				// highlight
				var x = parseFloat(rect.attributes.x.value);
				orig_save(rect, "fill");
				rect.attributes.fill.value = "rgb(230,0,230)";

				// remember matches
				if (matches[x] == undefined) {
					matches[x] = w;
				} else {
					if (w > matches[x]) {
						// overwrite with parent
						matches[x] = w;
					}
				}
				searching = 1;
			}
		}
		if (!searching)
			return;
		var params = get_params();
		params.s = currentSearchTerm;
		history.replaceState(null, null, parse_params(params));

		searchbtn.classList.add("show");
		searchbtn.firstChild.nodeValue = "Reset Search";

		// calculate percent matched, excluding vertical overlap
		var count = 0;
		var lastx = -1;
		var lastw = 0;
		var keys = Array();
		for (k in matches) {
			if (matches.hasOwnProperty(k))
				keys.push(k);
		}
		// sort the matched frames by their x location
		// ascending, then width descending
		keys.sort(function(a, b){
			return a - b;
		});
		// Step through frames saving only the biggest bottom-up frames
		// thanks to the sort order. This relies on the tree property
		// where children are always smaller than their parents.
		var fudge = 0.0001;	// JavaScript floating point
		for (var k in keys) {
			var x = parseFloat(keys[k]);
			var w = matches[keys[k]];
			if (x >= lastx + lastw - fudge) {
				count += w;
				lastx = x;
				lastw = w;
			}
		}
		// display matched percent
		matchedtxt.classList.remove("hide");
		var pct = 100 * count / maxwidth;
		if (pct != 100) pct = pct.toFixed(1)
		matchedtxt.firstChild.nodeValue = "Matched: " + pct + "%";
	}
]]>
</script>
<rect x="0.0" y="0" width="1200.0" height="294.0" fill="url(#background)"  />
<text id="title" x="600.00" y="24" >CUDA Time</text>
<text id="details" x="10.00" y="277" > </text>
<text id="unzoom" x="10.00" y="24" class="hide">Reset Zoom</text>
<text id="search" x="1090.00" y="24" >Search</text>
<text id="ignorecase" x="1174.00" y="24" >ic</text>
<text id="matched" x="1090.00" y="277" > </text>
<g id="frames">
<g >
<title>nn.Module:_OPTDecoder (31,041,941 us., 48.16%)</title><rect x="286.0" y="133" width="568.2" height="15.0" fill="rgb(240,227,12)" rx="2" ry="2" />
<text  x="288.96" y="143.5" >nn.Module:_OPTDecoder</text>
</g>
<g >
<title>torch/autograd/grad_mode.py(27):_decorate_context (771,370 us., 1.20%)</title><rect x="1050.5" y="53" width="14.1" height="15.0" fill="rgb(238,87,50)" rx="2" ry="2" />
<text  x="1053.51" y="63.5" ></text>
</g>
<g >
<title>torch/autograd/grad_mode.py(27):_decorate_context (991,353 us., 1.54%)</title><rect x="1100.9" y="53" width="18.2" height="15.0" fill="rgb(211,88,52)" rx="2" ry="2" />
<text  x="1103.95" y="63.5" ></text>
</g>
<g >
<title>nn.Module:_LayerNorm (781,016 us., 1.21%)</title><rect x="1050.5" y="181" width="14.3" height="15.0" fill="rgb(242,119,27)" rx="2" ry="2" />
<text  x="1053.51" y="191.5" ></text>
</g>
<g >
<title>transformers/models/opt/modeling_opt.py(553):_forward (15,074,358 us., 23.39%)</title><rect x="10.0" y="117" width="276.0" height="15.0" fill="rgb(212,155,23)" rx="2" ry="2" />
<text  x="13.00" y="127.5" >transformers/models/opt/modeling_opt..</text>
</g>
<g >
<title>nn.Module:_OPTDecoder (2,970,931 us., 4.61%)</title><rect x="921.7" y="117" width="54.3" height="15.0" fill="rgb(229,43,37)" rx="2" ry="2" />
<text  x="924.66" y="127.5" >nn.Mo..</text>
</g>
<g >
<title>profiling/utils.py(18):_profile_model (1,974,180 us., 3.06%)</title><rect x="1064.8" y="85" width="36.1" height="15.0" fill="rgb(205,210,46)" rx="2" ry="2" />
<text  x="1067.80" y="95.5" >pro..</text>
</g>
<g >
<title>nn.Module:_OPTAttention (3,105,274 us., 4.82%)</title><rect x="1119.1" y="213" width="56.9" height="15.0" fill="rgb(249,163,15)" rx="2" ry="2" />
<text  x="1122.12" y="223.5" >nn.Mod..</text>
</g>
<g >
<title>nn.Module:_OPTLearnedPositionalEmbedding (12,072 us., 0.02%)</title><rect x="921.4" y="165" width="0.3" height="15.0" fill="rgb(207,115,49)" rx="2" ry="2" />
<text  x="924.44" y="175.5" ></text>
</g>
<g >
<title>torch/nn/functional.py(2488):_layer_norm (781,016 us., 1.21%)</title><rect x="1050.5" y="213" width="14.3" height="15.0" fill="rgb(208,197,28)" rx="2" ry="2" />
<text  x="1053.51" y="223.5" ></text>
</g>
<g >
<title>&lt;built-in_method_encode_of_str_object_at_0x7fc420ec84b0&gt; (7,038,301 us., 10.92%)</title><rect x="921.7" y="229" width="128.8" height="15.0" fill="rgb(245,5,25)" rx="2" ry="2" />
<text  x="924.66" y="239.5" >&lt;built-in_method..</text>
</g>
<g >
<title>nn.Module:_OPTDecoder (9,646 us., 0.01%)</title><rect x="1064.6" y="149" width="0.2" height="15.0" fill="rgb(224,213,38)" rx="2" ry="2" />
<text  x="1067.63" y="159.5" ></text>
</g>
<g >
<title>nn.Module:_OPTDecoder (3,185,462 us., 4.94%)</title><rect x="991.4" y="133" width="58.3" height="15.0" fill="rgb(254,131,37)" rx="2" ry="2" />
<text  x="994.42" y="143.5" >nn.Mod..</text>
</g>
<g >
<title>nn.Module:_OPTAttention (839,618 us., 1.30%)</title><rect x="976.1" y="181" width="15.3" height="15.0" fill="rgb(235,126,13)" rx="2" ry="2" />
<text  x="979.05" y="191.5" ></text>
</g>
<g >
<title>torch/autograd/grad_mode.py(27):_decorate_context (1,974,180 us., 3.06%)</title><rect x="1064.8" y="69" width="36.1" height="15.0" fill="rgb(226,124,25)" rx="2" ry="2" />
<text  x="1067.80" y="79.5" >tor..</text>
</g>
<g >
<title>profiling/utils.py(18):_profile_model (31,041,941 us., 48.16%)</title><rect x="286.0" y="85" width="568.2" height="15.0" fill="rgb(252,204,37)" rx="2" ry="2" />
<text  x="288.96" y="95.5" >profiling/utils.py(18):_profile_model</text>
</g>
<g >
<title>nn.Module:_OPTForCausalLM (771,370 us., 1.20%)</title><rect x="1050.5" y="85" width="14.1" height="15.0" fill="rgb(248,177,16)" rx="2" ry="2" />
<text  x="1053.51" y="95.5" ></text>
</g>
<g >
<title>profiling/utils.py(18):_profile_model (3,105,274 us., 4.82%)</title><rect x="1119.1" y="101" width="56.9" height="15.0" fill="rgb(222,112,12)" rx="2" ry="2" />
<text  x="1122.12" y="111.5" >profil..</text>
</g>
<g >
<title>transformers/models/opt/modeling_opt.py(160):_forward (15,074,358 us., 23.39%)</title><rect x="10.0" y="181" width="276.0" height="15.0" fill="rgb(221,162,51)" rx="2" ry="2" />
<text  x="13.00" y="191.5" >transformers/models/opt/modeling_opt..</text>
</g>
<g >
<title>nn.Module:_OPTDecoder (2,818,547 us., 4.37%)</title><rect x="869.5" y="133" width="51.6" height="15.0" fill="rgb(205,156,26)" rx="2" ry="2" />
<text  x="872.55" y="143.5" >nn.Mo..</text>
</g>
<g >
<title>nn.Module:_OPTForCausalLM (9,646 us., 0.01%)</title><rect x="1064.6" y="117" width="0.2" height="15.0" fill="rgb(225,8,24)" rx="2" ry="2" />
<text  x="1067.63" y="127.5" ></text>
</g>
<g >
<title>&lt;built-in_method_max_of_type_object_at_0x7fc5153d09c0&gt; (1,974,180 us., 3.06%)</title><rect x="1064.8" y="229" width="36.1" height="15.0" fill="rgb(236,11,43)" rx="2" ry="2" />
<text  x="1067.80" y="239.5" >&lt;bu..</text>
</g>
<g >
<title>nn.Module:_OPTDecoderLayer (755,674 us., 1.17%)</title><rect x="1176.0" y="213" width="13.8" height="15.0" fill="rgb(231,49,3)" rx="2" ry="2" />
<text  x="1178.96" y="223.5" ></text>
</g>
<g >
<title>transformers/models/opt/modeling_opt.py(840):_forward (3,185,462 us., 4.94%)</title><rect x="991.4" y="117" width="58.3" height="15.0" fill="rgb(228,221,11)" rx="2" ry="2" />
<text  x="994.42" y="127.5" >transf..</text>
</g>
<g >
<title>transformers/models/opt/modeling_opt.py(298):_forward (1,974,180 us., 3.06%)</title><rect x="1064.8" y="181" width="36.1" height="15.0" fill="rgb(206,62,3)" rx="2" ry="2" />
<text  x="1067.80" y="191.5" >tra..</text>
</g>
<g >
<title>torch/nn/functional.py(2099):_embedding (24,259 us., 0.04%)</title><rect x="921.2" y="213" width="0.5" height="15.0" fill="rgb(254,198,18)" rx="2" ry="2" />
<text  x="924.22" y="223.5" ></text>
</g>
<g >
<title>nn.Module:_OPTDecoder (15,074,358 us., 23.39%)</title><rect x="10.0" y="101" width="276.0" height="15.0" fill="rgb(231,165,25)" rx="2" ry="2" />
<text  x="13.00" y="111.5" >nn.Module:_OPTDecoder</text>
</g>
<g >
<title>transformers/models/opt/modeling_opt.py(553):_forward (3,185,462 us., 4.94%)</title><rect x="991.4" y="149" width="58.3" height="15.0" fill="rgb(239,33,6)" rx="2" ry="2" />
<text  x="994.42" y="159.5" >transf..</text>
</g>
<g >
<title>profiling/utils.py(18):_profile_model (12,072 us., 0.02%)</title><rect x="921.4" y="85" width="0.3" height="15.0" fill="rgb(231,124,3)" rx="2" ry="2" />
<text  x="924.44" y="95.5" ></text>
</g>
<g >
<title>profiling/utils.py(18):_profile_model (771,370 us., 1.20%)</title><rect x="1050.5" y="69" width="14.1" height="15.0" fill="rgb(222,187,45)" rx="2" ry="2" />
<text  x="1053.51" y="79.5" ></text>
</g>
<g >
<title>nn.Module:_OPTForCausalLM (837,223 us., 1.30%)</title><rect x="854.2" y="165" width="15.3" height="15.0" fill="rgb(219,86,40)" rx="2" ry="2" />
<text  x="857.22" y="175.5" ></text>
</g>
<g >
<title>transformers/models/opt/modeling_opt.py(298):_forward (3,185,462 us., 4.94%)</title><rect x="991.4" y="181" width="58.3" height="15.0" fill="rgb(242,153,10)" rx="2" ry="2" />
<text  x="994.42" y="191.5" >transf..</text>
</g>
<g >
<title>nn.Module:_OPTDecoder (12,187 us., 0.02%)</title><rect x="921.2" y="149" width="0.2" height="15.0" fill="rgb(214,164,47)" rx="2" ry="2" />
<text  x="924.22" y="159.5" ></text>
</g>
<g >
<title>profiling/utils.py(18):_profile_model (2,970,931 us., 4.61%)</title><rect x="921.7" y="69" width="54.3" height="15.0" fill="rgb(220,210,12)" rx="2" ry="2" />
<text  x="924.66" y="79.5" >profi..</text>
</g>
<g >
<title>torch/autograd/grad_mode.py(27):_decorate_context (36,560 us., 0.06%)</title><rect x="1049.7" y="117" width="0.7" height="15.0" fill="rgb(240,196,3)" rx="2" ry="2" />
<text  x="1052.74" y="127.5" ></text>
</g>
<g >
<title>nn.Module:_OPTForCausalLM (12,072 us., 0.02%)</title><rect x="921.4" y="101" width="0.3" height="15.0" fill="rgb(238,183,34)" rx="2" ry="2" />
<text  x="924.44" y="111.5" ></text>
</g>
<g >
<title>transformers/models/opt/modeling_opt.py(298):_forward (2,818,547 us., 4.37%)</title><rect x="869.5" y="181" width="51.6" height="15.0" fill="rgb(224,90,40)" rx="2" ry="2" />
<text  x="872.55" y="191.5" >trans..</text>
</g>
<g >
<title>transformers/models/opt/modeling_opt.py(298):_forward (839,618 us., 1.30%)</title><rect x="976.1" y="165" width="15.3" height="15.0" fill="rgb(228,29,1)" rx="2" ry="2" />
<text  x="979.05" y="175.5" ></text>
</g>
<g >
<title>nn.Module:_OPTForCausalLM (755,674 us., 1.17%)</title><rect x="1176.0" y="149" width="13.8" height="15.0" fill="rgb(220,72,2)" rx="2" ry="2" />
<text  x="1178.96" y="159.5" ></text>
</g>
<g >
<title>nn.Module:_OPTForCausalLM (2,818,547 us., 4.37%)</title><rect x="869.5" y="101" width="51.6" height="15.0" fill="rgb(214,85,46)" rx="2" ry="2" />
<text  x="872.55" y="111.5" >nn.Mo..</text>
</g>
<g >
<title>torch/nn/modules/normalization.py(188):_forward (781,016 us., 1.21%)</title><rect x="1050.5" y="197" width="14.3" height="15.0" fill="rgb(240,176,11)" rx="2" ry="2" />
<text  x="1053.51" y="207.5" ></text>
</g>
<g >
<title>nn.Module:_OPTDecoderLayer (839,618 us., 1.30%)</title><rect x="976.1" y="149" width="15.3" height="15.0" fill="rgb(239,76,42)" rx="2" ry="2" />
<text  x="979.05" y="159.5" ></text>
</g>
<g >
<title>nn.Module:_OPTForCausalLM (3,185,462 us., 4.94%)</title><rect x="991.4" y="101" width="58.3" height="15.0" fill="rgb(223,205,6)" rx="2" ry="2" />
<text  x="994.42" y="111.5" >nn.Mod..</text>
</g>
<g >
<title>profiling/utils.py(18):_profile_model (9,646 us., 0.01%)</title><rect x="1064.6" y="101" width="0.2" height="15.0" fill="rgb(249,133,26)" rx="2" ry="2" />
<text  x="1067.63" y="111.5" ></text>
</g>
<g >
<title>torch/autograd/grad_mode.py(27):_decorate_context (3,105,274 us., 4.82%)</title><rect x="1119.1" y="85" width="56.9" height="15.0" fill="rgb(206,20,23)" rx="2" ry="2" />
<text  x="1122.12" y="95.5" >torch/..</text>
</g>
<g >
<title>torch/autograd/grad_mode.py(27):_decorate_context (755,674 us., 1.17%)</title><rect x="1176.0" y="117" width="13.8" height="15.0" fill="rgb(254,214,9)" rx="2" ry="2" />
<text  x="1178.96" y="127.5" ></text>
</g>
<g >
<title>profiling/utils.py(18):_profile_model (991,353 us., 1.54%)</title><rect x="1100.9" y="69" width="18.2" height="15.0" fill="rgb(241,69,4)" rx="2" ry="2" />
<text  x="1103.95" y="79.5" ></text>
</g>
<g >
<title>&lt;built-in_method_relu_of_type_object_at_0x7fc5153d09c0&gt; (991,353 us., 1.54%)</title><rect x="1100.9" y="229" width="18.2" height="15.0" fill="rgb(239,54,29)" rx="2" ry="2" />
<text  x="1103.95" y="239.5" ></text>
</g>
<g >
<title>nn.Module:_OPTDecoderLayer (3,105,274 us., 4.82%)</title><rect x="1119.1" y="181" width="56.9" height="15.0" fill="rgb(251,105,2)" rx="2" ry="2" />
<text  x="1122.12" y="191.5" >nn.Mod..</text>
</g>
<g >
<title>nn.Module:_OPTDecoderLayer (31,041,941 us., 48.16%)</title><rect x="286.0" y="165" width="568.2" height="15.0" fill="rgb(206,95,30)" rx="2" ry="2" />
<text  x="288.96" y="175.5" >nn.Module:_OPTDecoderLayer</text>
</g>
<g >
<title>transformers/models/opt/modeling_opt.py(160):_forward (839,618 us., 1.30%)</title><rect x="976.1" y="197" width="15.3" height="15.0" fill="rgb(224,196,17)" rx="2" ry="2" />
<text  x="979.05" y="207.5" ></text>
</g>
<g >
<title>transformers/models/opt/modeling_opt.py(114):_forward (12,072 us., 0.02%)</title><rect x="921.4" y="181" width="0.3" height="15.0" fill="rgb(211,68,24)" rx="2" ry="2" />
<text  x="924.44" y="191.5" ></text>
</g>
<g >
<title>nn.Module:_OPTAttention (15,074,358 us., 23.39%)</title><rect x="10.0" y="165" width="276.0" height="15.0" fill="rgb(217,204,32)" rx="2" ry="2" />
<text  x="13.00" y="175.5" >nn.Module:_OPTAttention</text>
</g>
<g >
<title>transformers/models/opt/modeling_opt.py(553):_forward (755,674 us., 1.17%)</title><rect x="1176.0" y="197" width="13.8" height="15.0" fill="rgb(227,224,30)" rx="2" ry="2" />
<text  x="1178.96" y="207.5" ></text>
</g>
<g >
<title>transformers/models/opt/modeling_opt.py(840):_forward (771,370 us., 1.20%)</title><rect x="1050.5" y="101" width="14.1" height="15.0" fill="rgb(234,79,14)" rx="2" ry="2" />
<text  x="1053.51" y="111.5" ></text>
</g>
<g >
<title>torch/autograd/grad_mode.py(27):_decorate_context (9,428 us., 0.01%)</title><rect x="1189.8" y="149" width="0.2" height="15.0" fill="rgb(240,50,35)" rx="2" ry="2" />
<text  x="1192.83" y="159.5" ></text>
</g>
<g >
<title>nn.Module:_OPTForCausalLM (12,187 us., 0.02%)</title><rect x="921.2" y="117" width="0.2" height="15.0" fill="rgb(243,206,14)" rx="2" ry="2" />
<text  x="924.22" y="127.5" ></text>
</g>
<g >
<title>nn.Module:_OPTForCausalLM (3,105,274 us., 4.82%)</title><rect x="1119.1" y="117" width="56.9" height="15.0" fill="rgb(238,66,13)" rx="2" ry="2" />
<text  x="1122.12" y="127.5" >nn.Mod..</text>
</g>
<g >
<title>transformers/models/opt/modeling_opt.py(298):_forward (31,041,941 us., 48.16%)</title><rect x="286.0" y="181" width="568.2" height="15.0" fill="rgb(233,43,41)" rx="2" ry="2" />
<text  x="288.96" y="191.5" >transformers/models/opt/modeling_opt.py(298):_forward</text>
</g>
<g >
<title>nn.Module:_OPTAttention (3,185,462 us., 4.94%)</title><rect x="991.4" y="197" width="58.3" height="15.0" fill="rgb(230,130,43)" rx="2" ry="2" />
<text  x="994.42" y="207.5" >nn.Mod..</text>
</g>
<g >
<title>transformers/models/opt/modeling_opt.py(840):_forward (31,041,941 us., 48.16%)</title><rect x="286.0" y="117" width="568.2" height="15.0" fill="rgb(227,64,11)" rx="2" ry="2" />
<text  x="288.96" y="127.5" >transformers/models/opt/modeling_opt.py(840):_forward</text>
</g>
<g >
<title>transformers/models/opt/modeling_opt.py(553):_forward (839,618 us., 1.30%)</title><rect x="976.1" y="133" width="15.3" height="15.0" fill="rgb(234,20,15)" rx="2" ry="2" />
<text  x="979.05" y="143.5" ></text>
</g>
<g >
<title>transformers/models/opt/modeling_opt.py(553):_forward (31,041,941 us., 48.16%)</title><rect x="286.0" y="149" width="568.2" height="15.0" fill="rgb(240,64,40)" rx="2" ry="2" />
<text  x="288.96" y="159.5" >transformers/models/opt/modeling_opt.py(553):_forward</text>
</g>
<g >
<title>transformers/models/opt/modeling_opt.py(840):_forward (12,072 us., 0.02%)</title><rect x="921.4" y="117" width="0.3" height="15.0" fill="rgb(218,219,53)" rx="2" ry="2" />
<text  x="924.44" y="127.5" ></text>
</g>
<g >
<title>nn.Module:_OPTForCausalLM (991,353 us., 1.54%)</title><rect x="1100.9" y="85" width="18.2" height="15.0" fill="rgb(252,178,41)" rx="2" ry="2" />
<text  x="1103.95" y="95.5" ></text>
</g>
<g >
<title>transformers/models/opt/modeling_opt.py(160):_forward (3,185,462 us., 4.94%)</title><rect x="991.4" y="213" width="58.3" height="15.0" fill="rgb(207,22,25)" rx="2" ry="2" />
<text  x="994.42" y="223.5" >transf..</text>
</g>
<g >
<title>nn.Module:_OPTDecoderLayer (3,185,462 us., 4.94%)</title><rect x="991.4" y="165" width="58.3" height="15.0" fill="rgb(239,141,37)" rx="2" ry="2" />
<text  x="994.42" y="175.5" >nn.Mod..</text>
</g>
<g >
<title>nn.Module:_OPTForCausalLM (31,041,941 us., 48.16%)</title><rect x="286.0" y="101" width="568.2" height="15.0" fill="rgb(225,217,6)" rx="2" ry="2" />
<text  x="288.96" y="111.5" >nn.Module:_OPTForCausalLM</text>
</g>
<g >
<title>transformers/models/opt/modeling_opt.py(840):_forward (755,674 us., 1.17%)</title><rect x="1176.0" y="165" width="13.8" height="15.0" fill="rgb(217,30,12)" rx="2" ry="2" />
<text  x="1178.96" y="175.5" ></text>
</g>
<g >
<title>&lt;built-in_method_bmm_of_type_object_at_0x7fc5153d09c0&gt; (2,818,547 us., 4.37%)</title><rect x="869.5" y="229" width="51.6" height="15.0" fill="rgb(216,25,11)" rx="2" ry="2" />
<text  x="872.55" y="239.5" >&lt;buil..</text>
</g>
<g >
<title>nn.Module:_OPTAttention (2,970,931 us., 4.61%)</title><rect x="921.7" y="181" width="54.3" height="15.0" fill="rgb(212,197,3)" rx="2" ry="2" />
<text  x="924.66" y="191.5" >nn.Mo..</text>
</g>
<g >
<title>profiling/utils.py(18):_profile_model (837,223 us., 1.30%)</title><rect x="854.2" y="149" width="15.3" height="15.0" fill="rgb(225,220,31)" rx="2" ry="2" />
<text  x="857.22" y="159.5" ></text>
</g>
<g >
<title>profiling/utils.py(18):_profile_model (9,428 us., 0.01%)</title><rect x="1189.8" y="165" width="0.2" height="15.0" fill="rgb(251,6,16)" rx="2" ry="2" />
<text  x="1192.83" y="175.5" ></text>
</g>
<g >
<title>nn.Module:_OPTDecoderLayer (2,818,547 us., 4.37%)</title><rect x="869.5" y="165" width="51.6" height="15.0" fill="rgb(228,205,41)" rx="2" ry="2" />
<text  x="872.55" y="175.5" >nn.Mo..</text>
</g>
<g >
<title>torch/autograd/grad_mode.py(27):_decorate_context (2,818,547 us., 4.37%)</title><rect x="869.5" y="69" width="51.6" height="15.0" fill="rgb(214,224,6)" rx="2" ry="2" />
<text  x="872.55" y="79.5" >torch..</text>
</g>
<g >
<title>transformers/models/opt/modeling_opt.py(840):_forward (3,105,274 us., 4.82%)</title><rect x="1119.1" y="133" width="56.9" height="15.0" fill="rgb(214,204,54)" rx="2" ry="2" />
<text  x="1122.12" y="143.5" >transf..</text>
</g>
<g >
<title>nn.Module:_OPTForCausalLM (36,560 us., 0.06%)</title><rect x="1049.7" y="149" width="0.7" height="15.0" fill="rgb(208,102,26)" rx="2" ry="2" />
<text  x="1052.74" y="159.5" ></text>
</g>
<g >
<title>torch/autograd/grad_mode.py(27):_decorate_context (839,618 us., 1.30%)</title><rect x="976.1" y="53" width="15.3" height="15.0" fill="rgb(237,173,34)" rx="2" ry="2" />
<text  x="979.05" y="63.5" ></text>
</g>
<g >
<title>transformers/models/opt/modeling_opt.py(553):_forward (771,370 us., 1.20%)</title><rect x="1050.5" y="133" width="14.1" height="15.0" fill="rgb(234,110,20)" rx="2" ry="2" />
<text  x="1053.51" y="143.5" ></text>
</g>
<g >
<title>transformers/models/opt/modeling_opt.py(840):_forward (1,974,180 us., 3.06%)</title><rect x="1064.8" y="117" width="36.1" height="15.0" fill="rgb(237,129,50)" rx="2" ry="2" />
<text  x="1067.80" y="127.5" >tra..</text>
</g>
<g >
<title>profiling/utils.py(18):_profile_model (839,618 us., 1.30%)</title><rect x="976.1" y="69" width="15.3" height="15.0" fill="rgb(229,103,5)" rx="2" ry="2" />
<text  x="979.05" y="79.5" ></text>
</g>
<g >
<title>profiling/utils.py(18):_profile_model (2,818,547 us., 4.37%)</title><rect x="869.5" y="85" width="51.6" height="15.0" fill="rgb(220,213,54)" rx="2" ry="2" />
<text  x="872.55" y="95.5" >profi..</text>
</g>
<g >
<title>transformers/models/opt/modeling_opt.py(298):_forward (15,074,358 us., 23.39%)</title><rect x="10.0" y="149" width="276.0" height="15.0" fill="rgb(241,224,49)" rx="2" ry="2" />
<text  x="13.00" y="159.5" >transformers/models/opt/modeling_opt..</text>
</g>
<g >
<title>transformers/models/opt/modeling_opt.py(840):_forward (12,187 us., 0.02%)</title><rect x="921.2" y="133" width="0.2" height="15.0" fill="rgb(226,23,43)" rx="2" ry="2" />
<text  x="924.22" y="143.5" ></text>
</g>
<g >
<title>nn.Module:_OPTForCausalLM (15,074,358 us., 23.39%)</title><rect x="10.0" y="69" width="276.0" height="15.0" fill="rgb(236,54,28)" rx="2" ry="2" />
<text  x="13.00" y="79.5" >nn.Module:_OPTForCausalLM</text>
</g>
<g >
<title>transformers/models/opt/modeling_opt.py(840):_forward (15,074,358 us., 23.39%)</title><rect x="10.0" y="85" width="276.0" height="15.0" fill="rgb(235,147,19)" rx="2" ry="2" />
<text  x="13.00" y="95.5" >transformers/models/opt/modeling_opt..</text>
</g>
<g >
<title>nn.Module:_OPTDecoderLayer (771,370 us., 1.20%)</title><rect x="1050.5" y="149" width="14.1" height="15.0" fill="rgb(214,29,29)" rx="2" ry="2" />
<text  x="1053.51" y="159.5" ></text>
</g>
<g >
<title>transformers/models/opt/modeling_opt.py(160):_forward (2,818,547 us., 4.37%)</title><rect x="869.5" y="213" width="51.6" height="15.0" fill="rgb(219,202,15)" rx="2" ry="2" />
<text  x="872.55" y="223.5" >trans..</text>
</g>
<g >
<title>transformers/models/opt/modeling_opt.py(553):_forward (991,353 us., 1.54%)</title><rect x="1100.9" y="133" width="18.2" height="15.0" fill="rgb(208,87,7)" rx="2" ry="2" />
<text  x="1103.95" y="143.5" ></text>
</g>
<g >
<title>transformers/models/opt/modeling_opt.py(298):_forward (755,674 us., 1.17%)</title><rect x="1176.0" y="229" width="13.8" height="15.0" fill="rgb(229,47,8)" rx="2" ry="2" />
<text  x="1178.96" y="239.5" ></text>
</g>
<g >
<title>nn.Module:_OPTDecoder (12,072 us., 0.02%)</title><rect x="921.4" y="133" width="0.3" height="15.0" fill="rgb(231,91,13)" rx="2" ry="2" />
<text  x="924.44" y="143.5" ></text>
</g>
<g >
<title>torch/autograd/grad_mode.py(27):_decorate_context (12,072 us., 0.02%)</title><rect x="921.4" y="69" width="0.3" height="15.0" fill="rgb(248,107,41)" rx="2" ry="2" />
<text  x="924.44" y="79.5" ></text>
</g>
<g >
<title>transformers/models/opt/modeling_opt.py(553):_forward (3,105,274 us., 4.82%)</title><rect x="1119.1" y="165" width="56.9" height="15.0" fill="rgb(249,145,32)" rx="2" ry="2" />
<text  x="1122.12" y="175.5" >transf..</text>
</g>
<g >
<title>transformers/models/opt/modeling_opt.py(553):_forward (9,646 us., 0.01%)</title><rect x="1064.6" y="165" width="0.2" height="15.0" fill="rgb(230,216,27)" rx="2" ry="2" />
<text  x="1067.63" y="175.5" ></text>
</g>
<g >
<title>transformers/models/opt/modeling_opt.py(553):_forward (12,072 us., 0.02%)</title><rect x="921.4" y="149" width="0.3" height="15.0" fill="rgb(216,4,53)" rx="2" ry="2" />
<text  x="924.44" y="159.5" ></text>
</g>
<g >
<title>nn.Module:_OPTDecoder (839,618 us., 1.30%)</title><rect x="976.1" y="117" width="15.3" height="15.0" fill="rgb(206,205,26)" rx="2" ry="2" />
<text  x="979.05" y="127.5" ></text>
</g>
<g >
<title>transformers/models/opt/modeling_opt.py(160):_forward (3,105,274 us., 4.82%)</title><rect x="1119.1" y="229" width="56.9" height="15.0" fill="rgb(248,57,36)" rx="2" ry="2" />
<text  x="1122.12" y="239.5" >transf..</text>
</g>
<g >
<title>nn.Module:_OPTDecoder (36,560 us., 0.06%)</title><rect x="1049.7" y="181" width="0.7" height="15.0" fill="rgb(233,97,34)" rx="2" ry="2" />
<text  x="1052.74" y="191.5" ></text>
</g>
<g >
<title>transformers/models/opt/modeling_opt.py(840):_forward (2,970,931 us., 4.61%)</title><rect x="921.7" y="101" width="54.3" height="15.0" fill="rgb(216,142,14)" rx="2" ry="2" />
<text  x="924.66" y="111.5" >trans..</text>
</g>
<g >
<title>torch/autograd/grad_mode.py(27):_decorate_context (15,074,358 us., 23.39%)</title><rect x="10.0" y="37" width="276.0" height="15.0" fill="rgb(214,80,13)" rx="2" ry="2" />
<text  x="13.00" y="47.5" >torch/autograd/grad_mode.py(27):_dec..</text>
</g>
<g >
<title>transformers/models/opt/modeling_opt.py(298):_forward (2,970,931 us., 4.61%)</title><rect x="921.7" y="165" width="54.3" height="15.0" fill="rgb(217,78,2)" rx="2" ry="2" />
<text  x="924.66" y="175.5" >trans..</text>
</g>
<g >
<title>nn.Module:_Linear (46,953,522 us., 72.84%)</title><rect x="10.0" y="197" width="859.5" height="15.0" fill="rgb(249,15,26)" rx="2" ry="2" />
<text  x="13.00" y="207.5" >nn.Module:_Linear</text>
</g>
<g >
<title>transformers/models/opt/modeling_opt.py(553):_forward (36,560 us., 0.06%)</title><rect x="1049.7" y="197" width="0.7" height="15.0" fill="rgb(232,65,12)" rx="2" ry="2" />
<text  x="1052.74" y="207.5" ></text>
</g>
<g >
<title>transformers/models/opt/modeling_opt.py(840):_forward (2,818,547 us., 4.37%)</title><rect x="869.5" y="117" width="51.6" height="15.0" fill="rgb(209,89,54)" rx="2" ry="2" />
<text  x="872.55" y="127.5" >trans..</text>
</g>
<g >
<title>profiling/utils.py(18):_profile_model (15,074,358 us., 23.39%)</title><rect x="10.0" y="53" width="276.0" height="15.0" fill="rgb(208,187,53)" rx="2" ry="2" />
<text  x="13.00" y="63.5" >profiling/utils.py(18):_profile_model</text>
</g>
<g >
<title>transformers/models/opt/modeling_opt.py(840):_forward (9,428 us., 0.01%)</title><rect x="1189.8" y="197" width="0.2" height="15.0" fill="rgb(229,167,15)" rx="2" ry="2" />
<text  x="1192.83" y="207.5" ></text>
</g>
<g >
<title>torch/nn/modules/sparse.py(157):_forward (24,259 us., 0.04%)</title><rect x="921.2" y="197" width="0.5" height="15.0" fill="rgb(208,9,13)" rx="2" ry="2" />
<text  x="924.22" y="207.5" ></text>
</g>
<g >
<title>torch/autograd/grad_mode.py(27):_decorate_context (31,041,941 us., 48.16%)</title><rect x="286.0" y="69" width="568.2" height="15.0" fill="rgb(252,92,2)" rx="2" ry="2" />
<text  x="288.96" y="79.5" >torch/autograd/grad_mode.py(27):_decorate_context</text>
</g>
<g >
<title>&lt;built-in_method_embedding_of_type_object_at_0x7fc5153d09c0&gt; (24,259 us., 0.04%)</title><rect x="921.2" y="229" width="0.5" height="15.0" fill="rgb(215,131,44)" rx="2" ry="2" />
<text  x="924.22" y="239.5" ></text>
</g>
<g >
<title>nn.Module:_OPTForCausalLM (839,618 us., 1.30%)</title><rect x="976.1" y="85" width="15.3" height="15.0" fill="rgb(245,52,30)" rx="2" ry="2" />
<text  x="979.05" y="95.5" ></text>
</g>
<g >
<title>nn.Module:_OPTDecoderLayer (1,974,180 us., 3.06%)</title><rect x="1064.8" y="165" width="36.1" height="15.0" fill="rgb(253,204,26)" rx="2" ry="2" />
<text  x="1067.80" y="175.5" >nn...</text>
</g>
<g >
<title>transformers/models/opt/modeling_opt.py(840):_forward (36,560 us., 0.06%)</title><rect x="1049.7" y="165" width="0.7" height="15.0" fill="rgb(247,177,7)" rx="2" ry="2" />
<text  x="1052.74" y="175.5" ></text>
</g>
<g >
<title>transformers/models/opt/modeling_opt.py(553):_forward (9,428 us., 0.01%)</title><rect x="1189.8" y="229" width="0.2" height="15.0" fill="rgb(215,184,20)" rx="2" ry="2" />
<text  x="1192.83" y="239.5" ></text>
</g>
<g >
<title>transformers/models/opt/modeling_opt.py(553):_forward (2,970,931 us., 4.61%)</title><rect x="921.7" y="133" width="54.3" height="15.0" fill="rgb(244,51,50)" rx="2" ry="2" />
<text  x="924.66" y="143.5" >trans..</text>
</g>
<g >
<title>transformers/models/opt/modeling_opt.py(553):_forward (2,818,547 us., 4.37%)</title><rect x="869.5" y="149" width="51.6" height="15.0" fill="rgb(240,49,41)" rx="2" ry="2" />
<text  x="872.55" y="159.5" >trans..</text>
</g>
<g >
<title>profiling/utils.py(18):_profile_model (36,560 us., 0.06%)</title><rect x="1049.7" y="133" width="0.7" height="15.0" fill="rgb(254,83,38)" rx="2" ry="2" />
<text  x="1052.74" y="143.5" ></text>
</g>
<g >
<title>torch/autograd/grad_mode.py(27):_decorate_context (12,187 us., 0.02%)</title><rect x="921.2" y="85" width="0.2" height="15.0" fill="rgb(249,20,13)" rx="2" ry="2" />
<text  x="924.22" y="95.5" ></text>
</g>
<g >
<title>profiling/utils.py(18):_profile_model (755,674 us., 1.17%)</title><rect x="1176.0" y="133" width="13.8" height="15.0" fill="rgb(237,2,12)" rx="2" ry="2" />
<text  x="1178.96" y="143.5" ></text>
</g>
<g >
<title>nn.Module:_OPTAttention (2,818,547 us., 4.37%)</title><rect x="869.5" y="197" width="51.6" height="15.0" fill="rgb(242,184,7)" rx="2" ry="2" />
<text  x="872.55" y="207.5" >nn.Mo..</text>
</g>
<g >
<title>transformers/models/opt/modeling_opt.py(553):_forward (12,187 us., 0.02%)</title><rect x="921.2" y="165" width="0.2" height="15.0" fill="rgb(243,57,33)" rx="2" ry="2" />
<text  x="924.22" y="175.5" ></text>
</g>
<g >
<title>nn.Module:_OPTDecoderLayer (991,353 us., 1.54%)</title><rect x="1100.9" y="149" width="18.2" height="15.0" fill="rgb(242,57,10)" rx="2" ry="2" />
<text  x="1103.95" y="159.5" ></text>
</g>
<g >
<title>nn.Module:_OPTDecoder (771,370 us., 1.20%)</title><rect x="1050.5" y="117" width="14.1" height="15.0" fill="rgb(226,125,32)" rx="2" ry="2" />
<text  x="1053.51" y="127.5" ></text>
</g>
<g >
<title>transformers/models/opt/modeling_opt.py(840):_forward (839,618 us., 1.30%)</title><rect x="976.1" y="101" width="15.3" height="15.0" fill="rgb(227,24,40)" rx="2" ry="2" />
<text  x="979.05" y="111.5" ></text>
</g>
<g >
<title>torch/nn/functional.py(1446):_relu (991,353 us., 1.54%)</title><rect x="1100.9" y="213" width="18.2" height="15.0" fill="rgb(218,47,33)" rx="2" ry="2" />
<text  x="1103.95" y="223.5" ></text>
</g>
<g >
<title>nn.Module:_OPTDecoder (1,974,180 us., 3.06%)</title><rect x="1064.8" y="133" width="36.1" height="15.0" fill="rgb(206,82,12)" rx="2" ry="2" />
<text  x="1067.80" y="143.5" >nn...</text>
</g>
<g >
<title>transformers/models/opt/modeling_opt.py(298):_forward (3,105,274 us., 4.82%)</title><rect x="1119.1" y="197" width="56.9" height="15.0" fill="rgb(209,109,1)" rx="2" ry="2" />
<text  x="1122.12" y="207.5" >transf..</text>
</g>
<g >
<title>nn.Module:_OPTForCausalLM (2,970,931 us., 4.61%)</title><rect x="921.7" y="85" width="54.3" height="15.0" fill="rgb(228,42,43)" rx="2" ry="2" />
<text  x="924.66" y="95.5" >nn.Mo..</text>
</g>
<g >
<title>profiling/utils.py(18):_profile_model (12,187 us., 0.02%)</title><rect x="921.2" y="101" width="0.2" height="15.0" fill="rgb(232,184,52)" rx="2" ry="2" />
<text  x="924.22" y="111.5" ></text>
</g>
<g >
<title>torch/autograd/grad_mode.py(27):_decorate_context (9,646 us., 0.01%)</title><rect x="1064.6" y="85" width="0.2" height="15.0" fill="rgb(213,48,29)" rx="2" ry="2" />
<text  x="1067.63" y="95.5" ></text>
</g>
<g >
<title>transformers/models/opt/modeling_opt.py(533):__prepare_decoder_attention_mask (36,560 us., 0.06%)</title><rect x="1049.7" y="213" width="0.7" height="15.0" fill="rgb(226,139,1)" rx="2" ry="2" />
<text  x="1052.74" y="223.5" ></text>
</g>
<g >
<title>all (64,458,396 us., 100%)</title><rect x="10.0" y="245" width="1180.0" height="15.0" fill="rgb(229,33,36)" rx="2" ry="2" />
<text  x="13.00" y="255.5" ></text>
</g>
<g >
<title>torch/nn/functional.py(1804):_softmax (2,970,931 us., 4.61%)</title><rect x="921.7" y="213" width="54.3" height="15.0" fill="rgb(212,34,12)" rx="2" ry="2" />
<text  x="924.66" y="223.5" >torch..</text>
</g>
<g >
<title>torch/nn/modules/activation.py(97):_forward (991,353 us., 1.54%)</title><rect x="1100.9" y="197" width="18.2" height="15.0" fill="rgb(220,192,52)" rx="2" ry="2" />
<text  x="1103.95" y="207.5" ></text>
</g>
<g >
<title>transformers/models/opt/modeling_opt.py(553):_forward (1,974,180 us., 3.06%)</title><rect x="1064.8" y="149" width="36.1" height="15.0" fill="rgb(246,222,4)" rx="2" ry="2" />
<text  x="1067.80" y="159.5" >tra..</text>
</g>
<g >
<title>&lt;built-in_function_linear&gt; (46,953,522 us., 72.84%)</title><rect x="10.0" y="229" width="859.5" height="15.0" fill="rgb(213,26,42)" rx="2" ry="2" />
<text  x="13.00" y="239.5" >&lt;built-in_function_linear&gt;</text>
</g>
<g >
<title>transformers/models/opt/modeling_opt.py(160):_forward (1,974,180 us., 3.06%)</title><rect x="1064.8" y="213" width="36.1" height="15.0" fill="rgb(210,128,25)" rx="2" ry="2" />
<text  x="1067.80" y="223.5" >tra..</text>
</g>
<g >
<title>nn.Module:_OPTDecoderLayer (2,970,931 us., 4.61%)</title><rect x="921.7" y="149" width="54.3" height="15.0" fill="rgb(220,71,26)" rx="2" ry="2" />
<text  x="924.66" y="159.5" >nn.Mo..</text>
</g>
<g >
<title>nn.Module:_OPTForCausalLM (1,974,180 us., 3.06%)</title><rect x="1064.8" y="101" width="36.1" height="15.0" fill="rgb(240,48,22)" rx="2" ry="2" />
<text  x="1067.80" y="111.5" >nn...</text>
</g>
<g >
<title>nn.Module:_OPTDecoder (3,105,274 us., 4.82%)</title><rect x="1119.1" y="149" width="56.9" height="15.0" fill="rgb(237,37,23)" rx="2" ry="2" />
<text  x="1122.12" y="159.5" >nn.Mod..</text>
</g>
<g >
<title>transformers/models/opt/modeling_opt.py(298):_forward (991,353 us., 1.54%)</title><rect x="1100.9" y="165" width="18.2" height="15.0" fill="rgb(240,145,7)" rx="2" ry="2" />
<text  x="1103.95" y="175.5" ></text>
</g>
<g >
<title>nn.Module:_Embedding (12,187 us., 0.02%)</title><rect x="921.2" y="181" width="0.2" height="15.0" fill="rgb(225,38,30)" rx="2" ry="2" />
<text  x="924.22" y="191.5" ></text>
</g>
<g >
<title>profiling/utils.py(18):_profile_model (3,185,462 us., 4.94%)</title><rect x="991.4" y="85" width="58.3" height="15.0" fill="rgb(228,87,19)" rx="2" ry="2" />
<text  x="994.42" y="95.5" >profil..</text>
</g>
<g >
<title>transformers/models/opt/modeling_opt.py(840):_forward (991,353 us., 1.54%)</title><rect x="1100.9" y="101" width="18.2" height="15.0" fill="rgb(240,26,7)" rx="2" ry="2" />
<text  x="1103.95" y="111.5" ></text>
</g>
<g >
<title>nn.Module:_OPTDecoder (755,674 us., 1.17%)</title><rect x="1176.0" y="181" width="13.8" height="15.0" fill="rgb(212,171,19)" rx="2" ry="2" />
<text  x="1178.96" y="191.5" ></text>
</g>
<g >
<title>nn.Module:_OPTForCausalLM (9,428 us., 0.01%)</title><rect x="1189.8" y="181" width="0.2" height="15.0" fill="rgb(247,158,21)" rx="2" ry="2" />
<text  x="1192.83" y="191.5" ></text>
</g>
<g >
<title>nn.Module:_OPTDecoderLayer (15,074,358 us., 23.39%)</title><rect x="10.0" y="133" width="276.0" height="15.0" fill="rgb(247,16,16)" rx="2" ry="2" />
<text  x="13.00" y="143.5" >nn.Module:_OPTDecoderLayer</text>
</g>
<g >
<title>torch/autograd/grad_mode.py(27):_decorate_context (837,223 us., 1.30%)</title><rect x="854.2" y="133" width="15.3" height="15.0" fill="rgb(249,141,49)" rx="2" ry="2" />
<text  x="857.22" y="143.5" ></text>
</g>
<g >
<title>transformers/models/opt/modeling_opt.py(298):_forward (771,370 us., 1.20%)</title><rect x="1050.5" y="165" width="14.1" height="15.0" fill="rgb(244,11,25)" rx="2" ry="2" />
<text  x="1053.51" y="175.5" ></text>
</g>
<g >
<title>transformers/models/opt/modeling_opt.py(160):_forward (2,970,931 us., 4.61%)</title><rect x="921.7" y="197" width="54.3" height="15.0" fill="rgb(209,126,14)" rx="2" ry="2" />
<text  x="924.66" y="207.5" >trans..</text>
</g>
<g >
<title>nn.Module:_ReLU (991,353 us., 1.54%)</title><rect x="1100.9" y="181" width="18.2" height="15.0" fill="rgb(207,67,9)" rx="2" ry="2" />
<text  x="1103.95" y="191.5" ></text>
</g>
<g >
<title>torch/autograd/grad_mode.py(27):_decorate_context (3,185,462 us., 4.94%)</title><rect x="991.4" y="69" width="58.3" height="15.0" fill="rgb(237,90,10)" rx="2" ry="2" />
<text  x="994.42" y="79.5" >torch/..</text>
</g>
<g >
<title>transformers/models/opt/modeling_opt.py(840):_forward (9,646 us., 0.01%)</title><rect x="1064.6" y="133" width="0.2" height="15.0" fill="rgb(234,76,14)" rx="2" ry="2" />
<text  x="1067.63" y="143.5" ></text>
</g>
<g >
<title>nn.Module:_OPTAttention (1,974,180 us., 3.06%)</title><rect x="1064.8" y="197" width="36.1" height="15.0" fill="rgb(237,228,20)" rx="2" ry="2" />
<text  x="1067.80" y="207.5" >nn...</text>
</g>
<g >
<title>nn.Module:_OPTDecoder (9,428 us., 0.01%)</title><rect x="1189.8" y="213" width="0.2" height="15.0" fill="rgb(219,162,45)" rx="2" ry="2" />
<text  x="1192.83" y="223.5" ></text>
</g>
<g >
<title>transformers/models/opt/modeling_opt.py(840):_forward (837,223 us., 1.30%)</title><rect x="854.2" y="181" width="15.3" height="15.0" fill="rgb(216,187,21)" rx="2" ry="2" />
<text  x="857.22" y="191.5" ></text>
</g>
<g >
<title>transformers/models/opt/modeling_opt.py(157):__shape (839,618 us., 1.30%)</title><rect x="976.1" y="213" width="15.3" height="15.0" fill="rgb(246,120,36)" rx="2" ry="2" />
<text  x="979.05" y="223.5" ></text>
</g>
<g >
<title>torch/nn/modules/linear.py(113):_forward (46,953,522 us., 72.84%)</title><rect x="10.0" y="213" width="859.5" height="15.0" fill="rgb(249,156,17)" rx="2" ry="2" />
<text  x="13.00" y="223.5" >torch/nn/modules/linear.py(113):_forward</text>
</g>
<g >
<title>torch/autograd/grad_mode.py(27):_decorate_context (2,970,931 us., 4.61%)</title><rect x="921.7" y="53" width="54.3" height="15.0" fill="rgb(244,79,31)" rx="2" ry="2" />
<text  x="924.66" y="63.5" >torch..</text>
</g>
<g >
<title>nn.Module:_OPTDecoder (991,353 us., 1.54%)</title><rect x="1100.9" y="117" width="18.2" height="15.0" fill="rgb(233,85,39)" rx="2" ry="2" />
<text  x="1103.95" y="127.5" ></text>
</g>
<g >
<title>&lt;built-in_method_layer_norm_of_type_object_at_0x7fc5153d09c0&gt; (781,016 us., 1.21%)</title><rect x="1050.5" y="229" width="14.3" height="15.0" fill="rgb(239,147,11)" rx="2" ry="2" />
<text  x="1053.51" y="239.5" ></text>
</g>
</g>
</svg>
