<?xml version="1.0" standalone="no"?>
<!DOCTYPE svg PUBLIC "-//W3C//DTD SVG 1.1//EN" "http://www.w3.org/Graphics/SVG/1.1/DTD/svg11.dtd">
<svg version="1.1" width="1200" height="294" onload="init(evt)" viewBox="0 0 1200 294" xmlns="http://www.w3.org/2000/svg" xmlns:xlink="http://www.w3.org/1999/xlink">
<!-- Flame graph stack visualization. See https://github.com/brendangregg/FlameGraph for latest version, and http://www.brendangregg.com/flamegraphs.html for examples. -->
<!-- NOTES:  -->
<defs>
	<linearGradient id="background" y1="0" y2="1" x1="0" x2="0" >
		<stop stop-color="#eeeeee" offset="5%" />
		<stop stop-color="#eeeeb0" offset="95%" />
	</linearGradient>
</defs>
<style type="text/css">
	text { font-family:Verdana; font-size:12px; fill:rgb(0,0,0); }
	#search, #ignorecase { opacity:0.1; cursor:pointer; }
	#search:hover, #search.show, #ignorecase:hover, #ignorecase.show { opacity:1; }
	#subtitle { text-anchor:middle; font-color:rgb(160,160,160); }
	#title { text-anchor:middle; font-size:17px}
	#unzoom { cursor:pointer; }
	#frames > *:hover { stroke:black; stroke-width:0.5; cursor:pointer; }
	.hide { display:none; }
	.parent { opacity:0.5; }
</style>
<script type="text/ecmascript">
<![CDATA[
	"use strict";
	var details, searchbtn, unzoombtn, matchedtxt, svg, searching, currentSearchTerm, ignorecase, ignorecaseBtn;
	function init(evt) {
		details = document.getElementById("details").firstChild;
		searchbtn = document.getElementById("search");
		ignorecaseBtn = document.getElementById("ignorecase");
		unzoombtn = document.getElementById("unzoom");
		matchedtxt = document.getElementById("matched");
		svg = document.getElementsByTagName("svg")[0];
		searching = 0;
		currentSearchTerm = null;

		// use GET parameters to restore a flamegraphs state.
		var params = get_params();
		if (params.x && params.y)
			zoom(find_group(document.querySelector('[x="' + params.x + '"][y="' + params.y + '"]')));
                if (params.s) search(params.s);
	}

	// event listeners
	window.addEventListener("click", function(e) {
		var target = find_group(e.target);
		if (target) {
			if (target.nodeName == "a") {
				if (e.ctrlKey === false) return;
				e.preventDefault();
			}
			if (target.classList.contains("parent")) unzoom(true);
			zoom(target);
			if (!document.querySelector('.parent')) {
				// we have basically done a clearzoom so clear the url
				var params = get_params();
				if (params.x) delete params.x;
				if (params.y) delete params.y;
				history.replaceState(null, null, parse_params(params));
				unzoombtn.classList.add("hide");
				return;
			}

			// set parameters for zoom state
			var el = target.querySelector("rect");
			if (el && el.attributes && el.attributes.y && el.attributes._orig_x) {
				var params = get_params()
				params.x = el.attributes._orig_x.value;
				params.y = el.attributes.y.value;
				history.replaceState(null, null, parse_params(params));
			}
		}
		else if (e.target.id == "unzoom") clearzoom();
		else if (e.target.id == "search") search_prompt();
		else if (e.target.id == "ignorecase") toggle_ignorecase();
	}, false)

	// mouse-over for info
	// show
	window.addEventListener("mouseover", function(e) {
		var target = find_group(e.target);
		if (target) details.nodeValue = "Function: " + g_to_text(target);
	}, false)

	// clear
	window.addEventListener("mouseout", function(e) {
		var target = find_group(e.target);
		if (target) details.nodeValue = ' ';
	}, false)

	// ctrl-F for search
	// ctrl-I to toggle case-sensitive search
	window.addEventListener("keydown",function (e) {
		if (e.keyCode === 114 || (e.ctrlKey && e.keyCode === 70)) {
			e.preventDefault();
			search_prompt();
		}
		else if (e.ctrlKey && e.keyCode === 73) {
			e.preventDefault();
			toggle_ignorecase();
		}
	}, false)

	// functions
	function get_params() {
		var params = {};
		var paramsarr = window.location.search.substr(1).split('&');
		for (var i = 0; i < paramsarr.length; ++i) {
			var tmp = paramsarr[i].split("=");
			if (!tmp[0] || !tmp[1]) continue;
			params[tmp[0]]  = decodeURIComponent(tmp[1]);
		}
		return params;
	}
	function parse_params(params) {
		var uri = "?";
		for (var key in params) {
			uri += key + '=' + encodeURIComponent(params[key]) + '&';
		}
		if (uri.slice(-1) == "&")
			uri = uri.substring(0, uri.length - 1);
		if (uri == '?')
			uri = window.location.href.split('?')[0];
		return uri;
	}
	function find_child(node, selector) {
		var children = node.querySelectorAll(selector);
		if (children.length) return children[0];
	}
	function find_group(node) {
		var parent = node.parentElement;
		if (!parent) return;
		if (parent.id == "frames") return node;
		return find_group(parent);
	}
	function orig_save(e, attr, val) {
		if (e.attributes["_orig_" + attr] != undefined) return;
		if (e.attributes[attr] == undefined) return;
		if (val == undefined) val = e.attributes[attr].value;
		e.setAttribute("_orig_" + attr, val);
	}
	function orig_load(e, attr) {
		if (e.attributes["_orig_"+attr] == undefined) return;
		e.attributes[attr].value = e.attributes["_orig_" + attr].value;
		e.removeAttribute("_orig_"+attr);
	}
	function g_to_text(e) {
		var text = find_child(e, "title").firstChild.nodeValue;
		return (text)
	}
	function g_to_func(e) {
		var func = g_to_text(e);
		// if there's any manipulation we want to do to the function
		// name before it's searched, do it here before returning.
		return (func);
	}
	function update_text(e) {
		var r = find_child(e, "rect");
		var t = find_child(e, "text");
		var w = parseFloat(r.attributes.width.value) -3;
		var txt = find_child(e, "title").textContent.replace(/\([^(]*\)$/,"");
		t.attributes.x.value = parseFloat(r.attributes.x.value) + 3;

		// Smaller than this size won't fit anything
		if (w < 2 * 12 * 0.59) {
			t.textContent = "";
			return;
		}

		t.textContent = txt;
		var sl = t.getSubStringLength(0, txt.length);
		// check if only whitespace or if we can fit the entire string into width w
		if (/^ *$/.test(txt) || sl < w)
			return;

		// this isn't perfect, but gives a good starting point
		// and avoids calling getSubStringLength too often
		var start = Math.floor((w/sl) * txt.length);
		for (var x = start; x > 0; x = x-2) {
			if (t.getSubStringLength(0, x + 2) <= w) {
				t.textContent = txt.substring(0, x) + "..";
				return;
			}
		}
		t.textContent = "";
	}

	// zoom
	function zoom_reset(e) {
		if (e.attributes != undefined) {
			orig_load(e, "x");
			orig_load(e, "width");
		}
		if (e.childNodes == undefined) return;
		for (var i = 0, c = e.childNodes; i < c.length; i++) {
			zoom_reset(c[i]);
		}
	}
	function zoom_child(e, x, ratio) {
		if (e.attributes != undefined) {
			if (e.attributes.x != undefined) {
				orig_save(e, "x");
				e.attributes.x.value = (parseFloat(e.attributes.x.value) - x - 10) * ratio + 10;
				if (e.tagName == "text")
					e.attributes.x.value = find_child(e.parentNode, "rect[x]").attributes.x.value + 3;
			}
			if (e.attributes.width != undefined) {
				orig_save(e, "width");
				e.attributes.width.value = parseFloat(e.attributes.width.value) * ratio;
			}
		}

		if (e.childNodes == undefined) return;
		for (var i = 0, c = e.childNodes; i < c.length; i++) {
			zoom_child(c[i], x - 10, ratio);
		}
	}
	function zoom_parent(e) {
		if (e.attributes) {
			if (e.attributes.x != undefined) {
				orig_save(e, "x");
				e.attributes.x.value = 10;
			}
			if (e.attributes.width != undefined) {
				orig_save(e, "width");
				e.attributes.width.value = parseInt(svg.width.baseVal.value) - (10 * 2);
			}
		}
		if (e.childNodes == undefined) return;
		for (var i = 0, c = e.childNodes; i < c.length; i++) {
			zoom_parent(c[i]);
		}
	}
	function zoom(node) {
		var attr = find_child(node, "rect").attributes;
		var width = parseFloat(attr.width.value);
		var xmin = parseFloat(attr.x.value);
		var xmax = parseFloat(xmin + width);
		var ymin = parseFloat(attr.y.value);
		var ratio = (svg.width.baseVal.value - 2 * 10) / width;

		// XXX: Workaround for JavaScript float issues (fix me)
		var fudge = 0.0001;

		unzoombtn.classList.remove("hide");

		var el = document.getElementById("frames").children;
		for (var i = 0; i < el.length; i++) {
			var e = el[i];
			var a = find_child(e, "rect").attributes;
			var ex = parseFloat(a.x.value);
			var ew = parseFloat(a.width.value);
			var upstack;
			// Is it an ancestor
			if (0 == 0) {
				upstack = parseFloat(a.y.value) > ymin;
			} else {
				upstack = parseFloat(a.y.value) < ymin;
			}
			if (upstack) {
				// Direct ancestor
				if (ex <= xmin && (ex+ew+fudge) >= xmax) {
					e.classList.add("parent");
					zoom_parent(e);
					update_text(e);
				}
				// not in current path
				else
					e.classList.add("hide");
			}
			// Children maybe
			else {
				// no common path
				if (ex < xmin || ex + fudge >= xmax) {
					e.classList.add("hide");
				}
				else {
					zoom_child(e, xmin, ratio);
					update_text(e);
				}
			}
		}
		search();
	}
	function unzoom(dont_update_text) {
		unzoombtn.classList.add("hide");
		var el = document.getElementById("frames").children;
		for(var i = 0; i < el.length; i++) {
			el[i].classList.remove("parent");
			el[i].classList.remove("hide");
			zoom_reset(el[i]);
			if(!dont_update_text) update_text(el[i]);
		}
		search();
	}
	function clearzoom() {
		unzoom();

		// remove zoom state
		var params = get_params();
		if (params.x) delete params.x;
		if (params.y) delete params.y;
		history.replaceState(null, null, parse_params(params));
	}

	// search
	function toggle_ignorecase() {
		ignorecase = !ignorecase;
		if (ignorecase) {
			ignorecaseBtn.classList.add("show");
		} else {
			ignorecaseBtn.classList.remove("show");
		}
		reset_search();
		search();
	}
	function reset_search() {
		var el = document.querySelectorAll("#frames rect");
		for (var i = 0; i < el.length; i++) {
			orig_load(el[i], "fill")
		}
		var params = get_params();
		delete params.s;
		history.replaceState(null, null, parse_params(params));
	}
	function search_prompt() {
		if (!searching) {
			var term = prompt("Enter a search term (regexp " +
			    "allowed, eg: ^ext4_)"
			    + (ignorecase ? ", ignoring case" : "")
			    + "\nPress Ctrl-i to toggle case sensitivity", "");
			if (term != null) search(term);
		} else {
			reset_search();
			searching = 0;
			currentSearchTerm = null;
			searchbtn.classList.remove("show");
			searchbtn.firstChild.nodeValue = "Search"
			matchedtxt.classList.add("hide");
			matchedtxt.firstChild.nodeValue = ""
		}
	}
	function search(term) {
		if (term) currentSearchTerm = term;

		var re = new RegExp(currentSearchTerm, ignorecase ? 'i' : '');
		var el = document.getElementById("frames").children;
		var matches = new Object();
		var maxwidth = 0;
		for (var i = 0; i < el.length; i++) {
			var e = el[i];
			var func = g_to_func(e);
			var rect = find_child(e, "rect");
			if (func == null || rect == null)
				continue;

			// Save max width. Only works as we have a root frame
			var w = parseFloat(rect.attributes.width.value);
			if (w > maxwidth)
				maxwidth = w;

			if (func.match(re)) {
				// highlight
				var x = parseFloat(rect.attributes.x.value);
				orig_save(rect, "fill");
				rect.attributes.fill.value = "rgb(230,0,230)";

				// remember matches
				if (matches[x] == undefined) {
					matches[x] = w;
				} else {
					if (w > matches[x]) {
						// overwrite with parent
						matches[x] = w;
					}
				}
				searching = 1;
			}
		}
		if (!searching)
			return;
		var params = get_params();
		params.s = currentSearchTerm;
		history.replaceState(null, null, parse_params(params));

		searchbtn.classList.add("show");
		searchbtn.firstChild.nodeValue = "Reset Search";

		// calculate percent matched, excluding vertical overlap
		var count = 0;
		var lastx = -1;
		var lastw = 0;
		var keys = Array();
		for (k in matches) {
			if (matches.hasOwnProperty(k))
				keys.push(k);
		}
		// sort the matched frames by their x location
		// ascending, then width descending
		keys.sort(function(a, b){
			return a - b;
		});
		// Step through frames saving only the biggest bottom-up frames
		// thanks to the sort order. This relies on the tree property
		// where children are always smaller than their parents.
		var fudge = 0.0001;	// JavaScript floating point
		for (var k in keys) {
			var x = parseFloat(keys[k]);
			var w = matches[keys[k]];
			if (x >= lastx + lastw - fudge) {
				count += w;
				lastx = x;
				lastw = w;
			}
		}
		// display matched percent
		matchedtxt.classList.remove("hide");
		var pct = 100 * count / maxwidth;
		if (pct != 100) pct = pct.toFixed(1)
		matchedtxt.firstChild.nodeValue = "Matched: " + pct + "%";
	}
]]>
</script>
<rect x="0.0" y="0" width="1200.0" height="294.0" fill="url(#background)"  />
<text id="title" x="600.00" y="24" >CUDA Time</text>
<text id="details" x="10.00" y="277" > </text>
<text id="unzoom" x="10.00" y="24" class="hide">Reset Zoom</text>
<text id="search" x="1090.00" y="24" >Search</text>
<text id="ignorecase" x="1174.00" y="24" >ic</text>
<text id="matched" x="1090.00" y="277" > </text>
<g id="frames">
<g >
<title>nn.Module:_OPTDecoder (834,117 us., 2.56%)</title><rect x="1142.6" y="149" width="30.2" height="15.0" fill="rgb(227,121,37)" rx="2" ry="2" />
<text  x="1145.58" y="159.5" >nn..</text>
</g>
<g >
<title>transformers/models/opt/modeling_opt.py(840):_forward (7,451 us., 0.02%)</title><rect x="1096.0" y="133" width="0.3" height="15.0" fill="rgb(233,10,15)" rx="2" ry="2" />
<text  x="1099.04" y="143.5" ></text>
</g>
<g >
<title>nn.Module:_OPTForCausalLM (957,362 us., 2.94%)</title><rect x="983.9" y="85" width="34.7" height="15.0" fill="rgb(233,8,45)" rx="2" ry="2" />
<text  x="986.94" y="95.5" >nn..</text>
</g>
<g >
<title>profiling/utils.py(18):_profile_model (7,663 us., 0.02%)</title><rect x="1189.7" y="165" width="0.3" height="15.0" fill="rgb(218,111,28)" rx="2" ry="2" />
<text  x="1192.72" y="175.5" ></text>
</g>
<g >
<title>&lt;built-in_method_encode_of_str_object_at_0x7f9f9fae64b0&gt; (2,616,771 us., 8.04%)</title><rect x="983.9" y="229" width="94.9" height="15.0" fill="rgb(246,146,35)" rx="2" ry="2" />
<text  x="986.94" y="239.5" >&lt;built-in_m..</text>
</g>
<g >
<title>nn.Module:_OPTForCausalLM (638,122 us., 1.96%)</title><rect x="1096.3" y="101" width="23.1" height="15.0" fill="rgb(223,226,24)" rx="2" ry="2" />
<text  x="1099.31" y="111.5" >n..</text>
</g>
<g >
<title>transformers/models/opt/modeling_opt.py(160):_forward (530,002 us., 1.63%)</title><rect x="1018.7" y="197" width="19.2" height="15.0" fill="rgb(250,1,10)" rx="2" ry="2" />
<text  x="1021.66" y="207.5" ></text>
</g>
<g >
<title>transformers/models/opt/modeling_opt.py(840):_forward (7,663 us., 0.02%)</title><rect x="1189.7" y="197" width="0.3" height="15.0" fill="rgb(208,108,54)" rx="2" ry="2" />
<text  x="1192.72" y="207.5" ></text>
</g>
<g >
<title>nn.Module:_OPTAttention (9,048,341 us., 27.80%)</title><rect x="10.0" y="165" width="328.0" height="15.0" fill="rgb(216,98,3)" rx="2" ry="2" />
<text  x="13.00" y="175.5" >nn.Module:_OPTAttention</text>
</g>
<g >
<title>transformers/models/opt/modeling_opt.py(840):_forward (8,249 us., 0.03%)</title><rect x="1078.4" y="165" width="0.3" height="15.0" fill="rgb(253,215,19)" rx="2" ry="2" />
<text  x="1081.41" y="175.5" ></text>
</g>
<g >
<title>transformers/models/opt/modeling_opt.py(298):_forward (530,002 us., 1.63%)</title><rect x="1018.7" y="165" width="19.2" height="15.0" fill="rgb(210,90,0)" rx="2" ry="2" />
<text  x="1021.66" y="175.5" ></text>
</g>
<g >
<title>transformers/models/opt/modeling_opt.py(298):_forward (636,886 us., 1.96%)</title><rect x="1119.5" y="165" width="23.0" height="15.0" fill="rgb(222,31,45)" rx="2" ry="2" />
<text  x="1122.45" y="175.5" >t..</text>
</g>
<g >
<title>profiling/utils.py(18):_profile_model (1,156,928 us., 3.55%)</title><rect x="941.2" y="85" width="42.0" height="15.0" fill="rgb(230,51,7)" rx="2" ry="2" />
<text  x="944.22" y="95.5" >pro..</text>
</g>
<g >
<title>nn.Module:_Embedding (9,832 us., 0.03%)</title><rect x="983.2" y="181" width="0.4" height="15.0" fill="rgb(253,167,49)" rx="2" ry="2" />
<text  x="986.23" y="191.5" ></text>
</g>
<g >
<title>nn.Module:_OPTDecoder (9,048,341 us., 27.80%)</title><rect x="10.0" y="101" width="328.0" height="15.0" fill="rgb(216,6,17)" rx="2" ry="2" />
<text  x="13.00" y="111.5" >nn.Module:_OPTDecoder</text>
</g>
<g >
<title>nn.Module:_OPTDecoderLayer (638,122 us., 1.96%)</title><rect x="1096.3" y="165" width="23.1" height="15.0" fill="rgb(210,192,34)" rx="2" ry="2" />
<text  x="1099.31" y="175.5" >n..</text>
</g>
<g >
<title>torch/autograd/grad_mode.py(27):_decorate_context (638,122 us., 1.96%)</title><rect x="1096.3" y="69" width="23.1" height="15.0" fill="rgb(241,7,54)" rx="2" ry="2" />
<text  x="1099.31" y="79.5" >t..</text>
</g>
<g >
<title>transformers/models/opt/modeling_opt.py(298):_forward (638,122 us., 1.96%)</title><rect x="1096.3" y="181" width="23.1" height="15.0" fill="rgb(231,101,15)" rx="2" ry="2" />
<text  x="1099.31" y="191.5" >t..</text>
</g>
<g >
<title>profiling/utils.py(18):_profile_model (9,612 us., 0.03%)</title><rect x="983.6" y="85" width="0.3" height="15.0" fill="rgb(251,66,48)" rx="2" ry="2" />
<text  x="986.59" y="95.5" ></text>
</g>
<g >
<title>nn.Module:_OPTDecoder (636,886 us., 1.96%)</title><rect x="1119.5" y="117" width="23.0" height="15.0" fill="rgb(215,61,24)" rx="2" ry="2" />
<text  x="1122.45" y="127.5" >n..</text>
</g>
<g >
<title>torch/autograd/grad_mode.py(27):_decorate_context (7,663 us., 0.02%)</title><rect x="1189.7" y="149" width="0.3" height="15.0" fill="rgb(242,29,52)" rx="2" ry="2" />
<text  x="1192.72" y="159.5" ></text>
</g>
<g >
<title>nn.Module:_OPTDecoder (1,118,160 us., 3.44%)</title><rect x="1037.9" y="133" width="40.5" height="15.0" fill="rgb(211,97,9)" rx="2" ry="2" />
<text  x="1040.87" y="143.5" >nn...</text>
</g>
<g >
<title>transformers/models/opt/modeling_opt.py(553):_forward (834,117 us., 2.56%)</title><rect x="1142.6" y="165" width="30.2" height="15.0" fill="rgb(237,83,3)" rx="2" ry="2" />
<text  x="1145.58" y="175.5" >tr..</text>
</g>
<g >
<title>transformers/models/opt/modeling_opt.py(298):_forward (1,156,928 us., 3.55%)</title><rect x="941.2" y="181" width="42.0" height="15.0" fill="rgb(242,88,23)" rx="2" ry="2" />
<text  x="944.22" y="191.5" >tra..</text>
</g>
<g >
<title>nn.Module:_OPTDecoder (9,612 us., 0.03%)</title><rect x="983.6" y="133" width="0.3" height="15.0" fill="rgb(221,112,30)" rx="2" ry="2" />
<text  x="986.59" y="143.5" ></text>
</g>
<g >
<title>&lt;built-in_method_embedding_of_type_object_at_0x7fa093ff29c0&gt; (19,444 us., 0.06%)</title><rect x="983.2" y="229" width="0.7" height="15.0" fill="rgb(242,102,39)" rx="2" ry="2" />
<text  x="986.23" y="239.5" ></text>
</g>
<g >
<title>torch/nn/modules/sparse.py(157):_forward (19,444 us., 0.06%)</title><rect x="983.2" y="197" width="0.7" height="15.0" fill="rgb(215,186,48)" rx="2" ry="2" />
<text  x="986.23" y="207.5" ></text>
</g>
<g >
<title>nn.Module:_OPTDecoder (475,694 us., 1.46%)</title><rect x="1078.8" y="117" width="17.2" height="15.0" fill="rgb(225,57,25)" rx="2" ry="2" />
<text  x="1081.80" y="127.5" ></text>
</g>
<g >
<title>nn.Module:_Linear (25,687,188 us., 78.92%)</title><rect x="10.0" y="197" width="931.2" height="15.0" fill="rgb(231,116,25)" rx="2" ry="2" />
<text  x="13.00" y="207.5" >nn.Module:_Linear</text>
</g>
<g >
<title>torch/autograd/grad_mode.py(27):_decorate_context (8,249 us., 0.03%)</title><rect x="1078.4" y="117" width="0.3" height="15.0" fill="rgb(214,228,44)" rx="2" ry="2" />
<text  x="1081.41" y="127.5" ></text>
</g>
<g >
<title>transformers/models/opt/modeling_opt.py(840):_forward (9,048,341 us., 27.80%)</title><rect x="10.0" y="85" width="328.0" height="15.0" fill="rgb(227,157,43)" rx="2" ry="2" />
<text  x="13.00" y="95.5" >transformers/models/opt/modeling_opt.py(840)..</text>
</g>
<g >
<title>transformers/models/opt/modeling_opt.py(840):_forward (15,970,027 us., 49.06%)</title><rect x="338.0" y="117" width="579.0" height="15.0" fill="rgb(215,12,53)" rx="2" ry="2" />
<text  x="341.02" y="127.5" >transformers/models/opt/modeling_opt.py(840):_forward</text>
</g>
<g >
<title>transformers/models/opt/modeling_opt.py(553):_forward (9,612 us., 0.03%)</title><rect x="983.6" y="149" width="0.3" height="15.0" fill="rgb(250,152,45)" rx="2" ry="2" />
<text  x="986.59" y="159.5" ></text>
</g>
<g >
<title>torch/nn/functional.py(1804):_softmax (957,362 us., 2.94%)</title><rect x="983.9" y="213" width="34.7" height="15.0" fill="rgb(252,200,30)" rx="2" ry="2" />
<text  x="986.94" y="223.5" >to..</text>
</g>
<g >
<title>transformers/models/opt/modeling_opt.py(553):_forward (475,694 us., 1.46%)</title><rect x="1078.8" y="133" width="17.2" height="15.0" fill="rgb(230,50,24)" rx="2" ry="2" />
<text  x="1081.80" y="143.5" ></text>
</g>
<g >
<title>transformers/models/opt/modeling_opt.py(553):_forward (15,970,027 us., 49.06%)</title><rect x="338.0" y="149" width="579.0" height="15.0" fill="rgb(225,206,9)" rx="2" ry="2" />
<text  x="341.02" y="159.5" >transformers/models/opt/modeling_opt.py(553):_forward</text>
</g>
<g >
<title>transformers/models/opt/modeling_opt.py(298):_forward (475,694 us., 1.46%)</title><rect x="1078.8" y="165" width="17.2" height="15.0" fill="rgb(249,156,46)" rx="2" ry="2" />
<text  x="1081.80" y="175.5" ></text>
</g>
<g >
<title>transformers/models/opt/modeling_opt.py(298):_forward (957,362 us., 2.94%)</title><rect x="983.9" y="165" width="34.7" height="15.0" fill="rgb(225,64,10)" rx="2" ry="2" />
<text  x="986.94" y="175.5" >tr..</text>
</g>
<g >
<title>&lt;built-in_function_linear&gt; (25,687,188 us., 78.92%)</title><rect x="10.0" y="229" width="931.2" height="15.0" fill="rgb(225,50,29)" rx="2" ry="2" />
<text  x="13.00" y="239.5" >&lt;built-in_function_linear&gt;</text>
</g>
<g >
<title>nn.Module:_OPTForCausalLM (475,694 us., 1.46%)</title><rect x="1078.8" y="85" width="17.2" height="15.0" fill="rgb(254,185,47)" rx="2" ry="2" />
<text  x="1081.80" y="95.5" ></text>
</g>
<g >
<title>profiling/utils.py(18):_profile_model (475,694 us., 1.46%)</title><rect x="1078.8" y="69" width="17.2" height="15.0" fill="rgb(228,97,3)" rx="2" ry="2" />
<text  x="1081.80" y="79.5" ></text>
</g>
<g >
<title>torch/nn/functional.py(2488):_layer_norm (483,145 us., 1.48%)</title><rect x="1078.8" y="213" width="17.5" height="15.0" fill="rgb(247,155,14)" rx="2" ry="2" />
<text  x="1081.80" y="223.5" ></text>
</g>
<g >
<title>transformers/models/opt/modeling_opt.py(298):_forward (834,117 us., 2.56%)</title><rect x="1142.6" y="197" width="30.2" height="15.0" fill="rgb(227,86,10)" rx="2" ry="2" />
<text  x="1145.58" y="207.5" >tr..</text>
</g>
<g >
<title>nn.Module:_OPTDecoder (15,970,027 us., 49.06%)</title><rect x="338.0" y="133" width="579.0" height="15.0" fill="rgb(216,72,2)" rx="2" ry="2" />
<text  x="341.02" y="143.5" >nn.Module:_OPTDecoder</text>
</g>
<g >
<title>nn.Module:_OPTDecoder (957,362 us., 2.94%)</title><rect x="983.9" y="117" width="34.7" height="15.0" fill="rgb(231,187,43)" rx="2" ry="2" />
<text  x="986.94" y="127.5" >nn..</text>
</g>
<g >
<title>nn.Module:_OPTForCausalLM (1,118,160 us., 3.44%)</title><rect x="1037.9" y="101" width="40.5" height="15.0" fill="rgb(222,4,6)" rx="2" ry="2" />
<text  x="1040.87" y="111.5" >nn...</text>
</g>
<g >
<title>nn.Module:_OPTAttention (1,156,928 us., 3.55%)</title><rect x="941.2" y="197" width="42.0" height="15.0" fill="rgb(235,136,42)" rx="2" ry="2" />
<text  x="944.22" y="207.5" >nn...</text>
</g>
<g >
<title>nn.Module:_OPTForCausalLM (636,886 us., 1.96%)</title><rect x="1119.5" y="85" width="23.0" height="15.0" fill="rgb(254,9,52)" rx="2" ry="2" />
<text  x="1122.45" y="95.5" >n..</text>
</g>
<g >
<title>transformers/models/opt/modeling_opt.py(553):_forward (8,249 us., 0.03%)</title><rect x="1078.4" y="197" width="0.3" height="15.0" fill="rgb(238,32,29)" rx="2" ry="2" />
<text  x="1081.41" y="207.5" ></text>
</g>
<g >
<title>transformers/models/opt/modeling_opt.py(840):_forward (834,117 us., 2.56%)</title><rect x="1142.6" y="133" width="30.2" height="15.0" fill="rgb(242,209,20)" rx="2" ry="2" />
<text  x="1145.58" y="143.5" >tr..</text>
</g>
<g >
<title>nn.Module:_OPTDecoder (530,002 us., 1.63%)</title><rect x="1018.7" y="117" width="19.2" height="15.0" fill="rgb(230,106,22)" rx="2" ry="2" />
<text  x="1021.66" y="127.5" ></text>
</g>
<g >
<title>profiling/utils.py(18):_profile_model (636,886 us., 1.96%)</title><rect x="1119.5" y="69" width="23.0" height="15.0" fill="rgb(219,72,10)" rx="2" ry="2" />
<text  x="1122.45" y="79.5" >p..</text>
</g>
<g >
<title>profiling/utils.py(18):_profile_model (1,118,160 us., 3.44%)</title><rect x="1037.9" y="85" width="40.5" height="15.0" fill="rgb(224,73,23)" rx="2" ry="2" />
<text  x="1040.87" y="95.5" >pro..</text>
</g>
<g >
<title>nn.Module:_OPTForCausalLM (9,832 us., 0.03%)</title><rect x="983.2" y="117" width="0.4" height="15.0" fill="rgb(236,185,14)" rx="2" ry="2" />
<text  x="986.23" y="127.5" ></text>
</g>
<g >
<title>torch/autograd/grad_mode.py(27):_decorate_context (1,118,160 us., 3.44%)</title><rect x="1037.9" y="69" width="40.5" height="15.0" fill="rgb(214,176,22)" rx="2" ry="2" />
<text  x="1040.87" y="79.5" >tor..</text>
</g>
<g >
<title>torch/autograd/grad_mode.py(27):_decorate_context (9,832 us., 0.03%)</title><rect x="983.2" y="85" width="0.4" height="15.0" fill="rgb(209,86,35)" rx="2" ry="2" />
<text  x="986.23" y="95.5" ></text>
</g>
<g >
<title>transformers/models/opt/modeling_opt.py(840):_forward (638,122 us., 1.96%)</title><rect x="1096.3" y="117" width="23.1" height="15.0" fill="rgb(211,224,5)" rx="2" ry="2" />
<text  x="1099.31" y="127.5" >t..</text>
</g>
<g >
<title>nn.Module:_OPTLearnedPositionalEmbedding (9,612 us., 0.03%)</title><rect x="983.6" y="165" width="0.3" height="15.0" fill="rgb(241,119,38)" rx="2" ry="2" />
<text  x="986.59" y="175.5" ></text>
</g>
<g >
<title>transformers/models/opt/modeling_opt.py(157):__shape (530,002 us., 1.63%)</title><rect x="1018.7" y="213" width="19.2" height="15.0" fill="rgb(239,28,50)" rx="2" ry="2" />
<text  x="1021.66" y="223.5" ></text>
</g>
<g >
<title>torch/autograd/grad_mode.py(27):_decorate_context (636,886 us., 1.96%)</title><rect x="1119.5" y="53" width="23.0" height="15.0" fill="rgb(249,202,42)" rx="2" ry="2" />
<text  x="1122.45" y="63.5" >t..</text>
</g>
<g >
<title>&lt;built-in_method_layer_norm_of_type_object_at_0x7fa093ff29c0&gt; (483,145 us., 1.48%)</title><rect x="1078.8" y="229" width="17.5" height="15.0" fill="rgb(206,149,13)" rx="2" ry="2" />
<text  x="1081.80" y="239.5" ></text>
</g>
<g >
<title>nn.Module:_LayerNorm (483,145 us., 1.48%)</title><rect x="1078.8" y="181" width="17.5" height="15.0" fill="rgb(234,185,0)" rx="2" ry="2" />
<text  x="1081.80" y="191.5" ></text>
</g>
<g >
<title>transformers/models/opt/modeling_opt.py(298):_forward (15,970,027 us., 49.06%)</title><rect x="338.0" y="181" width="579.0" height="15.0" fill="rgb(249,197,38)" rx="2" ry="2" />
<text  x="341.02" y="191.5" >transformers/models/opt/modeling_opt.py(298):_forward</text>
</g>
<g >
<title>transformers/models/opt/modeling_opt.py(553):_forward (530,002 us., 1.63%)</title><rect x="1018.7" y="133" width="19.2" height="15.0" fill="rgb(205,175,12)" rx="2" ry="2" />
<text  x="1021.66" y="143.5" ></text>
</g>
<g >
<title>nn.Module:_OPTAttention (834,117 us., 2.56%)</title><rect x="1142.6" y="213" width="30.2" height="15.0" fill="rgb(241,103,49)" rx="2" ry="2" />
<text  x="1145.58" y="223.5" >nn..</text>
</g>
<g >
<title>profiling/utils.py(18):_profile_model (834,117 us., 2.56%)</title><rect x="1142.6" y="101" width="30.2" height="15.0" fill="rgb(208,162,31)" rx="2" ry="2" />
<text  x="1145.58" y="111.5" >pr..</text>
</g>
<g >
<title>transformers/models/opt/modeling_opt.py(840):_forward (9,832 us., 0.03%)</title><rect x="983.2" y="133" width="0.4" height="15.0" fill="rgb(212,171,15)" rx="2" ry="2" />
<text  x="986.23" y="143.5" ></text>
</g>
<g >
<title>&lt;built-in_method_relu_of_type_object_at_0x7fa093ff29c0&gt; (636,886 us., 1.96%)</title><rect x="1119.5" y="229" width="23.0" height="15.0" fill="rgb(249,71,35)" rx="2" ry="2" />
<text  x="1122.45" y="239.5" >&lt;..</text>
</g>
<g >
<title>transformers/models/opt/modeling_opt.py(840):_forward (530,002 us., 1.63%)</title><rect x="1018.7" y="101" width="19.2" height="15.0" fill="rgb(219,64,36)" rx="2" ry="2" />
<text  x="1021.66" y="111.5" ></text>
</g>
<g >
<title>torch/nn/functional.py(2099):_embedding (19,444 us., 0.06%)</title><rect x="983.2" y="213" width="0.7" height="15.0" fill="rgb(239,128,27)" rx="2" ry="2" />
<text  x="986.23" y="223.5" ></text>
</g>
<g >
<title>transformers/models/opt/modeling_opt.py(840):_forward (475,694 us., 1.46%)</title><rect x="1078.8" y="101" width="17.2" height="15.0" fill="rgb(205,96,8)" rx="2" ry="2" />
<text  x="1081.80" y="111.5" ></text>
</g>
<g >
<title>nn.Module:_OPTDecoderLayer (15,970,027 us., 49.06%)</title><rect x="338.0" y="165" width="579.0" height="15.0" fill="rgb(210,119,12)" rx="2" ry="2" />
<text  x="341.02" y="175.5" >nn.Module:_OPTDecoderLayer</text>
</g>
<g >
<title>transformers/models/opt/modeling_opt.py(553):_forward (465,612 us., 1.43%)</title><rect x="1172.8" y="197" width="16.9" height="15.0" fill="rgb(224,163,10)" rx="2" ry="2" />
<text  x="1175.82" y="207.5" ></text>
</g>
<g >
<title>transformers/models/opt/modeling_opt.py(160):_forward (1,118,160 us., 3.44%)</title><rect x="1037.9" y="213" width="40.5" height="15.0" fill="rgb(220,105,31)" rx="2" ry="2" />
<text  x="1040.87" y="223.5" >tra..</text>
</g>
<g >
<title>profiling/utils.py(18):_profile_model (668,820 us., 2.05%)</title><rect x="917.0" y="149" width="24.2" height="15.0" fill="rgb(247,60,15)" rx="2" ry="2" />
<text  x="919.97" y="159.5" >p..</text>
</g>
<g >
<title>nn.Module:_OPTDecoderLayer (1,156,928 us., 3.55%)</title><rect x="941.2" y="165" width="42.0" height="15.0" fill="rgb(236,161,1)" rx="2" ry="2" />
<text  x="944.22" y="175.5" >nn...</text>
</g>
<g >
<title>transformers/models/opt/modeling_opt.py(298):_forward (1,118,160 us., 3.44%)</title><rect x="1037.9" y="181" width="40.5" height="15.0" fill="rgb(210,179,44)" rx="2" ry="2" />
<text  x="1040.87" y="191.5" >tra..</text>
</g>
<g >
<title>nn.Module:_OPTDecoder (7,663 us., 0.02%)</title><rect x="1189.7" y="213" width="0.3" height="15.0" fill="rgb(250,50,49)" rx="2" ry="2" />
<text  x="1192.72" y="223.5" ></text>
</g>
<g >
<title>nn.Module:_OPTForCausalLM (465,612 us., 1.43%)</title><rect x="1172.8" y="149" width="16.9" height="15.0" fill="rgb(232,198,19)" rx="2" ry="2" />
<text  x="1175.82" y="159.5" ></text>
</g>
<g >
<title>profiling/utils.py(18):_profile_model (9,048,341 us., 27.80%)</title><rect x="10.0" y="53" width="328.0" height="15.0" fill="rgb(248,106,27)" rx="2" ry="2" />
<text  x="13.00" y="63.5" >profiling/utils.py(18):_profile_model</text>
</g>
<g >
<title>transformers/models/opt/modeling_opt.py(160):_forward (9,048,341 us., 27.80%)</title><rect x="10.0" y="181" width="328.0" height="15.0" fill="rgb(246,45,20)" rx="2" ry="2" />
<text  x="13.00" y="191.5" >transformers/models/opt/modeling_opt.py(160)..</text>
</g>
<g >
<title>nn.Module:_OPTDecoderLayer (9,048,341 us., 27.80%)</title><rect x="10.0" y="133" width="328.0" height="15.0" fill="rgb(212,222,16)" rx="2" ry="2" />
<text  x="13.00" y="143.5" >nn.Module:_OPTDecoderLayer</text>
</g>
<g >
<title>profiling/utils.py(18):_profile_model (7,451 us., 0.02%)</title><rect x="1096.0" y="101" width="0.3" height="15.0" fill="rgb(247,87,21)" rx="2" ry="2" />
<text  x="1099.04" y="111.5" ></text>
</g>
<g >
<title>torch/nn/modules/linear.py(113):_forward (25,687,188 us., 78.92%)</title><rect x="10.0" y="213" width="931.2" height="15.0" fill="rgb(236,69,12)" rx="2" ry="2" />
<text  x="13.00" y="223.5" >torch/nn/modules/linear.py(113):_forward</text>
</g>
<g >
<title>nn.Module:_ReLU (636,886 us., 1.96%)</title><rect x="1119.5" y="181" width="23.0" height="15.0" fill="rgb(212,124,31)" rx="2" ry="2" />
<text  x="1122.45" y="191.5" >n..</text>
</g>
<g >
<title>transformers/models/opt/modeling_opt.py(533):__prepare_decoder_attention_mask (8,249 us., 0.03%)</title><rect x="1078.4" y="213" width="0.3" height="15.0" fill="rgb(220,117,31)" rx="2" ry="2" />
<text  x="1081.41" y="223.5" ></text>
</g>
<g >
<title>torch/autograd/grad_mode.py(27):_decorate_context (7,451 us., 0.02%)</title><rect x="1096.0" y="85" width="0.3" height="15.0" fill="rgb(224,142,11)" rx="2" ry="2" />
<text  x="1099.04" y="95.5" ></text>
</g>
<g >
<title>nn.Module:_OPTDecoderLayer (957,362 us., 2.94%)</title><rect x="983.9" y="149" width="34.7" height="15.0" fill="rgb(223,155,0)" rx="2" ry="2" />
<text  x="986.94" y="159.5" >nn..</text>
</g>
<g >
<title>nn.Module:_OPTDecoder (8,249 us., 0.03%)</title><rect x="1078.4" y="181" width="0.3" height="15.0" fill="rgb(231,212,16)" rx="2" ry="2" />
<text  x="1081.41" y="191.5" ></text>
</g>
<g >
<title>transformers/models/opt/modeling_opt.py(160):_forward (1,156,928 us., 3.55%)</title><rect x="941.2" y="213" width="42.0" height="15.0" fill="rgb(217,192,54)" rx="2" ry="2" />
<text  x="944.22" y="223.5" >tra..</text>
</g>
<g >
<title>all (32,549,753 us., 100%)</title><rect x="10.0" y="245" width="1180.0" height="15.0" fill="rgb(233,160,7)" rx="2" ry="2" />
<text  x="13.00" y="255.5" ></text>
</g>
<g >
<title>nn.Module:_OPTDecoder (638,122 us., 1.96%)</title><rect x="1096.3" y="133" width="23.1" height="15.0" fill="rgb(244,221,42)" rx="2" ry="2" />
<text  x="1099.31" y="143.5" >n..</text>
</g>
<g >
<title>&lt;built-in_method_max_of_type_object_at_0x7fa093ff29c0&gt; (638,122 us., 1.96%)</title><rect x="1096.3" y="229" width="23.1" height="15.0" fill="rgb(213,41,19)" rx="2" ry="2" />
<text  x="1099.31" y="239.5" >&lt;..</text>
</g>
<g >
<title>nn.Module:_OPTAttention (530,002 us., 1.63%)</title><rect x="1018.7" y="181" width="19.2" height="15.0" fill="rgb(216,170,25)" rx="2" ry="2" />
<text  x="1021.66" y="191.5" ></text>
</g>
<g >
<title>profiling/utils.py(18):_profile_model (9,832 us., 0.03%)</title><rect x="983.2" y="101" width="0.4" height="15.0" fill="rgb(240,109,20)" rx="2" ry="2" />
<text  x="986.23" y="111.5" ></text>
</g>
<g >
<title>transformers/models/opt/modeling_opt.py(840):_forward (465,612 us., 1.43%)</title><rect x="1172.8" y="165" width="16.9" height="15.0" fill="rgb(205,198,33)" rx="2" ry="2" />
<text  x="1175.82" y="175.5" ></text>
</g>
<g >
<title>nn.Module:_OPTAttention (957,362 us., 2.94%)</title><rect x="983.9" y="181" width="34.7" height="15.0" fill="rgb(212,22,25)" rx="2" ry="2" />
<text  x="986.94" y="191.5" >nn..</text>
</g>
<g >
<title>profiling/utils.py(18):_profile_model (530,002 us., 1.63%)</title><rect x="1018.7" y="69" width="19.2" height="15.0" fill="rgb(209,36,7)" rx="2" ry="2" />
<text  x="1021.66" y="79.5" ></text>
</g>
<g >
<title>transformers/models/opt/modeling_opt.py(553):_forward (1,118,160 us., 3.44%)</title><rect x="1037.9" y="149" width="40.5" height="15.0" fill="rgb(225,164,8)" rx="2" ry="2" />
<text  x="1040.87" y="159.5" >tra..</text>
</g>
<g >
<title>transformers/models/opt/modeling_opt.py(160):_forward (834,117 us., 2.56%)</title><rect x="1142.6" y="229" width="30.2" height="15.0" fill="rgb(248,103,20)" rx="2" ry="2" />
<text  x="1145.58" y="239.5" >tr..</text>
</g>
<g >
<title>transformers/models/opt/modeling_opt.py(553):_forward (9,832 us., 0.03%)</title><rect x="983.2" y="165" width="0.4" height="15.0" fill="rgb(208,196,41)" rx="2" ry="2" />
<text  x="986.23" y="175.5" ></text>
</g>
<g >
<title>torch/autograd/grad_mode.py(27):_decorate_context (9,612 us., 0.03%)</title><rect x="983.6" y="69" width="0.3" height="15.0" fill="rgb(212,86,1)" rx="2" ry="2" />
<text  x="986.59" y="79.5" ></text>
</g>
<g >
<title>torch/autograd/grad_mode.py(27):_decorate_context (668,820 us., 2.05%)</title><rect x="917.0" y="133" width="24.2" height="15.0" fill="rgb(249,107,5)" rx="2" ry="2" />
<text  x="919.97" y="143.5" >t..</text>
</g>
<g >
<title>nn.Module:_OPTDecoder (465,612 us., 1.43%)</title><rect x="1172.8" y="181" width="16.9" height="15.0" fill="rgb(251,7,31)" rx="2" ry="2" />
<text  x="1175.82" y="191.5" ></text>
</g>
<g >
<title>nn.Module:_OPTForCausalLM (7,663 us., 0.02%)</title><rect x="1189.7" y="181" width="0.3" height="15.0" fill="rgb(224,210,35)" rx="2" ry="2" />
<text  x="1192.72" y="191.5" ></text>
</g>
<g >
<title>profiling/utils.py(18):_profile_model (638,122 us., 1.96%)</title><rect x="1096.3" y="85" width="23.1" height="15.0" fill="rgb(253,208,19)" rx="2" ry="2" />
<text  x="1099.31" y="95.5" >p..</text>
</g>
<g >
<title>&lt;built-in_method_bmm_of_type_object_at_0x7fa093ff29c0&gt; (1,156,928 us., 3.55%)</title><rect x="941.2" y="229" width="42.0" height="15.0" fill="rgb(249,46,13)" rx="2" ry="2" />
<text  x="944.22" y="239.5" >&lt;bu..</text>
</g>
<g >
<title>transformers/models/opt/modeling_opt.py(298):_forward (465,612 us., 1.43%)</title><rect x="1172.8" y="229" width="16.9" height="15.0" fill="rgb(223,180,28)" rx="2" ry="2" />
<text  x="1175.82" y="239.5" ></text>
</g>
<g >
<title>profiling/utils.py(18):_profile_model (957,362 us., 2.94%)</title><rect x="983.9" y="69" width="34.7" height="15.0" fill="rgb(210,115,43)" rx="2" ry="2" />
<text  x="986.94" y="79.5" >pr..</text>
</g>
<g >
<title>torch/nn/functional.py(1446):_relu (636,886 us., 1.96%)</title><rect x="1119.5" y="213" width="23.0" height="15.0" fill="rgb(218,4,30)" rx="2" ry="2" />
<text  x="1122.45" y="223.5" >t..</text>
</g>
<g >
<title>profiling/utils.py(18):_profile_model (15,970,027 us., 49.06%)</title><rect x="338.0" y="85" width="579.0" height="15.0" fill="rgb(235,115,13)" rx="2" ry="2" />
<text  x="341.02" y="95.5" >profiling/utils.py(18):_profile_model</text>
</g>
<g >
<title>profiling/utils.py(18):_profile_model (465,612 us., 1.43%)</title><rect x="1172.8" y="133" width="16.9" height="15.0" fill="rgb(230,136,39)" rx="2" ry="2" />
<text  x="1175.82" y="143.5" ></text>
</g>
<g >
<title>transformers/models/opt/modeling_opt.py(840):_forward (957,362 us., 2.94%)</title><rect x="983.9" y="101" width="34.7" height="15.0" fill="rgb(231,74,24)" rx="2" ry="2" />
<text  x="986.94" y="111.5" >tr..</text>
</g>
<g >
<title>nn.Module:_OPTDecoder (9,832 us., 0.03%)</title><rect x="983.2" y="149" width="0.4" height="15.0" fill="rgb(251,135,11)" rx="2" ry="2" />
<text  x="986.23" y="159.5" ></text>
</g>
<g >
<title>torch/autograd/grad_mode.py(27):_decorate_context (475,694 us., 1.46%)</title><rect x="1078.8" y="53" width="17.2" height="15.0" fill="rgb(253,175,49)" rx="2" ry="2" />
<text  x="1081.80" y="63.5" ></text>
</g>
<g >
<title>nn.Module:_OPTForCausalLM (668,820 us., 2.05%)</title><rect x="917.0" y="165" width="24.2" height="15.0" fill="rgb(246,6,23)" rx="2" ry="2" />
<text  x="919.97" y="175.5" >n..</text>
</g>
<g >
<title>transformers/models/opt/modeling_opt.py(553):_forward (7,663 us., 0.02%)</title><rect x="1189.7" y="229" width="0.3" height="15.0" fill="rgb(225,165,3)" rx="2" ry="2" />
<text  x="1192.72" y="239.5" ></text>
</g>
<g >
<title>torch/nn/modules/normalization.py(188):_forward (483,145 us., 1.48%)</title><rect x="1078.8" y="197" width="17.5" height="15.0" fill="rgb(244,191,30)" rx="2" ry="2" />
<text  x="1081.80" y="207.5" ></text>
</g>
<g >
<title>nn.Module:_OPTDecoderLayer (475,694 us., 1.46%)</title><rect x="1078.8" y="149" width="17.2" height="15.0" fill="rgb(244,165,4)" rx="2" ry="2" />
<text  x="1081.80" y="159.5" ></text>
</g>
<g >
<title>nn.Module:_OPTForCausalLM (1,156,928 us., 3.55%)</title><rect x="941.2" y="101" width="42.0" height="15.0" fill="rgb(242,67,22)" rx="2" ry="2" />
<text  x="944.22" y="111.5" >nn...</text>
</g>
<g >
<title>transformers/models/opt/modeling_opt.py(298):_forward (9,048,341 us., 27.80%)</title><rect x="10.0" y="149" width="328.0" height="15.0" fill="rgb(245,207,14)" rx="2" ry="2" />
<text  x="13.00" y="159.5" >transformers/models/opt/modeling_opt.py(298)..</text>
</g>
<g >
<title>torch/autograd/grad_mode.py(27):_decorate_context (1,156,928 us., 3.55%)</title><rect x="941.2" y="69" width="42.0" height="15.0" fill="rgb(254,104,19)" rx="2" ry="2" />
<text  x="944.22" y="79.5" >tor..</text>
</g>
<g >
<title>transformers/models/opt/modeling_opt.py(553):_forward (957,362 us., 2.94%)</title><rect x="983.9" y="133" width="34.7" height="15.0" fill="rgb(232,21,12)" rx="2" ry="2" />
<text  x="986.94" y="143.5" >tr..</text>
</g>
<g >
<title>profiling/utils.py(18):_profile_model (8,249 us., 0.03%)</title><rect x="1078.4" y="133" width="0.3" height="15.0" fill="rgb(231,224,22)" rx="2" ry="2" />
<text  x="1081.41" y="143.5" ></text>
</g>
<g >
<title>torch/autograd/grad_mode.py(27):_decorate_context (15,970,027 us., 49.06%)</title><rect x="338.0" y="69" width="579.0" height="15.0" fill="rgb(218,57,29)" rx="2" ry="2" />
<text  x="341.02" y="79.5" >torch/autograd/grad_mode.py(27):_decorate_context</text>
</g>
<g >
<title>transformers/models/opt/modeling_opt.py(553):_forward (7,451 us., 0.02%)</title><rect x="1096.0" y="165" width="0.3" height="15.0" fill="rgb(241,14,2)" rx="2" ry="2" />
<text  x="1099.04" y="175.5" ></text>
</g>
<g >
<title>torch/autograd/grad_mode.py(27):_decorate_context (465,612 us., 1.43%)</title><rect x="1172.8" y="117" width="16.9" height="15.0" fill="rgb(210,93,48)" rx="2" ry="2" />
<text  x="1175.82" y="127.5" ></text>
</g>
<g >
<title>nn.Module:_OPTDecoder (7,451 us., 0.02%)</title><rect x="1096.0" y="149" width="0.3" height="15.0" fill="rgb(215,105,54)" rx="2" ry="2" />
<text  x="1099.04" y="159.5" ></text>
</g>
<g >
<title>transformers/models/opt/modeling_opt.py(114):_forward (9,612 us., 0.03%)</title><rect x="983.6" y="181" width="0.3" height="15.0" fill="rgb(235,152,35)" rx="2" ry="2" />
<text  x="986.59" y="191.5" ></text>
</g>
<g >
<title>nn.Module:_OPTForCausalLM (9,612 us., 0.03%)</title><rect x="983.6" y="101" width="0.3" height="15.0" fill="rgb(223,92,14)" rx="2" ry="2" />
<text  x="986.59" y="111.5" ></text>
</g>
<g >
<title>nn.Module:_OPTAttention (638,122 us., 1.96%)</title><rect x="1096.3" y="197" width="23.1" height="15.0" fill="rgb(212,99,37)" rx="2" ry="2" />
<text  x="1099.31" y="207.5" >n..</text>
</g>
<g >
<title>nn.Module:_OPTDecoder (1,156,928 us., 3.55%)</title><rect x="941.2" y="133" width="42.0" height="15.0" fill="rgb(238,38,38)" rx="2" ry="2" />
<text  x="944.22" y="143.5" >nn...</text>
</g>
<g >
<title>torch/nn/modules/activation.py(97):_forward (636,886 us., 1.96%)</title><rect x="1119.5" y="197" width="23.0" height="15.0" fill="rgb(233,20,37)" rx="2" ry="2" />
<text  x="1122.45" y="207.5" >t..</text>
</g>
<g >
<title>nn.Module:_OPTForCausalLM (530,002 us., 1.63%)</title><rect x="1018.7" y="85" width="19.2" height="15.0" fill="rgb(227,169,19)" rx="2" ry="2" />
<text  x="1021.66" y="95.5" ></text>
</g>
<g >
<title>nn.Module:_OPTForCausalLM (15,970,027 us., 49.06%)</title><rect x="338.0" y="101" width="579.0" height="15.0" fill="rgb(239,205,31)" rx="2" ry="2" />
<text  x="341.02" y="111.5" >nn.Module:_OPTForCausalLM</text>
</g>
<g >
<title>nn.Module:_OPTDecoderLayer (465,612 us., 1.43%)</title><rect x="1172.8" y="213" width="16.9" height="15.0" fill="rgb(235,30,4)" rx="2" ry="2" />
<text  x="1175.82" y="223.5" ></text>
</g>
<g >
<title>transformers/models/opt/modeling_opt.py(840):_forward (668,820 us., 2.05%)</title><rect x="917.0" y="181" width="24.2" height="15.0" fill="rgb(233,42,24)" rx="2" ry="2" />
<text  x="919.97" y="191.5" >t..</text>
</g>
<g >
<title>transformers/models/opt/modeling_opt.py(840):_forward (9,612 us., 0.03%)</title><rect x="983.6" y="117" width="0.3" height="15.0" fill="rgb(239,46,46)" rx="2" ry="2" />
<text  x="986.59" y="127.5" ></text>
</g>
<g >
<title>nn.Module:_OPTDecoderLayer (1,118,160 us., 3.44%)</title><rect x="1037.9" y="165" width="40.5" height="15.0" fill="rgb(244,113,33)" rx="2" ry="2" />
<text  x="1040.87" y="175.5" >nn...</text>
</g>
<g >
<title>nn.Module:_OPTForCausalLM (9,048,341 us., 27.80%)</title><rect x="10.0" y="69" width="328.0" height="15.0" fill="rgb(236,85,44)" rx="2" ry="2" />
<text  x="13.00" y="79.5" >nn.Module:_OPTForCausalLM</text>
</g>
<g >
<title>transformers/models/opt/modeling_opt.py(553):_forward (638,122 us., 1.96%)</title><rect x="1096.3" y="149" width="23.1" height="15.0" fill="rgb(213,2,44)" rx="2" ry="2" />
<text  x="1099.31" y="159.5" >t..</text>
</g>
<g >
<title>transformers/models/opt/modeling_opt.py(553):_forward (1,156,928 us., 3.55%)</title><rect x="941.2" y="149" width="42.0" height="15.0" fill="rgb(221,70,44)" rx="2" ry="2" />
<text  x="944.22" y="159.5" >tra..</text>
</g>
<g >
<title>torch/autograd/grad_mode.py(27):_decorate_context (530,002 us., 1.63%)</title><rect x="1018.7" y="53" width="19.2" height="15.0" fill="rgb(210,188,27)" rx="2" ry="2" />
<text  x="1021.66" y="63.5" ></text>
</g>
<g >
<title>nn.Module:_OPTAttention (1,118,160 us., 3.44%)</title><rect x="1037.9" y="197" width="40.5" height="15.0" fill="rgb(251,69,45)" rx="2" ry="2" />
<text  x="1040.87" y="207.5" >nn...</text>
</g>
<g >
<title>transformers/models/opt/modeling_opt.py(553):_forward (636,886 us., 1.96%)</title><rect x="1119.5" y="133" width="23.0" height="15.0" fill="rgb(217,143,35)" rx="2" ry="2" />
<text  x="1122.45" y="143.5" >t..</text>
</g>
<g >
<title>transformers/models/opt/modeling_opt.py(160):_forward (638,122 us., 1.96%)</title><rect x="1096.3" y="213" width="23.1" height="15.0" fill="rgb(232,159,38)" rx="2" ry="2" />
<text  x="1099.31" y="223.5" >t..</text>
</g>
<g >
<title>nn.Module:_OPTDecoderLayer (834,117 us., 2.56%)</title><rect x="1142.6" y="181" width="30.2" height="15.0" fill="rgb(208,28,21)" rx="2" ry="2" />
<text  x="1145.58" y="191.5" >nn..</text>
</g>
<g >
<title>transformers/models/opt/modeling_opt.py(840):_forward (636,886 us., 1.96%)</title><rect x="1119.5" y="101" width="23.0" height="15.0" fill="rgb(246,82,33)" rx="2" ry="2" />
<text  x="1122.45" y="111.5" >t..</text>
</g>
<g >
<title>torch/autograd/grad_mode.py(27):_decorate_context (9,048,341 us., 27.80%)</title><rect x="10.0" y="37" width="328.0" height="15.0" fill="rgb(209,175,24)" rx="2" ry="2" />
<text  x="13.00" y="47.5" >torch/autograd/grad_mode.py(27):_decorate_co..</text>
</g>
<g >
<title>nn.Module:_OPTForCausalLM (7,451 us., 0.02%)</title><rect x="1096.0" y="117" width="0.3" height="15.0" fill="rgb(250,155,21)" rx="2" ry="2" />
<text  x="1099.04" y="127.5" ></text>
</g>
<g >
<title>nn.Module:_OPTForCausalLM (834,117 us., 2.56%)</title><rect x="1142.6" y="117" width="30.2" height="15.0" fill="rgb(239,125,46)" rx="2" ry="2" />
<text  x="1145.58" y="127.5" >nn..</text>
</g>
<g >
<title>transformers/models/opt/modeling_opt.py(840):_forward (1,156,928 us., 3.55%)</title><rect x="941.2" y="117" width="42.0" height="15.0" fill="rgb(236,68,41)" rx="2" ry="2" />
<text  x="944.22" y="127.5" >tra..</text>
</g>
<g >
<title>transformers/models/opt/modeling_opt.py(840):_forward (1,118,160 us., 3.44%)</title><rect x="1037.9" y="117" width="40.5" height="15.0" fill="rgb(213,68,47)" rx="2" ry="2" />
<text  x="1040.87" y="127.5" >tra..</text>
</g>
<g >
<title>nn.Module:_OPTDecoderLayer (636,886 us., 1.96%)</title><rect x="1119.5" y="149" width="23.0" height="15.0" fill="rgb(249,61,8)" rx="2" ry="2" />
<text  x="1122.45" y="159.5" >n..</text>
</g>
<g >
<title>torch/autograd/grad_mode.py(27):_decorate_context (834,117 us., 2.56%)</title><rect x="1142.6" y="85" width="30.2" height="15.0" fill="rgb(208,112,35)" rx="2" ry="2" />
<text  x="1145.58" y="95.5" >to..</text>
</g>
<g >
<title>torch/autograd/grad_mode.py(27):_decorate_context (957,362 us., 2.94%)</title><rect x="983.9" y="53" width="34.7" height="15.0" fill="rgb(230,35,14)" rx="2" ry="2" />
<text  x="986.94" y="63.5" >to..</text>
</g>
<g >
<title>transformers/models/opt/modeling_opt.py(553):_forward (9,048,341 us., 27.80%)</title><rect x="10.0" y="117" width="328.0" height="15.0" fill="rgb(229,79,10)" rx="2" ry="2" />
<text  x="13.00" y="127.5" >transformers/models/opt/modeling_opt.py(553)..</text>
</g>
<g >
<title>transformers/models/opt/modeling_opt.py(160):_forward (957,362 us., 2.94%)</title><rect x="983.9" y="197" width="34.7" height="15.0" fill="rgb(234,224,38)" rx="2" ry="2" />
<text  x="986.94" y="207.5" >tr..</text>
</g>
<g >
<title>nn.Module:_OPTForCausalLM (8,249 us., 0.03%)</title><rect x="1078.4" y="149" width="0.3" height="15.0" fill="rgb(236,94,41)" rx="2" ry="2" />
<text  x="1081.41" y="159.5" ></text>
</g>
<g >
<title>nn.Module:_OPTDecoderLayer (530,002 us., 1.63%)</title><rect x="1018.7" y="149" width="19.2" height="15.0" fill="rgb(220,153,34)" rx="2" ry="2" />
<text  x="1021.66" y="159.5" ></text>
</g>
</g>
</svg>
