<?xml version="1.0" standalone="no"?>
<!DOCTYPE svg PUBLIC "-//W3C//DTD SVG 1.1//EN" "http://www.w3.org/Graphics/SVG/1.1/DTD/svg11.dtd">
<svg version="1.1" width="1200" height="294" onload="init(evt)" viewBox="0 0 1200 294" xmlns="http://www.w3.org/2000/svg" xmlns:xlink="http://www.w3.org/1999/xlink">
<!-- Flame graph stack visualization. See https://github.com/brendangregg/FlameGraph for latest version, and http://www.brendangregg.com/flamegraphs.html for examples. -->
<!-- NOTES:  -->
<defs>
	<linearGradient id="background" y1="0" y2="1" x1="0" x2="0" >
		<stop stop-color="#eeeeee" offset="5%" />
		<stop stop-color="#eeeeb0" offset="95%" />
	</linearGradient>
</defs>
<style type="text/css">
	text { font-family:Verdana; font-size:12px; fill:rgb(0,0,0); }
	#search, #ignorecase { opacity:0.1; cursor:pointer; }
	#search:hover, #search.show, #ignorecase:hover, #ignorecase.show { opacity:1; }
	#subtitle { text-anchor:middle; font-color:rgb(160,160,160); }
	#title { text-anchor:middle; font-size:17px}
	#unzoom { cursor:pointer; }
	#frames > *:hover { stroke:black; stroke-width:0.5; cursor:pointer; }
	.hide { display:none; }
	.parent { opacity:0.5; }
</style>
<script type="text/ecmascript">
<![CDATA[
	"use strict";
	var details, searchbtn, unzoombtn, matchedtxt, svg, searching, currentSearchTerm, ignorecase, ignorecaseBtn;
	function init(evt) {
		details = document.getElementById("details").firstChild;
		searchbtn = document.getElementById("search");
		ignorecaseBtn = document.getElementById("ignorecase");
		unzoombtn = document.getElementById("unzoom");
		matchedtxt = document.getElementById("matched");
		svg = document.getElementsByTagName("svg")[0];
		searching = 0;
		currentSearchTerm = null;

		// use GET parameters to restore a flamegraphs state.
		var params = get_params();
		if (params.x && params.y)
			zoom(find_group(document.querySelector('[x="' + params.x + '"][y="' + params.y + '"]')));
                if (params.s) search(params.s);
	}

	// event listeners
	window.addEventListener("click", function(e) {
		var target = find_group(e.target);
		if (target) {
			if (target.nodeName == "a") {
				if (e.ctrlKey === false) return;
				e.preventDefault();
			}
			if (target.classList.contains("parent")) unzoom(true);
			zoom(target);
			if (!document.querySelector('.parent')) {
				// we have basically done a clearzoom so clear the url
				var params = get_params();
				if (params.x) delete params.x;
				if (params.y) delete params.y;
				history.replaceState(null, null, parse_params(params));
				unzoombtn.classList.add("hide");
				return;
			}

			// set parameters for zoom state
			var el = target.querySelector("rect");
			if (el && el.attributes && el.attributes.y && el.attributes._orig_x) {
				var params = get_params()
				params.x = el.attributes._orig_x.value;
				params.y = el.attributes.y.value;
				history.replaceState(null, null, parse_params(params));
			}
		}
		else if (e.target.id == "unzoom") clearzoom();
		else if (e.target.id == "search") search_prompt();
		else if (e.target.id == "ignorecase") toggle_ignorecase();
	}, false)

	// mouse-over for info
	// show
	window.addEventListener("mouseover", function(e) {
		var target = find_group(e.target);
		if (target) details.nodeValue = "Function: " + g_to_text(target);
	}, false)

	// clear
	window.addEventListener("mouseout", function(e) {
		var target = find_group(e.target);
		if (target) details.nodeValue = ' ';
	}, false)

	// ctrl-F for search
	// ctrl-I to toggle case-sensitive search
	window.addEventListener("keydown",function (e) {
		if (e.keyCode === 114 || (e.ctrlKey && e.keyCode === 70)) {
			e.preventDefault();
			search_prompt();
		}
		else if (e.ctrlKey && e.keyCode === 73) {
			e.preventDefault();
			toggle_ignorecase();
		}
	}, false)

	// functions
	function get_params() {
		var params = {};
		var paramsarr = window.location.search.substr(1).split('&');
		for (var i = 0; i < paramsarr.length; ++i) {
			var tmp = paramsarr[i].split("=");
			if (!tmp[0] || !tmp[1]) continue;
			params[tmp[0]]  = decodeURIComponent(tmp[1]);
		}
		return params;
	}
	function parse_params(params) {
		var uri = "?";
		for (var key in params) {
			uri += key + '=' + encodeURIComponent(params[key]) + '&';
		}
		if (uri.slice(-1) == "&")
			uri = uri.substring(0, uri.length - 1);
		if (uri == '?')
			uri = window.location.href.split('?')[0];
		return uri;
	}
	function find_child(node, selector) {
		var children = node.querySelectorAll(selector);
		if (children.length) return children[0];
	}
	function find_group(node) {
		var parent = node.parentElement;
		if (!parent) return;
		if (parent.id == "frames") return node;
		return find_group(parent);
	}
	function orig_save(e, attr, val) {
		if (e.attributes["_orig_" + attr] != undefined) return;
		if (e.attributes[attr] == undefined) return;
		if (val == undefined) val = e.attributes[attr].value;
		e.setAttribute("_orig_" + attr, val);
	}
	function orig_load(e, attr) {
		if (e.attributes["_orig_"+attr] == undefined) return;
		e.attributes[attr].value = e.attributes["_orig_" + attr].value;
		e.removeAttribute("_orig_"+attr);
	}
	function g_to_text(e) {
		var text = find_child(e, "title").firstChild.nodeValue;
		return (text)
	}
	function g_to_func(e) {
		var func = g_to_text(e);
		// if there's any manipulation we want to do to the function
		// name before it's searched, do it here before returning.
		return (func);
	}
	function update_text(e) {
		var r = find_child(e, "rect");
		var t = find_child(e, "text");
		var w = parseFloat(r.attributes.width.value) -3;
		var txt = find_child(e, "title").textContent.replace(/\([^(]*\)$/,"");
		t.attributes.x.value = parseFloat(r.attributes.x.value) + 3;

		// Smaller than this size won't fit anything
		if (w < 2 * 12 * 0.59) {
			t.textContent = "";
			return;
		}

		t.textContent = txt;
		var sl = t.getSubStringLength(0, txt.length);
		// check if only whitespace or if we can fit the entire string into width w
		if (/^ *$/.test(txt) || sl < w)
			return;

		// this isn't perfect, but gives a good starting point
		// and avoids calling getSubStringLength too often
		var start = Math.floor((w/sl) * txt.length);
		for (var x = start; x > 0; x = x-2) {
			if (t.getSubStringLength(0, x + 2) <= w) {
				t.textContent = txt.substring(0, x) + "..";
				return;
			}
		}
		t.textContent = "";
	}

	// zoom
	function zoom_reset(e) {
		if (e.attributes != undefined) {
			orig_load(e, "x");
			orig_load(e, "width");
		}
		if (e.childNodes == undefined) return;
		for (var i = 0, c = e.childNodes; i < c.length; i++) {
			zoom_reset(c[i]);
		}
	}
	function zoom_child(e, x, ratio) {
		if (e.attributes != undefined) {
			if (e.attributes.x != undefined) {
				orig_save(e, "x");
				e.attributes.x.value = (parseFloat(e.attributes.x.value) - x - 10) * ratio + 10;
				if (e.tagName == "text")
					e.attributes.x.value = find_child(e.parentNode, "rect[x]").attributes.x.value + 3;
			}
			if (e.attributes.width != undefined) {
				orig_save(e, "width");
				e.attributes.width.value = parseFloat(e.attributes.width.value) * ratio;
			}
		}

		if (e.childNodes == undefined) return;
		for (var i = 0, c = e.childNodes; i < c.length; i++) {
			zoom_child(c[i], x - 10, ratio);
		}
	}
	function zoom_parent(e) {
		if (e.attributes) {
			if (e.attributes.x != undefined) {
				orig_save(e, "x");
				e.attributes.x.value = 10;
			}
			if (e.attributes.width != undefined) {
				orig_save(e, "width");
				e.attributes.width.value = parseInt(svg.width.baseVal.value) - (10 * 2);
			}
		}
		if (e.childNodes == undefined) return;
		for (var i = 0, c = e.childNodes; i < c.length; i++) {
			zoom_parent(c[i]);
		}
	}
	function zoom(node) {
		var attr = find_child(node, "rect").attributes;
		var width = parseFloat(attr.width.value);
		var xmin = parseFloat(attr.x.value);
		var xmax = parseFloat(xmin + width);
		var ymin = parseFloat(attr.y.value);
		var ratio = (svg.width.baseVal.value - 2 * 10) / width;

		// XXX: Workaround for JavaScript float issues (fix me)
		var fudge = 0.0001;

		unzoombtn.classList.remove("hide");

		var el = document.getElementById("frames").children;
		for (var i = 0; i < el.length; i++) {
			var e = el[i];
			var a = find_child(e, "rect").attributes;
			var ex = parseFloat(a.x.value);
			var ew = parseFloat(a.width.value);
			var upstack;
			// Is it an ancestor
			if (0 == 0) {
				upstack = parseFloat(a.y.value) > ymin;
			} else {
				upstack = parseFloat(a.y.value) < ymin;
			}
			if (upstack) {
				// Direct ancestor
				if (ex <= xmin && (ex+ew+fudge) >= xmax) {
					e.classList.add("parent");
					zoom_parent(e);
					update_text(e);
				}
				// not in current path
				else
					e.classList.add("hide");
			}
			// Children maybe
			else {
				// no common path
				if (ex < xmin || ex + fudge >= xmax) {
					e.classList.add("hide");
				}
				else {
					zoom_child(e, xmin, ratio);
					update_text(e);
				}
			}
		}
		search();
	}
	function unzoom(dont_update_text) {
		unzoombtn.classList.add("hide");
		var el = document.getElementById("frames").children;
		for(var i = 0; i < el.length; i++) {
			el[i].classList.remove("parent");
			el[i].classList.remove("hide");
			zoom_reset(el[i]);
			if(!dont_update_text) update_text(el[i]);
		}
		search();
	}
	function clearzoom() {
		unzoom();

		// remove zoom state
		var params = get_params();
		if (params.x) delete params.x;
		if (params.y) delete params.y;
		history.replaceState(null, null, parse_params(params));
	}

	// search
	function toggle_ignorecase() {
		ignorecase = !ignorecase;
		if (ignorecase) {
			ignorecaseBtn.classList.add("show");
		} else {
			ignorecaseBtn.classList.remove("show");
		}
		reset_search();
		search();
	}
	function reset_search() {
		var el = document.querySelectorAll("#frames rect");
		for (var i = 0; i < el.length; i++) {
			orig_load(el[i], "fill")
		}
		var params = get_params();
		delete params.s;
		history.replaceState(null, null, parse_params(params));
	}
	function search_prompt() {
		if (!searching) {
			var term = prompt("Enter a search term (regexp " +
			    "allowed, eg: ^ext4_)"
			    + (ignorecase ? ", ignoring case" : "")
			    + "\nPress Ctrl-i to toggle case sensitivity", "");
			if (term != null) search(term);
		} else {
			reset_search();
			searching = 0;
			currentSearchTerm = null;
			searchbtn.classList.remove("show");
			searchbtn.firstChild.nodeValue = "Search"
			matchedtxt.classList.add("hide");
			matchedtxt.firstChild.nodeValue = ""
		}
	}
	function search(term) {
		if (term) currentSearchTerm = term;

		var re = new RegExp(currentSearchTerm, ignorecase ? 'i' : '');
		var el = document.getElementById("frames").children;
		var matches = new Object();
		var maxwidth = 0;
		for (var i = 0; i < el.length; i++) {
			var e = el[i];
			var func = g_to_func(e);
			var rect = find_child(e, "rect");
			if (func == null || rect == null)
				continue;

			// Save max width. Only works as we have a root frame
			var w = parseFloat(rect.attributes.width.value);
			if (w > maxwidth)
				maxwidth = w;

			if (func.match(re)) {
				// highlight
				var x = parseFloat(rect.attributes.x.value);
				orig_save(rect, "fill");
				rect.attributes.fill.value = "rgb(230,0,230)";

				// remember matches
				if (matches[x] == undefined) {
					matches[x] = w;
				} else {
					if (w > matches[x]) {
						// overwrite with parent
						matches[x] = w;
					}
				}
				searching = 1;
			}
		}
		if (!searching)
			return;
		var params = get_params();
		params.s = currentSearchTerm;
		history.replaceState(null, null, parse_params(params));

		searchbtn.classList.add("show");
		searchbtn.firstChild.nodeValue = "Reset Search";

		// calculate percent matched, excluding vertical overlap
		var count = 0;
		var lastx = -1;
		var lastw = 0;
		var keys = Array();
		for (k in matches) {
			if (matches.hasOwnProperty(k))
				keys.push(k);
		}
		// sort the matched frames by their x location
		// ascending, then width descending
		keys.sort(function(a, b){
			return a - b;
		});
		// Step through frames saving only the biggest bottom-up frames
		// thanks to the sort order. This relies on the tree property
		// where children are always smaller than their parents.
		var fudge = 0.0001;	// JavaScript floating point
		for (var k in keys) {
			var x = parseFloat(keys[k]);
			var w = matches[keys[k]];
			if (x >= lastx + lastw - fudge) {
				count += w;
				lastx = x;
				lastw = w;
			}
		}
		// display matched percent
		matchedtxt.classList.remove("hide");
		var pct = 100 * count / maxwidth;
		if (pct != 100) pct = pct.toFixed(1)
		matchedtxt.firstChild.nodeValue = "Matched: " + pct + "%";
	}
]]>
</script>
<rect x="0.0" y="0" width="1200.0" height="294.0" fill="url(#background)"  />
<text id="title" x="600.00" y="24" >CUDA Time</text>
<text id="details" x="10.00" y="277" > </text>
<text id="unzoom" x="10.00" y="24" class="hide">Reset Zoom</text>
<text id="search" x="1090.00" y="24" >Search</text>
<text id="ignorecase" x="1174.00" y="24" >ic</text>
<text id="matched" x="1090.00" y="277" > </text>
<g id="frames">
<g >
<title>torch/autograd/grad_mode.py(27):_decorate_context (914,320 us., 3.09%)</title><rect x="972.5" y="69" width="36.5" height="15.0" fill="rgb(246,143,30)" rx="2" ry="2" />
<text  x="975.48" y="79.5" >tor..</text>
</g>
<g >
<title>transformers/models/opt/modeling_opt.py(840):_forward (887,284 us., 3.00%)</title><rect x="1057.4" y="117" width="35.4" height="15.0" fill="rgb(234,189,12)" rx="2" ry="2" />
<text  x="1060.38" y="127.5" >tra..</text>
</g>
<g >
<title>transformers/models/opt/modeling_opt.py(553):_forward (376,182 us., 1.27%)</title><rect x="1093.0" y="133" width="15.1" height="15.0" fill="rgb(242,151,17)" rx="2" ry="2" />
<text  x="1096.04" y="143.5" ></text>
</g>
<g >
<title>transformers/models/opt/modeling_opt.py(160):_forward (503,113 us., 1.70%)</title><rect x="1108.2" y="213" width="20.1" height="15.0" fill="rgb(236,228,26)" rx="2" ry="2" />
<text  x="1111.24" y="223.5" ></text>
</g>
<g >
<title>transformers/models/opt/modeling_opt.py(840):_forward (4,707 us., 0.02%)</title><rect x="1108.1" y="133" width="0.1" height="15.0" fill="rgb(253,17,3)" rx="2" ry="2" />
<text  x="1111.06" y="143.5" ></text>
</g>
<g >
<title>nn.Module:_OPTDecoderLayer (503,113 us., 1.70%)</title><rect x="1108.2" y="165" width="20.1" height="15.0" fill="rgb(216,44,35)" rx="2" ry="2" />
<text  x="1111.24" y="175.5" ></text>
</g>
<g >
<title>nn.Module:_OPTDecoder (914,320 us., 3.09%)</title><rect x="972.5" y="133" width="36.5" height="15.0" fill="rgb(209,16,22)" rx="2" ry="2" />
<text  x="975.48" y="143.5" >nn...</text>
</g>
<g >
<title>nn.Module:_OPTDecoder (503,113 us., 1.70%)</title><rect x="1108.2" y="133" width="20.1" height="15.0" fill="rgb(241,18,53)" rx="2" ry="2" />
<text  x="1111.24" y="143.5" ></text>
</g>
<g >
<title>nn.Module:_OPTForCausalLM (4,059 us., 0.01%)</title><rect x="1092.8" y="149" width="0.2" height="15.0" fill="rgb(241,178,17)" rx="2" ry="2" />
<text  x="1095.81" y="159.5" ></text>
</g>
<g >
<title>nn.Module:_LayerNorm (380,889 us., 1.29%)</title><rect x="1093.0" y="181" width="15.2" height="15.0" fill="rgb(205,18,19)" rx="2" ry="2" />
<text  x="1096.04" y="191.5" ></text>
</g>
<g >
<title>nn.Module:_OPTDecoderLayer (8,321,096 us., 28.15%)</title><rect x="10.0" y="133" width="332.2" height="15.0" fill="rgb(221,69,47)" rx="2" ry="2" />
<text  x="13.00" y="143.5" >nn.Module:_OPTDecoderLayer</text>
</g>
<g >
<title>nn.Module:_OPTForCausalLM (662,997 us., 2.24%)</title><rect x="1148.1" y="117" width="26.5" height="15.0" fill="rgb(208,150,21)" rx="2" ry="2" />
<text  x="1151.10" y="127.5" >n..</text>
</g>
<g >
<title>nn.Module:_OPTDecoder (887,284 us., 3.00%)</title><rect x="1057.4" y="133" width="35.4" height="15.0" fill="rgb(246,200,47)" rx="2" ry="2" />
<text  x="1060.38" y="143.5" >nn...</text>
</g>
<g >
<title>nn.Module:_OPTForCausalLM (376,182 us., 1.27%)</title><rect x="1093.0" y="85" width="15.1" height="15.0" fill="rgb(225,160,6)" rx="2" ry="2" />
<text  x="1096.04" y="95.5" ></text>
</g>
<g >
<title>nn.Module:_OPTDecoderLayer (662,997 us., 2.24%)</title><rect x="1148.1" y="181" width="26.5" height="15.0" fill="rgb(251,115,33)" rx="2" ry="2" />
<text  x="1151.10" y="191.5" >n..</text>
</g>
<g >
<title>transformers/models/opt/modeling_opt.py(298):_forward (441,341 us., 1.49%)</title><rect x="1039.8" y="165" width="17.6" height="15.0" fill="rgb(249,63,46)" rx="2" ry="2" />
<text  x="1042.77" y="175.5" ></text>
</g>
<g >
<title>nn.Module:_ReLU (494,263 us., 1.67%)</title><rect x="1128.3" y="181" width="19.8" height="15.0" fill="rgb(244,187,30)" rx="2" ry="2" />
<text  x="1131.34" y="191.5" ></text>
</g>
<g >
<title>nn.Module:_OPTForCausalLM (446,777 us., 1.51%)</title><rect x="954.6" y="165" width="17.9" height="15.0" fill="rgb(228,82,33)" rx="2" ry="2" />
<text  x="957.64" y="175.5" ></text>
</g>
<g >
<title>nn.Module:_Linear (24,109,532 us., 81.57%)</title><rect x="10.0" y="197" width="962.5" height="15.0" fill="rgb(237,139,49)" rx="2" ry="2" />
<text  x="13.00" y="207.5" >nn.Module:_Linear</text>
</g>
<g >
<title>transformers/models/opt/modeling_opt.py(553):_forward (8,321,096 us., 28.15%)</title><rect x="10.0" y="117" width="332.2" height="15.0" fill="rgb(223,16,32)" rx="2" ry="2" />
<text  x="13.00" y="127.5" >transformers/models/opt/modeling_opt.py(553)..</text>
</g>
<g >
<title>torch/autograd/grad_mode.py(27):_decorate_context (503,113 us., 1.70%)</title><rect x="1108.2" y="69" width="20.1" height="15.0" fill="rgb(242,24,50)" rx="2" ry="2" />
<text  x="1111.24" y="79.5" ></text>
</g>
<g >
<title>nn.Module:_OPTDecoderLayer (494,263 us., 1.67%)</title><rect x="1128.3" y="149" width="19.8" height="15.0" fill="rgb(217,67,29)" rx="2" ry="2" />
<text  x="1131.34" y="159.5" ></text>
</g>
<g >
<title>transformers/models/opt/modeling_opt.py(840):_forward (381,209 us., 1.29%)</title><rect x="1174.6" y="165" width="15.2" height="15.0" fill="rgb(251,124,7)" rx="2" ry="2" />
<text  x="1177.57" y="175.5" ></text>
</g>
<g >
<title>nn.Module:_OPTAttention (8,321,096 us., 28.15%)</title><rect x="10.0" y="165" width="332.2" height="15.0" fill="rgb(254,217,43)" rx="2" ry="2" />
<text  x="13.00" y="175.5" >nn.Module:_OPTAttention</text>
</g>
<g >
<title>transformers/models/opt/modeling_opt.py(553):_forward (4,707 us., 0.02%)</title><rect x="1108.1" y="165" width="0.1" height="15.0" fill="rgb(206,122,38)" rx="2" ry="2" />
<text  x="1111.06" y="175.5" ></text>
</g>
<g >
<title>nn.Module:_Embedding (6,259 us., 0.02%)</title><rect x="1009.1" y="181" width="0.2" height="15.0" fill="rgb(249,132,24)" rx="2" ry="2" />
<text  x="1012.06" y="191.5" ></text>
</g>
<g >
<title>nn.Module:_OPTAttention (914,320 us., 3.09%)</title><rect x="972.5" y="197" width="36.5" height="15.0" fill="rgb(224,31,12)" rx="2" ry="2" />
<text  x="975.48" y="207.5" >nn...</text>
</g>
<g >
<title>transformers/models/opt/modeling_opt.py(553):_forward (662,997 us., 2.24%)</title><rect x="1148.1" y="165" width="26.5" height="15.0" fill="rgb(226,18,21)" rx="2" ry="2" />
<text  x="1151.10" y="175.5" >t..</text>
</g>
<g >
<title>transformers/models/opt/modeling_opt.py(553):_forward (4,059 us., 0.01%)</title><rect x="1092.8" y="197" width="0.2" height="15.0" fill="rgb(206,14,3)" rx="2" ry="2" />
<text  x="1095.81" y="207.5" ></text>
</g>
<g >
<title>torch/autograd/grad_mode.py(27):_decorate_context (4,059 us., 0.01%)</title><rect x="1092.8" y="117" width="0.2" height="15.0" fill="rgb(222,205,27)" rx="2" ry="2" />
<text  x="1095.81" y="127.5" ></text>
</g>
<g >
<title>torch/autograd/grad_mode.py(27):_decorate_context (441,341 us., 1.49%)</title><rect x="1039.8" y="53" width="17.6" height="15.0" fill="rgb(248,212,27)" rx="2" ry="2" />
<text  x="1042.77" y="63.5" ></text>
</g>
<g >
<title>nn.Module:_OPTAttention (503,113 us., 1.70%)</title><rect x="1108.2" y="197" width="20.1" height="15.0" fill="rgb(252,162,19)" rx="2" ry="2" />
<text  x="1111.24" y="207.5" ></text>
</g>
<g >
<title>nn.Module:_OPTDecoder (4,707 us., 0.02%)</title><rect x="1108.1" y="149" width="0.1" height="15.0" fill="rgb(236,199,31)" rx="2" ry="2" />
<text  x="1111.06" y="159.5" ></text>
</g>
<g >
<title>nn.Module:_OPTDecoder (15,341,659 us., 51.90%)</title><rect x="342.2" y="133" width="612.4" height="15.0" fill="rgb(241,11,44)" rx="2" ry="2" />
<text  x="345.19" y="143.5" >nn.Module:_OPTDecoder</text>
</g>
<g >
<title>torch/autograd/grad_mode.py(27):_decorate_context (6,259 us., 0.02%)</title><rect x="1009.1" y="85" width="0.2" height="15.0" fill="rgb(249,125,26)" rx="2" ry="2" />
<text  x="1012.06" y="95.5" ></text>
</g>
<g >
<title>nn.Module:_OPTDecoderLayer (914,320 us., 3.09%)</title><rect x="972.5" y="165" width="36.5" height="15.0" fill="rgb(248,92,48)" rx="2" ry="2" />
<text  x="975.48" y="175.5" >nn...</text>
</g>
<g >
<title>transformers/models/opt/modeling_opt.py(160):_forward (756,481 us., 2.56%)</title><rect x="1009.5" y="197" width="30.2" height="15.0" fill="rgb(226,155,17)" rx="2" ry="2" />
<text  x="1012.55" y="207.5" >tr..</text>
</g>
<g >
<title>transformers/models/opt/modeling_opt.py(160):_forward (8,321,096 us., 28.15%)</title><rect x="10.0" y="181" width="332.2" height="15.0" fill="rgb(243,44,20)" rx="2" ry="2" />
<text  x="13.00" y="191.5" >transformers/models/opt/modeling_opt.py(160)..</text>
</g>
<g >
<title>transformers/models/opt/modeling_opt.py(553):_forward (914,320 us., 3.09%)</title><rect x="972.5" y="149" width="36.5" height="15.0" fill="rgb(247,123,1)" rx="2" ry="2" />
<text  x="975.48" y="159.5" >tra..</text>
</g>
<g >
<title>nn.Module:_OPTForCausalLM (756,481 us., 2.56%)</title><rect x="1009.5" y="85" width="30.2" height="15.0" fill="rgb(235,61,0)" rx="2" ry="2" />
<text  x="1012.55" y="95.5" >nn..</text>
</g>
<g >
<title>transformers/models/opt/modeling_opt.py(840):_forward (494,263 us., 1.67%)</title><rect x="1128.3" y="101" width="19.8" height="15.0" fill="rgb(226,126,47)" rx="2" ry="2" />
<text  x="1131.34" y="111.5" ></text>
</g>
<g >
<title>nn.Module:_OPTDecoder (6,259 us., 0.02%)</title><rect x="1009.1" y="149" width="0.2" height="15.0" fill="rgb(234,166,11)" rx="2" ry="2" />
<text  x="1012.06" y="159.5" ></text>
</g>
<g >
<title>transformers/models/opt/modeling_opt.py(298):_forward (494,263 us., 1.67%)</title><rect x="1128.3" y="165" width="19.8" height="15.0" fill="rgb(208,145,15)" rx="2" ry="2" />
<text  x="1131.34" y="175.5" ></text>
</g>
<g >
<title>transformers/models/opt/modeling_opt.py(298):_forward (914,320 us., 3.09%)</title><rect x="972.5" y="181" width="36.5" height="15.0" fill="rgb(245,219,52)" rx="2" ry="2" />
<text  x="975.48" y="191.5" >tra..</text>
</g>
<g >
<title>nn.Module:_OPTDecoderLayer (376,182 us., 1.27%)</title><rect x="1093.0" y="149" width="15.1" height="15.0" fill="rgb(226,10,31)" rx="2" ry="2" />
<text  x="1096.04" y="159.5" ></text>
</g>
<g >
<title>transformers/models/opt/modeling_opt.py(298):_forward (662,997 us., 2.24%)</title><rect x="1148.1" y="197" width="26.5" height="15.0" fill="rgb(253,79,16)" rx="2" ry="2" />
<text  x="1151.10" y="207.5" >t..</text>
</g>
<g >
<title>transformers/models/opt/modeling_opt.py(840):_forward (756,481 us., 2.56%)</title><rect x="1009.5" y="101" width="30.2" height="15.0" fill="rgb(247,77,52)" rx="2" ry="2" />
<text  x="1012.55" y="111.5" >tr..</text>
</g>
<g >
<title>transformers/models/opt/modeling_opt.py(553):_forward (4,839 us., 0.02%)</title><rect x="1189.8" y="229" width="0.2" height="15.0" fill="rgb(243,183,7)" rx="2" ry="2" />
<text  x="1192.81" y="239.5" ></text>
</g>
<g >
<title>nn.Module:_OPTDecoder (4,839 us., 0.02%)</title><rect x="1189.8" y="213" width="0.2" height="15.0" fill="rgb(240,213,30)" rx="2" ry="2" />
<text  x="1192.81" y="223.5" ></text>
</g>
<g >
<title>transformers/models/opt/modeling_opt.py(840):_forward (662,997 us., 2.24%)</title><rect x="1148.1" y="133" width="26.5" height="15.0" fill="rgb(220,98,7)" rx="2" ry="2" />
<text  x="1151.10" y="143.5" >t..</text>
</g>
<g >
<title>profiling/utils.py(18):_profile_model (15,341,659 us., 51.90%)</title><rect x="342.2" y="85" width="612.4" height="15.0" fill="rgb(234,143,8)" rx="2" ry="2" />
<text  x="345.19" y="95.5" >profiling/utils.py(18):_profile_model</text>
</g>
<g >
<title>nn.Module:_OPTForCausalLM (494,263 us., 1.67%)</title><rect x="1128.3" y="85" width="19.8" height="15.0" fill="rgb(252,178,49)" rx="2" ry="2" />
<text  x="1131.34" y="95.5" ></text>
</g>
<g >
<title>torch/autograd/grad_mode.py(27):_decorate_context (8,321,096 us., 28.15%)</title><rect x="10.0" y="37" width="332.2" height="15.0" fill="rgb(226,161,28)" rx="2" ry="2" />
<text  x="13.00" y="47.5" >torch/autograd/grad_mode.py(27):_decorate_co..</text>
</g>
<g >
<title>transformers/models/opt/modeling_opt.py(840):_forward (376,182 us., 1.27%)</title><rect x="1093.0" y="101" width="15.1" height="15.0" fill="rgb(205,149,0)" rx="2" ry="2" />
<text  x="1096.04" y="111.5" ></text>
</g>
<g >
<title>nn.Module:_OPTDecoderLayer (381,209 us., 1.29%)</title><rect x="1174.6" y="213" width="15.2" height="15.0" fill="rgb(221,102,25)" rx="2" ry="2" />
<text  x="1177.57" y="223.5" ></text>
</g>
<g >
<title>torch/nn/functional.py(1446):_relu (494,263 us., 1.67%)</title><rect x="1128.3" y="213" width="19.8" height="15.0" fill="rgb(224,157,42)" rx="2" ry="2" />
<text  x="1131.34" y="223.5" ></text>
</g>
<g >
<title>torch/nn/modules/activation.py(97):_forward (494,263 us., 1.67%)</title><rect x="1128.3" y="197" width="19.8" height="15.0" fill="rgb(229,144,50)" rx="2" ry="2" />
<text  x="1131.34" y="207.5" ></text>
</g>
<g >
<title>transformers/models/opt/modeling_opt.py(160):_forward (914,320 us., 3.09%)</title><rect x="972.5" y="213" width="36.5" height="15.0" fill="rgb(215,208,6)" rx="2" ry="2" />
<text  x="975.48" y="223.5" >tra..</text>
</g>
<g >
<title>profiling/utils.py(18):_profile_model (6,107 us., 0.02%)</title><rect x="1009.3" y="85" width="0.2" height="15.0" fill="rgb(253,212,21)" rx="2" ry="2" />
<text  x="1012.31" y="95.5" ></text>
</g>
<g >
<title>nn.Module:_OPTAttention (756,481 us., 2.56%)</title><rect x="1009.5" y="181" width="30.2" height="15.0" fill="rgb(224,208,52)" rx="2" ry="2" />
<text  x="1012.55" y="191.5" >nn..</text>
</g>
<g >
<title>transformers/models/opt/modeling_opt.py(840):_forward (441,341 us., 1.49%)</title><rect x="1039.8" y="101" width="17.6" height="15.0" fill="rgb(239,52,26)" rx="2" ry="2" />
<text  x="1042.77" y="111.5" ></text>
</g>
<g >
<title>transformers/models/opt/modeling_opt.py(553):_forward (503,113 us., 1.70%)</title><rect x="1108.2" y="149" width="20.1" height="15.0" fill="rgb(240,224,51)" rx="2" ry="2" />
<text  x="1111.24" y="159.5" ></text>
</g>
<g >
<title>torch/autograd/grad_mode.py(27):_decorate_context (376,182 us., 1.27%)</title><rect x="1093.0" y="53" width="15.1" height="15.0" fill="rgb(243,228,54)" rx="2" ry="2" />
<text  x="1096.04" y="63.5" ></text>
</g>
<g >
<title>torch/nn/modules/sparse.py(157):_forward (12,366 us., 0.04%)</title><rect x="1009.1" y="197" width="0.4" height="15.0" fill="rgb(212,142,38)" rx="2" ry="2" />
<text  x="1012.06" y="207.5" ></text>
</g>
<g >
<title>transformers/models/opt/modeling_opt.py(840):_forward (4,839 us., 0.02%)</title><rect x="1189.8" y="197" width="0.2" height="15.0" fill="rgb(205,99,35)" rx="2" ry="2" />
<text  x="1192.81" y="207.5" ></text>
</g>
<g >
<title>transformers/models/opt/modeling_opt.py(840):_forward (8,321,096 us., 28.15%)</title><rect x="10.0" y="85" width="332.2" height="15.0" fill="rgb(223,93,42)" rx="2" ry="2" />
<text  x="13.00" y="95.5" >transformers/models/opt/modeling_opt.py(840)..</text>
</g>
<g >
<title>torch/autograd/grad_mode.py(27):_decorate_context (4,707 us., 0.02%)</title><rect x="1108.1" y="85" width="0.1" height="15.0" fill="rgb(224,224,38)" rx="2" ry="2" />
<text  x="1111.06" y="95.5" ></text>
</g>
<g >
<title>nn.Module:_OPTDecoder (6,107 us., 0.02%)</title><rect x="1009.3" y="133" width="0.2" height="15.0" fill="rgb(222,10,53)" rx="2" ry="2" />
<text  x="1012.31" y="143.5" ></text>
</g>
<g >
<title>&lt;built-in_method_bmm_of_type_object_at_0x7f66740a09c0&gt; (914,320 us., 3.09%)</title><rect x="972.5" y="229" width="36.5" height="15.0" fill="rgb(230,21,2)" rx="2" ry="2" />
<text  x="975.48" y="239.5" >&lt;bu..</text>
</g>
<g >
<title>nn.Module:_OPTForCausalLM (6,259 us., 0.02%)</title><rect x="1009.1" y="117" width="0.2" height="15.0" fill="rgb(227,66,36)" rx="2" ry="2" />
<text  x="1012.06" y="127.5" ></text>
</g>
<g >
<title>torch/autograd/grad_mode.py(27):_decorate_context (381,209 us., 1.29%)</title><rect x="1174.6" y="117" width="15.2" height="15.0" fill="rgb(215,123,15)" rx="2" ry="2" />
<text  x="1177.57" y="127.5" ></text>
</g>
<g >
<title>nn.Module:_OPTDecoder (376,182 us., 1.27%)</title><rect x="1093.0" y="117" width="15.1" height="15.0" fill="rgb(207,134,12)" rx="2" ry="2" />
<text  x="1096.04" y="127.5" ></text>
</g>
<g >
<title>transformers/models/opt/modeling_opt.py(298):_forward (376,182 us., 1.27%)</title><rect x="1093.0" y="165" width="15.1" height="15.0" fill="rgb(232,208,11)" rx="2" ry="2" />
<text  x="1096.04" y="175.5" ></text>
</g>
<g >
<title>nn.Module:_OPTDecoderLayer (441,341 us., 1.49%)</title><rect x="1039.8" y="149" width="17.6" height="15.0" fill="rgb(241,95,19)" rx="2" ry="2" />
<text  x="1042.77" y="159.5" ></text>
</g>
<g >
<title>transformers/models/opt/modeling_opt.py(298):_forward (8,321,096 us., 28.15%)</title><rect x="10.0" y="149" width="332.2" height="15.0" fill="rgb(245,157,36)" rx="2" ry="2" />
<text  x="13.00" y="159.5" >transformers/models/opt/modeling_opt.py(298)..</text>
</g>
<g >
<title>transformers/models/opt/modeling_opt.py(553):_forward (15,341,659 us., 51.90%)</title><rect x="342.2" y="149" width="612.4" height="15.0" fill="rgb(226,109,11)" rx="2" ry="2" />
<text  x="345.19" y="159.5" >transformers/models/opt/modeling_opt.py(553):_forward</text>
</g>
<g >
<title>transformers/models/opt/modeling_opt.py(840):_forward (914,320 us., 3.09%)</title><rect x="972.5" y="117" width="36.5" height="15.0" fill="rgb(246,128,39)" rx="2" ry="2" />
<text  x="975.48" y="127.5" >tra..</text>
</g>
<g >
<title>profiling/utils.py(18):_profile_model (446,777 us., 1.51%)</title><rect x="954.6" y="149" width="17.9" height="15.0" fill="rgb(211,144,30)" rx="2" ry="2" />
<text  x="957.64" y="159.5" ></text>
</g>
<g >
<title>transformers/models/opt/modeling_opt.py(840):_forward (15,341,659 us., 51.90%)</title><rect x="342.2" y="117" width="612.4" height="15.0" fill="rgb(227,128,20)" rx="2" ry="2" />
<text  x="345.19" y="127.5" >transformers/models/opt/modeling_opt.py(840):_forward</text>
</g>
<g >
<title>transformers/models/opt/modeling_opt.py(160):_forward (662,997 us., 2.24%)</title><rect x="1148.1" y="229" width="26.5" height="15.0" fill="rgb(229,223,1)" rx="2" ry="2" />
<text  x="1151.10" y="239.5" >t..</text>
</g>
<g >
<title>nn.Module:_OPTForCausalLM (4,839 us., 0.02%)</title><rect x="1189.8" y="181" width="0.2" height="15.0" fill="rgb(217,99,15)" rx="2" ry="2" />
<text  x="1192.81" y="191.5" ></text>
</g>
<g >
<title>nn.Module:_OPTDecoderLayer (15,341,659 us., 51.90%)</title><rect x="342.2" y="165" width="612.4" height="15.0" fill="rgb(254,70,25)" rx="2" ry="2" />
<text  x="345.19" y="175.5" >nn.Module:_OPTDecoderLayer</text>
</g>
<g >
<title>&lt;built-in_method_encode_of_str_object_at_0x7f657fb964b0&gt; (2,091,361 us., 7.08%)</title><rect x="1009.5" y="229" width="83.5" height="15.0" fill="rgb(234,46,42)" rx="2" ry="2" />
<text  x="1012.55" y="239.5" >&lt;built-in..</text>
</g>
<g >
<title>transformers/models/opt/modeling_opt.py(533):__prepare_decoder_attention_mask (4,059 us., 0.01%)</title><rect x="1092.8" y="213" width="0.2" height="15.0" fill="rgb(229,206,8)" rx="2" ry="2" />
<text  x="1095.81" y="223.5" ></text>
</g>
<g >
<title>nn.Module:_OPTAttention (441,341 us., 1.49%)</title><rect x="1039.8" y="181" width="17.6" height="15.0" fill="rgb(218,58,53)" rx="2" ry="2" />
<text  x="1042.77" y="191.5" ></text>
</g>
<g >
<title>profiling/utils.py(18):_profile_model (914,320 us., 3.09%)</title><rect x="972.5" y="85" width="36.5" height="15.0" fill="rgb(209,172,10)" rx="2" ry="2" />
<text  x="975.48" y="95.5" >pro..</text>
</g>
<g >
<title>transformers/models/opt/modeling_opt.py(553):_forward (6,107 us., 0.02%)</title><rect x="1009.3" y="149" width="0.2" height="15.0" fill="rgb(252,169,6)" rx="2" ry="2" />
<text  x="1012.31" y="159.5" ></text>
</g>
<g >
<title>&lt;built-in_method_max_of_type_object_at_0x7f66740a09c0&gt; (503,113 us., 1.70%)</title><rect x="1108.2" y="229" width="20.1" height="15.0" fill="rgb(235,71,19)" rx="2" ry="2" />
<text  x="1111.24" y="239.5" ></text>
</g>
<g >
<title>torch/autograd/grad_mode.py(27):_decorate_context (494,263 us., 1.67%)</title><rect x="1128.3" y="53" width="19.8" height="15.0" fill="rgb(218,179,35)" rx="2" ry="2" />
<text  x="1131.34" y="63.5" ></text>
</g>
<g >
<title>nn.Module:_OPTDecoder (381,209 us., 1.29%)</title><rect x="1174.6" y="181" width="15.2" height="15.0" fill="rgb(222,171,20)" rx="2" ry="2" />
<text  x="1177.57" y="191.5" ></text>
</g>
<g >
<title>profiling/utils.py(18):_profile_model (376,182 us., 1.27%)</title><rect x="1093.0" y="69" width="15.1" height="15.0" fill="rgb(207,157,30)" rx="2" ry="2" />
<text  x="1096.04" y="79.5" ></text>
</g>
<g >
<title>profiling/utils.py(18):_profile_model (662,997 us., 2.24%)</title><rect x="1148.1" y="101" width="26.5" height="15.0" fill="rgb(210,78,39)" rx="2" ry="2" />
<text  x="1151.10" y="111.5" >p..</text>
</g>
<g >
<title>torch/autograd/grad_mode.py(27):_decorate_context (4,839 us., 0.02%)</title><rect x="1189.8" y="149" width="0.2" height="15.0" fill="rgb(214,101,1)" rx="2" ry="2" />
<text  x="1192.81" y="159.5" ></text>
</g>
<g >
<title>nn.Module:_OPTLearnedPositionalEmbedding (6,107 us., 0.02%)</title><rect x="1009.3" y="165" width="0.2" height="15.0" fill="rgb(247,200,6)" rx="2" ry="2" />
<text  x="1012.31" y="175.5" ></text>
</g>
<g >
<title>profiling/utils.py(18):_profile_model (441,341 us., 1.49%)</title><rect x="1039.8" y="69" width="17.6" height="15.0" fill="rgb(216,79,50)" rx="2" ry="2" />
<text  x="1042.77" y="79.5" ></text>
</g>
<g >
<title>nn.Module:_OPTForCausalLM (441,341 us., 1.49%)</title><rect x="1039.8" y="85" width="17.6" height="15.0" fill="rgb(235,134,34)" rx="2" ry="2" />
<text  x="1042.77" y="95.5" ></text>
</g>
<g >
<title>&lt;built-in_method_layer_norm_of_type_object_at_0x7f66740a09c0&gt; (380,889 us., 1.29%)</title><rect x="1093.0" y="229" width="15.2" height="15.0" fill="rgb(214,28,39)" rx="2" ry="2" />
<text  x="1096.04" y="239.5" ></text>
</g>
<g >
<title>transformers/models/opt/modeling_opt.py(553):_forward (756,481 us., 2.56%)</title><rect x="1009.5" y="133" width="30.2" height="15.0" fill="rgb(217,4,34)" rx="2" ry="2" />
<text  x="1012.55" y="143.5" >tr..</text>
</g>
<g >
<title>nn.Module:_OPTForCausalLM (503,113 us., 1.70%)</title><rect x="1108.2" y="101" width="20.1" height="15.0" fill="rgb(228,195,14)" rx="2" ry="2" />
<text  x="1111.24" y="111.5" ></text>
</g>
<g >
<title>profiling/utils.py(18):_profile_model (381,209 us., 1.29%)</title><rect x="1174.6" y="133" width="15.2" height="15.0" fill="rgb(212,219,19)" rx="2" ry="2" />
<text  x="1177.57" y="143.5" ></text>
</g>
<g >
<title>torch/nn/functional.py(2488):_layer_norm (380,889 us., 1.29%)</title><rect x="1093.0" y="213" width="15.2" height="15.0" fill="rgb(218,31,22)" rx="2" ry="2" />
<text  x="1096.04" y="223.5" ></text>
</g>
<g >
<title>nn.Module:_OPTForCausalLM (381,209 us., 1.29%)</title><rect x="1174.6" y="149" width="15.2" height="15.0" fill="rgb(228,224,11)" rx="2" ry="2" />
<text  x="1177.57" y="159.5" ></text>
</g>
<g >
<title>nn.Module:_OPTForCausalLM (8,321,096 us., 28.15%)</title><rect x="10.0" y="69" width="332.2" height="15.0" fill="rgb(227,62,32)" rx="2" ry="2" />
<text  x="13.00" y="79.5" >nn.Module:_OPTForCausalLM</text>
</g>
<g >
<title>torch/autograd/grad_mode.py(27):_decorate_context (756,481 us., 2.56%)</title><rect x="1009.5" y="53" width="30.2" height="15.0" fill="rgb(250,208,14)" rx="2" ry="2" />
<text  x="1012.55" y="63.5" >to..</text>
</g>
<g >
<title>nn.Module:_OPTDecoder (662,997 us., 2.24%)</title><rect x="1148.1" y="149" width="26.5" height="15.0" fill="rgb(205,34,38)" rx="2" ry="2" />
<text  x="1151.10" y="159.5" >n..</text>
</g>
<g >
<title>transformers/models/opt/modeling_opt.py(553):_forward (441,341 us., 1.49%)</title><rect x="1039.8" y="133" width="17.6" height="15.0" fill="rgb(227,142,36)" rx="2" ry="2" />
<text  x="1042.77" y="143.5" ></text>
</g>
<g >
<title>torch/nn/functional.py(2099):_embedding (12,366 us., 0.04%)</title><rect x="1009.1" y="213" width="0.4" height="15.0" fill="rgb(230,221,45)" rx="2" ry="2" />
<text  x="1012.06" y="223.5" ></text>
</g>
<g >
<title>torch/autograd/grad_mode.py(27):_decorate_context (662,997 us., 2.24%)</title><rect x="1148.1" y="85" width="26.5" height="15.0" fill="rgb(207,185,36)" rx="2" ry="2" />
<text  x="1151.10" y="95.5" >t..</text>
</g>
<g >
<title>transformers/models/opt/modeling_opt.py(298):_forward (503,113 us., 1.70%)</title><rect x="1108.2" y="181" width="20.1" height="15.0" fill="rgb(226,53,10)" rx="2" ry="2" />
<text  x="1111.24" y="191.5" ></text>
</g>
<g >
<title>transformers/models/opt/modeling_opt.py(840):_forward (4,059 us., 0.01%)</title><rect x="1092.8" y="165" width="0.2" height="15.0" fill="rgb(232,113,13)" rx="2" ry="2" />
<text  x="1095.81" y="175.5" ></text>
</g>
<g >
<title>profiling/utils.py(18):_profile_model (4,707 us., 0.02%)</title><rect x="1108.1" y="101" width="0.1" height="15.0" fill="rgb(226,165,40)" rx="2" ry="2" />
<text  x="1111.06" y="111.5" ></text>
</g>
<g >
<title>transformers/models/opt/modeling_opt.py(553):_forward (6,259 us., 0.02%)</title><rect x="1009.1" y="165" width="0.2" height="15.0" fill="rgb(229,128,38)" rx="2" ry="2" />
<text  x="1012.06" y="175.5" ></text>
</g>
<g >
<title>transformers/models/opt/modeling_opt.py(160):_forward (887,284 us., 3.00%)</title><rect x="1057.4" y="213" width="35.4" height="15.0" fill="rgb(247,39,34)" rx="2" ry="2" />
<text  x="1060.38" y="223.5" >tra..</text>
</g>
<g >
<title>transformers/models/opt/modeling_opt.py(298):_forward (887,284 us., 3.00%)</title><rect x="1057.4" y="181" width="35.4" height="15.0" fill="rgb(251,27,29)" rx="2" ry="2" />
<text  x="1060.38" y="191.5" >tra..</text>
</g>
<g >
<title>profiling/utils.py(18):_profile_model (4,059 us., 0.01%)</title><rect x="1092.8" y="133" width="0.2" height="15.0" fill="rgb(207,229,52)" rx="2" ry="2" />
<text  x="1095.81" y="143.5" ></text>
</g>
<g >
<title>transformers/models/opt/modeling_opt.py(840):_forward (503,113 us., 1.70%)</title><rect x="1108.2" y="117" width="20.1" height="15.0" fill="rgb(215,36,28)" rx="2" ry="2" />
<text  x="1111.24" y="127.5" ></text>
</g>
<g >
<title>all (29,558,344 us., 100%)</title><rect x="10.0" y="245" width="1180.0" height="15.0" fill="rgb(242,44,7)" rx="2" ry="2" />
<text  x="13.00" y="255.5" ></text>
</g>
<g >
<title>profiling/utils.py(18):_profile_model (503,113 us., 1.70%)</title><rect x="1108.2" y="85" width="20.1" height="15.0" fill="rgb(250,103,33)" rx="2" ry="2" />
<text  x="1111.24" y="95.5" ></text>
</g>
<g >
<title>transformers/models/opt/modeling_opt.py(553):_forward (887,284 us., 3.00%)</title><rect x="1057.4" y="149" width="35.4" height="15.0" fill="rgb(229,154,42)" rx="2" ry="2" />
<text  x="1060.38" y="159.5" >tra..</text>
</g>
<g >
<title>nn.Module:_OPTAttention (662,997 us., 2.24%)</title><rect x="1148.1" y="213" width="26.5" height="15.0" fill="rgb(245,206,42)" rx="2" ry="2" />
<text  x="1151.10" y="223.5" >n..</text>
</g>
<g >
<title>nn.Module:_OPTForCausalLM (887,284 us., 3.00%)</title><rect x="1057.4" y="101" width="35.4" height="15.0" fill="rgb(219,81,42)" rx="2" ry="2" />
<text  x="1060.38" y="111.5" >nn...</text>
</g>
<g >
<title>profiling/utils.py(18):_profile_model (756,481 us., 2.56%)</title><rect x="1009.5" y="69" width="30.2" height="15.0" fill="rgb(205,142,46)" rx="2" ry="2" />
<text  x="1012.55" y="79.5" >pr..</text>
</g>
<g >
<title>nn.Module:_OPTForCausalLM (4,707 us., 0.02%)</title><rect x="1108.1" y="117" width="0.1" height="15.0" fill="rgb(244,109,45)" rx="2" ry="2" />
<text  x="1111.06" y="127.5" ></text>
</g>
<g >
<title>torch/nn/functional.py(1804):_softmax (756,481 us., 2.56%)</title><rect x="1009.5" y="213" width="30.2" height="15.0" fill="rgb(250,136,27)" rx="2" ry="2" />
<text  x="1012.55" y="223.5" >to..</text>
</g>
<g >
<title>profiling/utils.py(18):_profile_model (494,263 us., 1.67%)</title><rect x="1128.3" y="69" width="19.8" height="15.0" fill="rgb(231,93,23)" rx="2" ry="2" />
<text  x="1131.34" y="79.5" ></text>
</g>
<g >
<title>&lt;built-in_method_embedding_of_type_object_at_0x7f66740a09c0&gt; (12,366 us., 0.04%)</title><rect x="1009.1" y="229" width="0.4" height="15.0" fill="rgb(207,166,3)" rx="2" ry="2" />
<text  x="1012.06" y="239.5" ></text>
</g>
<g >
<title>nn.Module:_OPTAttention (887,284 us., 3.00%)</title><rect x="1057.4" y="197" width="35.4" height="15.0" fill="rgb(240,199,35)" rx="2" ry="2" />
<text  x="1060.38" y="207.5" >nn...</text>
</g>
<g >
<title>nn.Module:_OPTDecoderLayer (887,284 us., 3.00%)</title><rect x="1057.4" y="165" width="35.4" height="15.0" fill="rgb(233,137,48)" rx="2" ry="2" />
<text  x="1060.38" y="175.5" >nn...</text>
</g>
<g >
<title>torch/autograd/grad_mode.py(27):_decorate_context (15,341,659 us., 51.90%)</title><rect x="342.2" y="69" width="612.4" height="15.0" fill="rgb(242,198,27)" rx="2" ry="2" />
<text  x="345.19" y="79.5" >torch/autograd/grad_mode.py(27):_decorate_context</text>
</g>
<g >
<title>profiling/utils.py(18):_profile_model (6,259 us., 0.02%)</title><rect x="1009.1" y="101" width="0.2" height="15.0" fill="rgb(232,194,18)" rx="2" ry="2" />
<text  x="1012.06" y="111.5" ></text>
</g>
<g >
<title>torch/autograd/grad_mode.py(27):_decorate_context (446,777 us., 1.51%)</title><rect x="954.6" y="133" width="17.9" height="15.0" fill="rgb(228,120,28)" rx="2" ry="2" />
<text  x="957.64" y="143.5" ></text>
</g>
<g >
<title>transformers/models/opt/modeling_opt.py(157):__shape (441,341 us., 1.49%)</title><rect x="1039.8" y="213" width="17.6" height="15.0" fill="rgb(246,118,41)" rx="2" ry="2" />
<text  x="1042.77" y="223.5" ></text>
</g>
<g >
<title>transformers/models/opt/modeling_opt.py(840):_forward (446,777 us., 1.51%)</title><rect x="954.6" y="181" width="17.9" height="15.0" fill="rgb(219,25,41)" rx="2" ry="2" />
<text  x="957.64" y="191.5" ></text>
</g>
<g >
<title>transformers/models/opt/modeling_opt.py(553):_forward (381,209 us., 1.29%)</title><rect x="1174.6" y="197" width="15.2" height="15.0" fill="rgb(253,100,42)" rx="2" ry="2" />
<text  x="1177.57" y="207.5" ></text>
</g>
<g >
<title>transformers/models/opt/modeling_opt.py(840):_forward (6,107 us., 0.02%)</title><rect x="1009.3" y="117" width="0.2" height="15.0" fill="rgb(230,196,45)" rx="2" ry="2" />
<text  x="1012.31" y="127.5" ></text>
</g>
<g >
<title>nn.Module:_OPTForCausalLM (15,341,659 us., 51.90%)</title><rect x="342.2" y="101" width="612.4" height="15.0" fill="rgb(205,166,41)" rx="2" ry="2" />
<text  x="345.19" y="111.5" >nn.Module:_OPTForCausalLM</text>
</g>
<g >
<title>transformers/models/opt/modeling_opt.py(840):_forward (6,259 us., 0.02%)</title><rect x="1009.1" y="133" width="0.2" height="15.0" fill="rgb(239,75,44)" rx="2" ry="2" />
<text  x="1012.06" y="143.5" ></text>
</g>
<g >
<title>profiling/utils.py(18):_profile_model (8,321,096 us., 28.15%)</title><rect x="10.0" y="53" width="332.2" height="15.0" fill="rgb(217,139,21)" rx="2" ry="2" />
<text  x="13.00" y="63.5" >profiling/utils.py(18):_profile_model</text>
</g>
<g >
<title>transformers/models/opt/modeling_opt.py(298):_forward (15,341,659 us., 51.90%)</title><rect x="342.2" y="181" width="612.4" height="15.0" fill="rgb(254,89,17)" rx="2" ry="2" />
<text  x="345.19" y="191.5" >transformers/models/opt/modeling_opt.py(298):_forward</text>
</g>
<g >
<title>torch/nn/modules/normalization.py(188):_forward (380,889 us., 1.29%)</title><rect x="1093.0" y="197" width="15.2" height="15.0" fill="rgb(224,26,29)" rx="2" ry="2" />
<text  x="1096.04" y="207.5" ></text>
</g>
<g >
<title>nn.Module:_OPTDecoder (756,481 us., 2.56%)</title><rect x="1009.5" y="117" width="30.2" height="15.0" fill="rgb(236,181,36)" rx="2" ry="2" />
<text  x="1012.55" y="127.5" >nn..</text>
</g>
<g >
<title>nn.Module:_OPTForCausalLM (6,107 us., 0.02%)</title><rect x="1009.3" y="101" width="0.2" height="15.0" fill="rgb(227,72,18)" rx="2" ry="2" />
<text  x="1012.31" y="111.5" ></text>
</g>
<g >
<title>nn.Module:_OPTDecoder (4,059 us., 0.01%)</title><rect x="1092.8" y="181" width="0.2" height="15.0" fill="rgb(230,63,6)" rx="2" ry="2" />
<text  x="1095.81" y="191.5" ></text>
</g>
<g >
<title>profiling/utils.py(18):_profile_model (887,284 us., 3.00%)</title><rect x="1057.4" y="85" width="35.4" height="15.0" fill="rgb(242,214,21)" rx="2" ry="2" />
<text  x="1060.38" y="95.5" >pro..</text>
</g>
<g >
<title>transformers/models/opt/modeling_opt.py(114):_forward (6,107 us., 0.02%)</title><rect x="1009.3" y="181" width="0.2" height="15.0" fill="rgb(218,51,40)" rx="2" ry="2" />
<text  x="1012.31" y="191.5" ></text>
</g>
<g >
<title>torch/nn/modules/linear.py(113):_forward (24,109,532 us., 81.57%)</title><rect x="10.0" y="213" width="962.5" height="15.0" fill="rgb(205,47,3)" rx="2" ry="2" />
<text  x="13.00" y="223.5" >torch/nn/modules/linear.py(113):_forward</text>
</g>
<g >
<title>profiling/utils.py(18):_profile_model (4,839 us., 0.02%)</title><rect x="1189.8" y="165" width="0.2" height="15.0" fill="rgb(246,159,27)" rx="2" ry="2" />
<text  x="1192.81" y="175.5" ></text>
</g>
<g >
<title>transformers/models/opt/modeling_opt.py(298):_forward (381,209 us., 1.29%)</title><rect x="1174.6" y="229" width="15.2" height="15.0" fill="rgb(246,136,18)" rx="2" ry="2" />
<text  x="1177.57" y="239.5" ></text>
</g>
<g >
<title>nn.Module:_OPTDecoder (8,321,096 us., 28.15%)</title><rect x="10.0" y="101" width="332.2" height="15.0" fill="rgb(210,41,50)" rx="2" ry="2" />
<text  x="13.00" y="111.5" >nn.Module:_OPTDecoder</text>
</g>
<g >
<title>nn.Module:_OPTDecoder (441,341 us., 1.49%)</title><rect x="1039.8" y="117" width="17.6" height="15.0" fill="rgb(229,108,45)" rx="2" ry="2" />
<text  x="1042.77" y="127.5" ></text>
</g>
<g >
<title>nn.Module:_OPTDecoder (494,263 us., 1.67%)</title><rect x="1128.3" y="117" width="19.8" height="15.0" fill="rgb(238,99,27)" rx="2" ry="2" />
<text  x="1131.34" y="127.5" ></text>
</g>
<g >
<title>&lt;built-in_function_linear&gt; (24,109,532 us., 81.57%)</title><rect x="10.0" y="229" width="962.5" height="15.0" fill="rgb(238,195,26)" rx="2" ry="2" />
<text  x="13.00" y="239.5" >&lt;built-in_function_linear&gt;</text>
</g>
<g >
<title>transformers/models/opt/modeling_opt.py(160):_forward (441,341 us., 1.49%)</title><rect x="1039.8" y="197" width="17.6" height="15.0" fill="rgb(237,176,14)" rx="2" ry="2" />
<text  x="1042.77" y="207.5" ></text>
</g>
<g >
<title>transformers/models/opt/modeling_opt.py(553):_forward (494,263 us., 1.67%)</title><rect x="1128.3" y="133" width="19.8" height="15.0" fill="rgb(222,33,1)" rx="2" ry="2" />
<text  x="1131.34" y="143.5" ></text>
</g>
<g >
<title>torch/autograd/grad_mode.py(27):_decorate_context (887,284 us., 3.00%)</title><rect x="1057.4" y="69" width="35.4" height="15.0" fill="rgb(225,48,20)" rx="2" ry="2" />
<text  x="1060.38" y="79.5" >tor..</text>
</g>
<g >
<title>&lt;built-in_method_relu_of_type_object_at_0x7f66740a09c0&gt; (494,263 us., 1.67%)</title><rect x="1128.3" y="229" width="19.8" height="15.0" fill="rgb(224,202,50)" rx="2" ry="2" />
<text  x="1131.34" y="239.5" ></text>
</g>
<g >
<title>nn.Module:_OPTForCausalLM (914,320 us., 3.09%)</title><rect x="972.5" y="101" width="36.5" height="15.0" fill="rgb(246,101,12)" rx="2" ry="2" />
<text  x="975.48" y="111.5" >nn...</text>
</g>
<g >
<title>nn.Module:_OPTDecoderLayer (756,481 us., 2.56%)</title><rect x="1009.5" y="149" width="30.2" height="15.0" fill="rgb(242,198,9)" rx="2" ry="2" />
<text  x="1012.55" y="159.5" >nn..</text>
</g>
<g >
<title>torch/autograd/grad_mode.py(27):_decorate_context (6,107 us., 0.02%)</title><rect x="1009.3" y="69" width="0.2" height="15.0" fill="rgb(216,138,18)" rx="2" ry="2" />
<text  x="1012.31" y="79.5" ></text>
</g>
<g >
<title>transformers/models/opt/modeling_opt.py(298):_forward (756,481 us., 2.56%)</title><rect x="1009.5" y="165" width="30.2" height="15.0" fill="rgb(222,210,46)" rx="2" ry="2" />
<text  x="1012.55" y="175.5" >tr..</text>
</g>
</g>
</svg>
