<?xml version="1.0" standalone="no"?>
<!DOCTYPE svg PUBLIC "-//W3C//DTD SVG 1.1//EN" "http://www.w3.org/Graphics/SVG/1.1/DTD/svg11.dtd">
<svg version="1.1" width="1200" height="294" onload="init(evt)" viewBox="0 0 1200 294" xmlns="http://www.w3.org/2000/svg" xmlns:xlink="http://www.w3.org/1999/xlink">
<!-- Flame graph stack visualization. See https://github.com/brendangregg/FlameGraph for latest version, and http://www.brendangregg.com/flamegraphs.html for examples. -->
<!-- NOTES:  -->
<defs>
	<linearGradient id="background" y1="0" y2="1" x1="0" x2="0" >
		<stop stop-color="#eeeeee" offset="5%" />
		<stop stop-color="#eeeeb0" offset="95%" />
	</linearGradient>
</defs>
<style type="text/css">
	text { font-family:Verdana; font-size:12px; fill:rgb(0,0,0); }
	#search, #ignorecase { opacity:0.1; cursor:pointer; }
	#search:hover, #search.show, #ignorecase:hover, #ignorecase.show { opacity:1; }
	#subtitle { text-anchor:middle; font-color:rgb(160,160,160); }
	#title { text-anchor:middle; font-size:17px}
	#unzoom { cursor:pointer; }
	#frames > *:hover { stroke:black; stroke-width:0.5; cursor:pointer; }
	.hide { display:none; }
	.parent { opacity:0.5; }
</style>
<script type="text/ecmascript">
<![CDATA[
	"use strict";
	var details, searchbtn, unzoombtn, matchedtxt, svg, searching, currentSearchTerm, ignorecase, ignorecaseBtn;
	function init(evt) {
		details = document.getElementById("details").firstChild;
		searchbtn = document.getElementById("search");
		ignorecaseBtn = document.getElementById("ignorecase");
		unzoombtn = document.getElementById("unzoom");
		matchedtxt = document.getElementById("matched");
		svg = document.getElementsByTagName("svg")[0];
		searching = 0;
		currentSearchTerm = null;

		// use GET parameters to restore a flamegraphs state.
		var params = get_params();
		if (params.x && params.y)
			zoom(find_group(document.querySelector('[x="' + params.x + '"][y="' + params.y + '"]')));
                if (params.s) search(params.s);
	}

	// event listeners
	window.addEventListener("click", function(e) {
		var target = find_group(e.target);
		if (target) {
			if (target.nodeName == "a") {
				if (e.ctrlKey === false) return;
				e.preventDefault();
			}
			if (target.classList.contains("parent")) unzoom(true);
			zoom(target);
			if (!document.querySelector('.parent')) {
				// we have basically done a clearzoom so clear the url
				var params = get_params();
				if (params.x) delete params.x;
				if (params.y) delete params.y;
				history.replaceState(null, null, parse_params(params));
				unzoombtn.classList.add("hide");
				return;
			}

			// set parameters for zoom state
			var el = target.querySelector("rect");
			if (el && el.attributes && el.attributes.y && el.attributes._orig_x) {
				var params = get_params()
				params.x = el.attributes._orig_x.value;
				params.y = el.attributes.y.value;
				history.replaceState(null, null, parse_params(params));
			}
		}
		else if (e.target.id == "unzoom") clearzoom();
		else if (e.target.id == "search") search_prompt();
		else if (e.target.id == "ignorecase") toggle_ignorecase();
	}, false)

	// mouse-over for info
	// show
	window.addEventListener("mouseover", function(e) {
		var target = find_group(e.target);
		if (target) details.nodeValue = "Function: " + g_to_text(target);
	}, false)

	// clear
	window.addEventListener("mouseout", function(e) {
		var target = find_group(e.target);
		if (target) details.nodeValue = ' ';
	}, false)

	// ctrl-F for search
	// ctrl-I to toggle case-sensitive search
	window.addEventListener("keydown",function (e) {
		if (e.keyCode === 114 || (e.ctrlKey && e.keyCode === 70)) {
			e.preventDefault();
			search_prompt();
		}
		else if (e.ctrlKey && e.keyCode === 73) {
			e.preventDefault();
			toggle_ignorecase();
		}
	}, false)

	// functions
	function get_params() {
		var params = {};
		var paramsarr = window.location.search.substr(1).split('&');
		for (var i = 0; i < paramsarr.length; ++i) {
			var tmp = paramsarr[i].split("=");
			if (!tmp[0] || !tmp[1]) continue;
			params[tmp[0]]  = decodeURIComponent(tmp[1]);
		}
		return params;
	}
	function parse_params(params) {
		var uri = "?";
		for (var key in params) {
			uri += key + '=' + encodeURIComponent(params[key]) + '&';
		}
		if (uri.slice(-1) == "&")
			uri = uri.substring(0, uri.length - 1);
		if (uri == '?')
			uri = window.location.href.split('?')[0];
		return uri;
	}
	function find_child(node, selector) {
		var children = node.querySelectorAll(selector);
		if (children.length) return children[0];
	}
	function find_group(node) {
		var parent = node.parentElement;
		if (!parent) return;
		if (parent.id == "frames") return node;
		return find_group(parent);
	}
	function orig_save(e, attr, val) {
		if (e.attributes["_orig_" + attr] != undefined) return;
		if (e.attributes[attr] == undefined) return;
		if (val == undefined) val = e.attributes[attr].value;
		e.setAttribute("_orig_" + attr, val);
	}
	function orig_load(e, attr) {
		if (e.attributes["_orig_"+attr] == undefined) return;
		e.attributes[attr].value = e.attributes["_orig_" + attr].value;
		e.removeAttribute("_orig_"+attr);
	}
	function g_to_text(e) {
		var text = find_child(e, "title").firstChild.nodeValue;
		return (text)
	}
	function g_to_func(e) {
		var func = g_to_text(e);
		// if there's any manipulation we want to do to the function
		// name before it's searched, do it here before returning.
		return (func);
	}
	function update_text(e) {
		var r = find_child(e, "rect");
		var t = find_child(e, "text");
		var w = parseFloat(r.attributes.width.value) -3;
		var txt = find_child(e, "title").textContent.replace(/\([^(]*\)$/,"");
		t.attributes.x.value = parseFloat(r.attributes.x.value) + 3;

		// Smaller than this size won't fit anything
		if (w < 2 * 12 * 0.59) {
			t.textContent = "";
			return;
		}

		t.textContent = txt;
		var sl = t.getSubStringLength(0, txt.length);
		// check if only whitespace or if we can fit the entire string into width w
		if (/^ *$/.test(txt) || sl < w)
			return;

		// this isn't perfect, but gives a good starting point
		// and avoids calling getSubStringLength too often
		var start = Math.floor((w/sl) * txt.length);
		for (var x = start; x > 0; x = x-2) {
			if (t.getSubStringLength(0, x + 2) <= w) {
				t.textContent = txt.substring(0, x) + "..";
				return;
			}
		}
		t.textContent = "";
	}

	// zoom
	function zoom_reset(e) {
		if (e.attributes != undefined) {
			orig_load(e, "x");
			orig_load(e, "width");
		}
		if (e.childNodes == undefined) return;
		for (var i = 0, c = e.childNodes; i < c.length; i++) {
			zoom_reset(c[i]);
		}
	}
	function zoom_child(e, x, ratio) {
		if (e.attributes != undefined) {
			if (e.attributes.x != undefined) {
				orig_save(e, "x");
				e.attributes.x.value = (parseFloat(e.attributes.x.value) - x - 10) * ratio + 10;
				if (e.tagName == "text")
					e.attributes.x.value = find_child(e.parentNode, "rect[x]").attributes.x.value + 3;
			}
			if (e.attributes.width != undefined) {
				orig_save(e, "width");
				e.attributes.width.value = parseFloat(e.attributes.width.value) * ratio;
			}
		}

		if (e.childNodes == undefined) return;
		for (var i = 0, c = e.childNodes; i < c.length; i++) {
			zoom_child(c[i], x - 10, ratio);
		}
	}
	function zoom_parent(e) {
		if (e.attributes) {
			if (e.attributes.x != undefined) {
				orig_save(e, "x");
				e.attributes.x.value = 10;
			}
			if (e.attributes.width != undefined) {
				orig_save(e, "width");
				e.attributes.width.value = parseInt(svg.width.baseVal.value) - (10 * 2);
			}
		}
		if (e.childNodes == undefined) return;
		for (var i = 0, c = e.childNodes; i < c.length; i++) {
			zoom_parent(c[i]);
		}
	}
	function zoom(node) {
		var attr = find_child(node, "rect").attributes;
		var width = parseFloat(attr.width.value);
		var xmin = parseFloat(attr.x.value);
		var xmax = parseFloat(xmin + width);
		var ymin = parseFloat(attr.y.value);
		var ratio = (svg.width.baseVal.value - 2 * 10) / width;

		// XXX: Workaround for JavaScript float issues (fix me)
		var fudge = 0.0001;

		unzoombtn.classList.remove("hide");

		var el = document.getElementById("frames").children;
		for (var i = 0; i < el.length; i++) {
			var e = el[i];
			var a = find_child(e, "rect").attributes;
			var ex = parseFloat(a.x.value);
			var ew = parseFloat(a.width.value);
			var upstack;
			// Is it an ancestor
			if (0 == 0) {
				upstack = parseFloat(a.y.value) > ymin;
			} else {
				upstack = parseFloat(a.y.value) < ymin;
			}
			if (upstack) {
				// Direct ancestor
				if (ex <= xmin && (ex+ew+fudge) >= xmax) {
					e.classList.add("parent");
					zoom_parent(e);
					update_text(e);
				}
				// not in current path
				else
					e.classList.add("hide");
			}
			// Children maybe
			else {
				// no common path
				if (ex < xmin || ex + fudge >= xmax) {
					e.classList.add("hide");
				}
				else {
					zoom_child(e, xmin, ratio);
					update_text(e);
				}
			}
		}
		search();
	}
	function unzoom(dont_update_text) {
		unzoombtn.classList.add("hide");
		var el = document.getElementById("frames").children;
		for(var i = 0; i < el.length; i++) {
			el[i].classList.remove("parent");
			el[i].classList.remove("hide");
			zoom_reset(el[i]);
			if(!dont_update_text) update_text(el[i]);
		}
		search();
	}
	function clearzoom() {
		unzoom();

		// remove zoom state
		var params = get_params();
		if (params.x) delete params.x;
		if (params.y) delete params.y;
		history.replaceState(null, null, parse_params(params));
	}

	// search
	function toggle_ignorecase() {
		ignorecase = !ignorecase;
		if (ignorecase) {
			ignorecaseBtn.classList.add("show");
		} else {
			ignorecaseBtn.classList.remove("show");
		}
		reset_search();
		search();
	}
	function reset_search() {
		var el = document.querySelectorAll("#frames rect");
		for (var i = 0; i < el.length; i++) {
			orig_load(el[i], "fill")
		}
		var params = get_params();
		delete params.s;
		history.replaceState(null, null, parse_params(params));
	}
	function search_prompt() {
		if (!searching) {
			var term = prompt("Enter a search term (regexp " +
			    "allowed, eg: ^ext4_)"
			    + (ignorecase ? ", ignoring case" : "")
			    + "\nPress Ctrl-i to toggle case sensitivity", "");
			if (term != null) search(term);
		} else {
			reset_search();
			searching = 0;
			currentSearchTerm = null;
			searchbtn.classList.remove("show");
			searchbtn.firstChild.nodeValue = "Search"
			matchedtxt.classList.add("hide");
			matchedtxt.firstChild.nodeValue = ""
		}
	}
	function search(term) {
		if (term) currentSearchTerm = term;

		var re = new RegExp(currentSearchTerm, ignorecase ? 'i' : '');
		var el = document.getElementById("frames").children;
		var matches = new Object();
		var maxwidth = 0;
		for (var i = 0; i < el.length; i++) {
			var e = el[i];
			var func = g_to_func(e);
			var rect = find_child(e, "rect");
			if (func == null || rect == null)
				continue;

			// Save max width. Only works as we have a root frame
			var w = parseFloat(rect.attributes.width.value);
			if (w > maxwidth)
				maxwidth = w;

			if (func.match(re)) {
				// highlight
				var x = parseFloat(rect.attributes.x.value);
				orig_save(rect, "fill");
				rect.attributes.fill.value = "rgb(230,0,230)";

				// remember matches
				if (matches[x] == undefined) {
					matches[x] = w;
				} else {
					if (w > matches[x]) {
						// overwrite with parent
						matches[x] = w;
					}
				}
				searching = 1;
			}
		}
		if (!searching)
			return;
		var params = get_params();
		params.s = currentSearchTerm;
		history.replaceState(null, null, parse_params(params));

		searchbtn.classList.add("show");
		searchbtn.firstChild.nodeValue = "Reset Search";

		// calculate percent matched, excluding vertical overlap
		var count = 0;
		var lastx = -1;
		var lastw = 0;
		var keys = Array();
		for (k in matches) {
			if (matches.hasOwnProperty(k))
				keys.push(k);
		}
		// sort the matched frames by their x location
		// ascending, then width descending
		keys.sort(function(a, b){
			return a - b;
		});
		// Step through frames saving only the biggest bottom-up frames
		// thanks to the sort order. This relies on the tree property
		// where children are always smaller than their parents.
		var fudge = 0.0001;	// JavaScript floating point
		for (var k in keys) {
			var x = parseFloat(keys[k]);
			var w = matches[keys[k]];
			if (x >= lastx + lastw - fudge) {
				count += w;
				lastx = x;
				lastw = w;
			}
		}
		// display matched percent
		matchedtxt.classList.remove("hide");
		var pct = 100 * count / maxwidth;
		if (pct != 100) pct = pct.toFixed(1)
		matchedtxt.firstChild.nodeValue = "Matched: " + pct + "%";
	}
]]>
</script>
<rect x="0.0" y="0" width="1200.0" height="294.0" fill="url(#background)"  />
<text id="title" x="600.00" y="24" >CUDA Time</text>
<text id="details" x="10.00" y="277" > </text>
<text id="unzoom" x="10.00" y="24" class="hide">Reset Zoom</text>
<text id="search" x="1090.00" y="24" >Search</text>
<text id="ignorecase" x="1174.00" y="24" >ic</text>
<text id="matched" x="1090.00" y="277" > </text>
<g id="frames">
<g >
<title>nn.Module:_OPTDecoderLayer (772,475 us., 1.33%)</title><rect x="1091.3" y="149" width="15.8" height="15.0" fill="rgb(208,154,47)" rx="2" ry="2" />
<text  x="1094.34" y="159.5" ></text>
</g>
<g >
<title>nn.Module:_OPTForCausalLM (8,158 us., 0.01%)</title><rect x="1091.1" y="149" width="0.2" height="15.0" fill="rgb(222,174,8)" rx="2" ry="2" />
<text  x="1094.12" y="159.5" ></text>
</g>
<g >
<title>profiling/utils.py(18):_profile_model (1,739,410 us., 3.00%)</title><rect x="1055.7" y="85" width="35.4" height="15.0" fill="rgb(229,50,43)" rx="2" ry="2" />
<text  x="1058.73" y="95.5" >pr..</text>
</g>
<g >
<title>transformers/models/opt/modeling_opt.py(298):_forward (838,320 us., 1.45%)</title><rect x="1038.7" y="165" width="17.0" height="15.0" fill="rgb(240,164,2)" rx="2" ry="2" />
<text  x="1041.68" y="175.5" ></text>
</g>
<g >
<title>nn.Module:_OPTDecoder (1,739,410 us., 3.00%)</title><rect x="1055.7" y="133" width="35.4" height="15.0" fill="rgb(215,229,30)" rx="2" ry="2" />
<text  x="1058.73" y="143.5" >nn..</text>
</g>
<g >
<title>nn.Module:_OPTForCausalLM (9,650 us., 0.02%)</title><rect x="1107.1" y="117" width="0.1" height="15.0" fill="rgb(207,87,4)" rx="2" ry="2" />
<text  x="1110.05" y="127.5" ></text>
</g>
<g >
<title>nn.Module:_OPTForCausalLM (1,730,976 us., 2.98%)</title><rect x="972.6" y="101" width="35.2" height="15.0" fill="rgb(222,26,12)" rx="2" ry="2" />
<text  x="975.59" y="111.5" >nn..</text>
</g>
<g >
<title>nn.Module:_OPTAttention (1,315,110 us., 2.27%)</title><rect x="1147.7" y="213" width="26.7" height="15.0" fill="rgb(245,159,20)" rx="2" ry="2" />
<text  x="1150.66" y="223.5" >n..</text>
</g>
<g >
<title>nn.Module:_OPTDecoderLayer (993,989 us., 1.71%)</title><rect x="1107.2" y="165" width="20.3" height="15.0" fill="rgb(243,180,27)" rx="2" ry="2" />
<text  x="1110.25" y="175.5" ></text>
</g>
<g >
<title>profiling/utils.py(18):_profile_model (12,269 us., 0.02%)</title><rect x="1007.8" y="101" width="0.3" height="15.0" fill="rgb(213,137,32)" rx="2" ry="2" />
<text  x="1010.84" y="111.5" ></text>
</g>
<g >
<title>nn.Module:_OPTDecoderLayer (991,574 us., 1.71%)</title><rect x="1127.5" y="149" width="20.1" height="15.0" fill="rgb(232,225,24)" rx="2" ry="2" />
<text  x="1130.47" y="159.5" ></text>
</g>
<g >
<title>transformers/models/opt/modeling_opt.py(553):_forward (772,475 us., 1.33%)</title><rect x="1091.3" y="133" width="15.8" height="15.0" fill="rgb(246,151,23)" rx="2" ry="2" />
<text  x="1094.34" y="143.5" ></text>
</g>
<g >
<title>transformers/models/opt/modeling_opt.py(840):_forward (9,472 us., 0.02%)</title><rect x="1189.8" y="197" width="0.2" height="15.0" fill="rgb(216,126,41)" rx="2" ry="2" />
<text  x="1192.81" y="207.5" ></text>
</g>
<g >
<title>transformers/models/opt/modeling_opt.py(553):_forward (8,158 us., 0.01%)</title><rect x="1091.1" y="197" width="0.2" height="15.0" fill="rgb(233,133,35)" rx="2" ry="2" />
<text  x="1094.12" y="207.5" ></text>
</g>
<g >
<title>&lt;built-in_method_layer_norm_of_type_object_at_0x7f8fabeca9c0&gt; (782,125 us., 1.35%)</title><rect x="1091.3" y="229" width="15.9" height="15.0" fill="rgb(251,114,24)" rx="2" ry="2" />
<text  x="1094.34" y="239.5" ></text>
</g>
<g >
<title>&lt;built-in_method_max_of_type_object_at_0x7f8fabeca9c0&gt; (993,989 us., 1.71%)</title><rect x="1107.2" y="229" width="20.3" height="15.0" fill="rgb(217,73,4)" rx="2" ry="2" />
<text  x="1110.25" y="239.5" ></text>
</g>
<g >
<title>transformers/models/opt/modeling_opt.py(553):_forward (9,472 us., 0.02%)</title><rect x="1189.8" y="229" width="0.2" height="15.0" fill="rgb(211,142,17)" rx="2" ry="2" />
<text  x="1192.81" y="239.5" ></text>
</g>
<g >
<title>transformers/models/opt/modeling_opt.py(840):_forward (1,730,976 us., 2.98%)</title><rect x="972.6" y="117" width="35.2" height="15.0" fill="rgb(222,114,1)" rx="2" ry="2" />
<text  x="975.59" y="127.5" >tr..</text>
</g>
<g >
<title>profiling/utils.py(18):_profile_model (9,650 us., 0.02%)</title><rect x="1107.1" y="101" width="0.1" height="15.0" fill="rgb(219,90,40)" rx="2" ry="2" />
<text  x="1110.05" y="111.5" ></text>
</g>
<g >
<title>nn.Module:_Embedding (12,269 us., 0.02%)</title><rect x="1007.8" y="181" width="0.3" height="15.0" fill="rgb(238,179,28)" rx="2" ry="2" />
<text  x="1010.84" y="191.5" ></text>
</g>
<g >
<title>transformers/models/opt/modeling_opt.py(298):_forward (1,490,856 us., 2.57%)</title><rect x="1008.3" y="165" width="30.4" height="15.0" fill="rgb(224,168,52)" rx="2" ry="2" />
<text  x="1011.34" y="175.5" >tr..</text>
</g>
<g >
<title>nn.Module:_OPTDecoder (993,989 us., 1.71%)</title><rect x="1107.2" y="133" width="20.3" height="15.0" fill="rgb(254,202,8)" rx="2" ry="2" />
<text  x="1110.25" y="143.5" ></text>
</g>
<g >
<title>nn.Module:_OPTDecoder (838,320 us., 1.45%)</title><rect x="1038.7" y="117" width="17.0" height="15.0" fill="rgb(220,13,10)" rx="2" ry="2" />
<text  x="1041.68" y="127.5" ></text>
</g>
<g >
<title>transformers/models/opt/modeling_opt.py(553):_forward (15,203,183 us., 26.21%)</title><rect x="10.0" y="117" width="309.3" height="15.0" fill="rgb(208,103,14)" rx="2" ry="2" />
<text  x="13.00" y="127.5" >transformers/models/opt/modeling_opt.py(5..</text>
</g>
<g >
<title>nn.Module:_OPTDecoder (31,269,861 us., 53.91%)</title><rect x="319.3" y="133" width="636.1" height="15.0" fill="rgb(216,134,7)" rx="2" ry="2" />
<text  x="322.28" y="143.5" >nn.Module:_OPTDecoder</text>
</g>
<g >
<title>nn.Module:_OPTAttention (1,730,976 us., 2.98%)</title><rect x="972.6" y="197" width="35.2" height="15.0" fill="rgb(225,89,8)" rx="2" ry="2" />
<text  x="975.59" y="207.5" >nn..</text>
</g>
<g >
<title>nn.Module:_OPTForCausalLM (9,472 us., 0.02%)</title><rect x="1189.8" y="181" width="0.2" height="15.0" fill="rgb(216,178,35)" rx="2" ry="2" />
<text  x="1192.81" y="191.5" ></text>
</g>
<g >
<title>transformers/models/opt/modeling_opt.py(840):_forward (1,490,856 us., 2.57%)</title><rect x="1008.3" y="101" width="30.4" height="15.0" fill="rgb(232,2,44)" rx="2" ry="2" />
<text  x="1011.34" y="111.5" >tr..</text>
</g>
<g >
<title>nn.Module:_OPTForCausalLM (12,269 us., 0.02%)</title><rect x="1007.8" y="117" width="0.3" height="15.0" fill="rgb(244,13,6)" rx="2" ry="2" />
<text  x="1010.84" y="127.5" ></text>
</g>
<g >
<title>torch/autograd/grad_mode.py(27):_decorate_context (12,269 us., 0.02%)</title><rect x="1007.8" y="85" width="0.3" height="15.0" fill="rgb(234,133,8)" rx="2" ry="2" />
<text  x="1010.84" y="95.5" ></text>
</g>
<g >
<title>transformers/models/opt/modeling_opt.py(298):_forward (993,989 us., 1.71%)</title><rect x="1107.2" y="181" width="20.3" height="15.0" fill="rgb(232,177,10)" rx="2" ry="2" />
<text  x="1110.25" y="191.5" ></text>
</g>
<g >
<title>transformers/models/opt/modeling_opt.py(553):_forward (1,315,110 us., 2.27%)</title><rect x="1147.7" y="165" width="26.7" height="15.0" fill="rgb(244,197,11)" rx="2" ry="2" />
<text  x="1150.66" y="175.5" >t..</text>
</g>
<g >
<title>nn.Module:_OPTDecoder (9,472 us., 0.02%)</title><rect x="1189.8" y="213" width="0.2" height="15.0" fill="rgb(232,30,8)" rx="2" ry="2" />
<text  x="1192.81" y="223.5" ></text>
</g>
<g >
<title>nn.Module:_OPTAttention (1,739,410 us., 3.00%)</title><rect x="1055.7" y="197" width="35.4" height="15.0" fill="rgb(239,74,38)" rx="2" ry="2" />
<text  x="1058.73" y="207.5" >nn..</text>
</g>
<g >
<title>torch/autograd/grad_mode.py(27):_decorate_context (1,490,856 us., 2.57%)</title><rect x="1008.3" y="53" width="30.4" height="15.0" fill="rgb(213,183,0)" rx="2" ry="2" />
<text  x="1011.34" y="63.5" >to..</text>
</g>
<g >
<title>transformers/models/opt/modeling_opt.py(840):_forward (1,739,410 us., 3.00%)</title><rect x="1055.7" y="117" width="35.4" height="15.0" fill="rgb(216,121,8)" rx="2" ry="2" />
<text  x="1058.73" y="127.5" >tr..</text>
</g>
<g >
<title>torch/autograd/grad_mode.py(27):_decorate_context (838,320 us., 1.45%)</title><rect x="1038.7" y="53" width="17.0" height="15.0" fill="rgb(248,62,48)" rx="2" ry="2" />
<text  x="1041.68" y="63.5" ></text>
</g>
<g >
<title>nn.Module:_OPTForCausalLM (12,127 us., 0.02%)</title><rect x="1008.1" y="101" width="0.2" height="15.0" fill="rgb(235,151,17)" rx="2" ry="2" />
<text  x="1011.09" y="111.5" ></text>
</g>
<g >
<title>nn.Module:_OPTDecoderLayer (31,269,861 us., 53.91%)</title><rect x="319.3" y="165" width="636.1" height="15.0" fill="rgb(232,46,26)" rx="2" ry="2" />
<text  x="322.28" y="175.5" >nn.Module:_OPTDecoderLayer</text>
</g>
<g >
<title>transformers/models/opt/modeling_opt.py(298):_forward (755,787 us., 1.30%)</title><rect x="1174.4" y="229" width="15.4" height="15.0" fill="rgb(227,175,23)" rx="2" ry="2" />
<text  x="1177.42" y="239.5" ></text>
</g>
<g >
<title>nn.Module:_OPTForCausalLM (15,203,183 us., 26.21%)</title><rect x="10.0" y="69" width="309.3" height="15.0" fill="rgb(225,219,38)" rx="2" ry="2" />
<text  x="13.00" y="79.5" >nn.Module:_OPTForCausalLM</text>
</g>
<g >
<title>transformers/models/opt/modeling_opt.py(840):_forward (8,158 us., 0.01%)</title><rect x="1091.1" y="165" width="0.2" height="15.0" fill="rgb(239,217,0)" rx="2" ry="2" />
<text  x="1094.12" y="175.5" ></text>
</g>
<g >
<title>torch/nn/functional.py(2099):_embedding (24,396 us., 0.04%)</title><rect x="1007.8" y="213" width="0.5" height="15.0" fill="rgb(206,129,25)" rx="2" ry="2" />
<text  x="1010.84" y="223.5" ></text>
</g>
<g >
<title>nn.Module:_OPTForCausalLM (838,320 us., 1.45%)</title><rect x="1038.7" y="85" width="17.0" height="15.0" fill="rgb(214,118,39)" rx="2" ry="2" />
<text  x="1041.68" y="95.5" ></text>
</g>
<g >
<title>transformers/models/opt/modeling_opt.py(553):_forward (12,269 us., 0.02%)</title><rect x="1007.8" y="165" width="0.3" height="15.0" fill="rgb(249,185,7)" rx="2" ry="2" />
<text  x="1010.84" y="175.5" ></text>
</g>
<g >
<title>transformers/models/opt/modeling_opt.py(840):_forward (31,269,861 us., 53.91%)</title><rect x="319.3" y="117" width="636.1" height="15.0" fill="rgb(239,115,12)" rx="2" ry="2" />
<text  x="322.28" y="127.5" >transformers/models/opt/modeling_opt.py(840):_forward</text>
</g>
<g >
<title>nn.Module:_OPTForCausalLM (991,574 us., 1.71%)</title><rect x="1127.5" y="85" width="20.1" height="15.0" fill="rgb(239,185,12)" rx="2" ry="2" />
<text  x="1130.47" y="95.5" ></text>
</g>
<g >
<title>transformers/models/opt/modeling_opt.py(298):_forward (991,574 us., 1.71%)</title><rect x="1127.5" y="165" width="20.1" height="15.0" fill="rgb(244,112,0)" rx="2" ry="2" />
<text  x="1130.47" y="175.5" ></text>
</g>
<g >
<title>profiling/utils.py(18):_profile_model (1,730,976 us., 2.98%)</title><rect x="972.6" y="85" width="35.2" height="15.0" fill="rgb(222,34,30)" rx="2" ry="2" />
<text  x="975.59" y="95.5" >pr..</text>
</g>
<g >
<title>transformers/models/opt/modeling_opt.py(553):_forward (1,739,410 us., 3.00%)</title><rect x="1055.7" y="149" width="35.4" height="15.0" fill="rgb(244,165,1)" rx="2" ry="2" />
<text  x="1058.73" y="159.5" >tr..</text>
</g>
<g >
<title>transformers/models/opt/modeling_opt.py(553):_forward (9,650 us., 0.02%)</title><rect x="1107.1" y="165" width="0.1" height="15.0" fill="rgb(229,146,4)" rx="2" ry="2" />
<text  x="1110.05" y="175.5" ></text>
</g>
<g >
<title>transformers/models/opt/modeling_opt.py(553):_forward (838,320 us., 1.45%)</title><rect x="1038.7" y="133" width="17.0" height="15.0" fill="rgb(249,45,34)" rx="2" ry="2" />
<text  x="1041.68" y="143.5" ></text>
</g>
<g >
<title>torch/autograd/grad_mode.py(27):_decorate_context (755,787 us., 1.30%)</title><rect x="1174.4" y="117" width="15.4" height="15.0" fill="rgb(212,171,51)" rx="2" ry="2" />
<text  x="1177.42" y="127.5" ></text>
</g>
<g >
<title>transformers/models/opt/modeling_opt.py(840):_forward (755,787 us., 1.30%)</title><rect x="1174.4" y="165" width="15.4" height="15.0" fill="rgb(236,112,8)" rx="2" ry="2" />
<text  x="1177.42" y="175.5" ></text>
</g>
<g >
<title>transformers/models/opt/modeling_opt.py(553):_forward (1,730,976 us., 2.98%)</title><rect x="972.6" y="149" width="35.2" height="15.0" fill="rgb(231,31,10)" rx="2" ry="2" />
<text  x="975.59" y="159.5" >tr..</text>
</g>
<g >
<title>transformers/models/opt/modeling_opt.py(553):_forward (1,490,856 us., 2.57%)</title><rect x="1008.3" y="133" width="30.4" height="15.0" fill="rgb(240,63,39)" rx="2" ry="2" />
<text  x="1011.34" y="143.5" >tr..</text>
</g>
<g >
<title>nn.Module:_OPTDecoderLayer (1,730,976 us., 2.98%)</title><rect x="972.6" y="165" width="35.2" height="15.0" fill="rgb(242,216,31)" rx="2" ry="2" />
<text  x="975.59" y="175.5" >nn..</text>
</g>
<g >
<title>transformers/models/opt/modeling_opt.py(840):_forward (772,475 us., 1.33%)</title><rect x="1091.3" y="101" width="15.8" height="15.0" fill="rgb(236,156,26)" rx="2" ry="2" />
<text  x="1094.34" y="111.5" ></text>
</g>
<g >
<title>nn.Module:_OPTDecoderLayer (1,490,856 us., 2.57%)</title><rect x="1008.3" y="149" width="30.4" height="15.0" fill="rgb(227,73,25)" rx="2" ry="2" />
<text  x="1011.34" y="159.5" >nn..</text>
</g>
<g >
<title>nn.Module:_OPTDecoder (8,158 us., 0.01%)</title><rect x="1091.1" y="181" width="0.2" height="15.0" fill="rgb(234,162,3)" rx="2" ry="2" />
<text  x="1094.12" y="191.5" ></text>
</g>
<g >
<title>transformers/models/opt/modeling_opt.py(298):_forward (31,269,861 us., 53.91%)</title><rect x="319.3" y="181" width="636.1" height="15.0" fill="rgb(240,204,38)" rx="2" ry="2" />
<text  x="322.28" y="191.5" >transformers/models/opt/modeling_opt.py(298):_forward</text>
</g>
<g >
<title>torch/autograd/grad_mode.py(27):_decorate_context (991,574 us., 1.71%)</title><rect x="1127.5" y="53" width="20.1" height="15.0" fill="rgb(235,229,42)" rx="2" ry="2" />
<text  x="1130.47" y="63.5" ></text>
</g>
<g >
<title>nn.Module:_OPTDecoder (1,730,976 us., 2.98%)</title><rect x="972.6" y="133" width="35.2" height="15.0" fill="rgb(248,141,14)" rx="2" ry="2" />
<text  x="975.59" y="143.5" >nn..</text>
</g>
<g >
<title>profiling/utils.py(18):_profile_model (31,269,861 us., 53.91%)</title><rect x="319.3" y="85" width="636.1" height="15.0" fill="rgb(237,36,50)" rx="2" ry="2" />
<text  x="322.28" y="95.5" >profiling/utils.py(18):_profile_model</text>
</g>
<g >
<title>torch/autograd/grad_mode.py(27):_decorate_context (993,989 us., 1.71%)</title><rect x="1107.2" y="69" width="20.3" height="15.0" fill="rgb(233,88,15)" rx="2" ry="2" />
<text  x="1110.25" y="79.5" ></text>
</g>
<g >
<title>torch/autograd/grad_mode.py(27):_decorate_context (15,203,183 us., 26.21%)</title><rect x="10.0" y="37" width="309.3" height="15.0" fill="rgb(234,118,47)" rx="2" ry="2" />
<text  x="13.00" y="47.5" >torch/autograd/grad_mode.py(27):_decorate..</text>
</g>
<g >
<title>nn.Module:_OPTAttention (838,320 us., 1.45%)</title><rect x="1038.7" y="181" width="17.0" height="15.0" fill="rgb(250,171,30)" rx="2" ry="2" />
<text  x="1041.68" y="191.5" ></text>
</g>
<g >
<title>profiling/utils.py(18):_profile_model (12,127 us., 0.02%)</title><rect x="1008.1" y="85" width="0.2" height="15.0" fill="rgb(248,76,14)" rx="2" ry="2" />
<text  x="1011.09" y="95.5" ></text>
</g>
<g >
<title>&lt;built-in_method_embedding_of_type_object_at_0x7f8fabeca9c0&gt; (24,396 us., 0.04%)</title><rect x="1007.8" y="229" width="0.5" height="15.0" fill="rgb(209,183,11)" rx="2" ry="2" />
<text  x="1010.84" y="239.5" ></text>
</g>
<g >
<title>nn.Module:_OPTForCausalLM (31,269,861 us., 53.91%)</title><rect x="319.3" y="101" width="636.1" height="15.0" fill="rgb(208,67,45)" rx="2" ry="2" />
<text  x="322.28" y="111.5" >nn.Module:_OPTForCausalLM</text>
</g>
<g >
<title>transformers/models/opt/modeling_opt.py(840):_forward (991,574 us., 1.71%)</title><rect x="1127.5" y="101" width="20.1" height="15.0" fill="rgb(252,121,29)" rx="2" ry="2" />
<text  x="1130.47" y="111.5" ></text>
</g>
<g >
<title>transformers/models/opt/modeling_opt.py(298):_forward (1,739,410 us., 3.00%)</title><rect x="1055.7" y="181" width="35.4" height="15.0" fill="rgb(239,105,18)" rx="2" ry="2" />
<text  x="1058.73" y="191.5" >tr..</text>
</g>
<g >
<title>torch/autograd/grad_mode.py(27):_decorate_context (9,472 us., 0.02%)</title><rect x="1189.8" y="149" width="0.2" height="15.0" fill="rgb(252,127,19)" rx="2" ry="2" />
<text  x="1192.81" y="159.5" ></text>
</g>
<g >
<title>nn.Module:_OPTAttention (15,203,183 us., 26.21%)</title><rect x="10.0" y="165" width="309.3" height="15.0" fill="rgb(234,116,43)" rx="2" ry="2" />
<text  x="13.00" y="175.5" >nn.Module:_OPTAttention</text>
</g>
<g >
<title>transformers/models/opt/modeling_opt.py(840):_forward (838,320 us., 1.45%)</title><rect x="1038.7" y="101" width="17.0" height="15.0" fill="rgb(205,75,52)" rx="2" ry="2" />
<text  x="1041.68" y="111.5" ></text>
</g>
<g >
<title>torch/autograd/grad_mode.py(27):_decorate_context (9,650 us., 0.02%)</title><rect x="1107.1" y="85" width="0.1" height="15.0" fill="rgb(215,209,32)" rx="2" ry="2" />
<text  x="1110.05" y="95.5" ></text>
</g>
<g >
<title>profiling/utils.py(18):_profile_model (993,989 us., 1.71%)</title><rect x="1107.2" y="85" width="20.3" height="15.0" fill="rgb(205,142,15)" rx="2" ry="2" />
<text  x="1110.25" y="95.5" ></text>
</g>
<g >
<title>nn.Module:_OPTDecoder (755,787 us., 1.30%)</title><rect x="1174.4" y="181" width="15.4" height="15.0" fill="rgb(208,133,48)" rx="2" ry="2" />
<text  x="1177.42" y="191.5" ></text>
</g>
<g >
<title>torch/autograd/grad_mode.py(27):_decorate_context (8,158 us., 0.01%)</title><rect x="1091.1" y="117" width="0.2" height="15.0" fill="rgb(235,220,0)" rx="2" ry="2" />
<text  x="1094.12" y="127.5" ></text>
</g>
<g >
<title>transformers/models/opt/modeling_opt.py(553):_forward (12,127 us., 0.02%)</title><rect x="1008.1" y="149" width="0.2" height="15.0" fill="rgb(212,54,12)" rx="2" ry="2" />
<text  x="1011.09" y="159.5" ></text>
</g>
<g >
<title>profiling/utils.py(18):_profile_model (755,787 us., 1.30%)</title><rect x="1174.4" y="133" width="15.4" height="15.0" fill="rgb(239,206,0)" rx="2" ry="2" />
<text  x="1177.42" y="143.5" ></text>
</g>
<g >
<title>torch/nn/modules/normalization.py(188):_forward (782,125 us., 1.35%)</title><rect x="1091.3" y="197" width="15.9" height="15.0" fill="rgb(232,38,0)" rx="2" ry="2" />
<text  x="1094.34" y="207.5" ></text>
</g>
<g >
<title>nn.Module:_LayerNorm (782,125 us., 1.35%)</title><rect x="1091.3" y="181" width="15.9" height="15.0" fill="rgb(254,70,29)" rx="2" ry="2" />
<text  x="1094.34" y="191.5" ></text>
</g>
<g >
<title>nn.Module:_OPTDecoder (12,269 us., 0.02%)</title><rect x="1007.8" y="149" width="0.3" height="15.0" fill="rgb(216,183,6)" rx="2" ry="2" />
<text  x="1010.84" y="159.5" ></text>
</g>
<g >
<title>transformers/models/opt/modeling_opt.py(553):_forward (755,787 us., 1.30%)</title><rect x="1174.4" y="197" width="15.4" height="15.0" fill="rgb(237,88,38)" rx="2" ry="2" />
<text  x="1177.42" y="207.5" ></text>
</g>
<g >
<title>nn.Module:_OPTDecoderLayer (1,315,110 us., 2.27%)</title><rect x="1147.7" y="181" width="26.7" height="15.0" fill="rgb(248,121,32)" rx="2" ry="2" />
<text  x="1150.66" y="191.5" >n..</text>
</g>
<g >
<title>torch/autograd/grad_mode.py(27):_decorate_context (844,049 us., 1.46%)</title><rect x="955.4" y="133" width="17.2" height="15.0" fill="rgb(221,33,30)" rx="2" ry="2" />
<text  x="958.42" y="143.5" ></text>
</g>
<g >
<title>transformers/models/opt/modeling_opt.py(160):_forward (1,739,410 us., 3.00%)</title><rect x="1055.7" y="213" width="35.4" height="15.0" fill="rgb(249,6,54)" rx="2" ry="2" />
<text  x="1058.73" y="223.5" >tr..</text>
</g>
<g >
<title>nn.Module:_OPTDecoderLayer (15,203,183 us., 26.21%)</title><rect x="10.0" y="133" width="309.3" height="15.0" fill="rgb(248,205,26)" rx="2" ry="2" />
<text  x="13.00" y="143.5" >nn.Module:_OPTDecoderLayer</text>
</g>
<g >
<title>nn.Module:_OPTDecoder (1,490,856 us., 2.57%)</title><rect x="1008.3" y="117" width="30.4" height="15.0" fill="rgb(224,86,2)" rx="2" ry="2" />
<text  x="1011.34" y="127.5" >nn..</text>
</g>
<g >
<title>&lt;built-in_function_linear&gt; (47,317,093 us., 81.58%)</title><rect x="10.0" y="229" width="962.6" height="15.0" fill="rgb(218,225,49)" rx="2" ry="2" />
<text  x="13.00" y="239.5" >&lt;built-in_function_linear&gt;</text>
</g>
<g >
<title>transformers/models/opt/modeling_opt.py(840):_forward (15,203,183 us., 26.21%)</title><rect x="10.0" y="85" width="309.3" height="15.0" fill="rgb(207,162,27)" rx="2" ry="2" />
<text  x="13.00" y="95.5" >transformers/models/opt/modeling_opt.py(8..</text>
</g>
<g >
<title>transformers/models/opt/modeling_opt.py(157):__shape (838,320 us., 1.45%)</title><rect x="1038.7" y="213" width="17.0" height="15.0" fill="rgb(215,157,18)" rx="2" ry="2" />
<text  x="1041.68" y="223.5" ></text>
</g>
<g >
<title>profiling/utils.py(18):_profile_model (1,315,110 us., 2.27%)</title><rect x="1147.7" y="101" width="26.7" height="15.0" fill="rgb(241,139,54)" rx="2" ry="2" />
<text  x="1150.66" y="111.5" >p..</text>
</g>
<g >
<title>torch/nn/functional.py(1446):_relu (991,574 us., 1.71%)</title><rect x="1127.5" y="213" width="20.1" height="15.0" fill="rgb(216,185,48)" rx="2" ry="2" />
<text  x="1130.47" y="223.5" ></text>
</g>
<g >
<title>nn.Module:_Linear (47,317,093 us., 81.58%)</title><rect x="10.0" y="197" width="962.6" height="15.0" fill="rgb(232,221,33)" rx="2" ry="2" />
<text  x="13.00" y="207.5" >nn.Module:_Linear</text>
</g>
<g >
<title>transformers/models/opt/modeling_opt.py(840):_forward (844,049 us., 1.46%)</title><rect x="955.4" y="181" width="17.2" height="15.0" fill="rgb(216,198,5)" rx="2" ry="2" />
<text  x="958.42" y="191.5" ></text>
</g>
<g >
<title>nn.Module:_OPTDecoderLayer (1,739,410 us., 3.00%)</title><rect x="1055.7" y="165" width="35.4" height="15.0" fill="rgb(250,39,36)" rx="2" ry="2" />
<text  x="1058.73" y="175.5" >nn..</text>
</g>
<g >
<title>nn.Module:_OPTDecoder (15,203,183 us., 26.21%)</title><rect x="10.0" y="101" width="309.3" height="15.0" fill="rgb(228,132,13)" rx="2" ry="2" />
<text  x="13.00" y="111.5" >nn.Module:_OPTDecoder</text>
</g>
<g >
<title>transformers/models/opt/modeling_opt.py(533):__prepare_decoder_attention_mask (8,158 us., 0.01%)</title><rect x="1091.1" y="213" width="0.2" height="15.0" fill="rgb(237,35,24)" rx="2" ry="2" />
<text  x="1094.12" y="223.5" ></text>
</g>
<g >
<title>transformers/models/opt/modeling_opt.py(298):_forward (772,475 us., 1.33%)</title><rect x="1091.3" y="165" width="15.8" height="15.0" fill="rgb(218,7,9)" rx="2" ry="2" />
<text  x="1094.34" y="175.5" ></text>
</g>
<g >
<title>transformers/models/opt/modeling_opt.py(840):_forward (12,269 us., 0.02%)</title><rect x="1007.8" y="133" width="0.3" height="15.0" fill="rgb(214,169,11)" rx="2" ry="2" />
<text  x="1010.84" y="143.5" ></text>
</g>
<g >
<title>nn.Module:_OPTForCausalLM (844,049 us., 1.46%)</title><rect x="955.4" y="165" width="17.2" height="15.0" fill="rgb(208,174,22)" rx="2" ry="2" />
<text  x="958.42" y="175.5" ></text>
</g>
<g >
<title>torch/nn/modules/sparse.py(157):_forward (24,396 us., 0.04%)</title><rect x="1007.8" y="197" width="0.5" height="15.0" fill="rgb(221,223,21)" rx="2" ry="2" />
<text  x="1010.84" y="207.5" ></text>
</g>
<g >
<title>nn.Module:_OPTDecoderLayer (838,320 us., 1.45%)</title><rect x="1038.7" y="149" width="17.0" height="15.0" fill="rgb(215,156,25)" rx="2" ry="2" />
<text  x="1041.68" y="159.5" ></text>
</g>
<g >
<title>transformers/models/opt/modeling_opt.py(298):_forward (1,730,976 us., 2.98%)</title><rect x="972.6" y="181" width="35.2" height="15.0" fill="rgb(230,129,10)" rx="2" ry="2" />
<text  x="975.59" y="191.5" >tr..</text>
</g>
<g >
<title>&lt;built-in_method_encode_of_str_object_at_0x7f8eb79c14b0&gt; (4,079,802 us., 7.03%)</title><rect x="1008.3" y="229" width="83.0" height="15.0" fill="rgb(236,44,5)" rx="2" ry="2" />
<text  x="1011.34" y="239.5" >&lt;built-in..</text>
</g>
<g >
<title>transformers/models/opt/modeling_opt.py(553):_forward (991,574 us., 1.71%)</title><rect x="1127.5" y="133" width="20.1" height="15.0" fill="rgb(233,156,30)" rx="2" ry="2" />
<text  x="1130.47" y="143.5" ></text>
</g>
<g >
<title>torch/nn/functional.py(1804):_softmax (1,490,856 us., 2.57%)</title><rect x="1008.3" y="213" width="30.4" height="15.0" fill="rgb(240,203,29)" rx="2" ry="2" />
<text  x="1011.34" y="223.5" >to..</text>
</g>
<g >
<title>torch/autograd/grad_mode.py(27):_decorate_context (772,475 us., 1.33%)</title><rect x="1091.3" y="53" width="15.8" height="15.0" fill="rgb(238,17,4)" rx="2" ry="2" />
<text  x="1094.34" y="63.5" ></text>
</g>
<g >
<title>transformers/models/opt/modeling_opt.py(160):_forward (1,730,976 us., 2.98%)</title><rect x="972.6" y="213" width="35.2" height="15.0" fill="rgb(233,3,20)" rx="2" ry="2" />
<text  x="975.59" y="223.5" >tr..</text>
</g>
<g >
<title>profiling/utils.py(18):_profile_model (15,203,183 us., 26.21%)</title><rect x="10.0" y="53" width="309.3" height="15.0" fill="rgb(232,26,20)" rx="2" ry="2" />
<text  x="13.00" y="63.5" >profiling/utils.py(18):_profile_model</text>
</g>
<g >
<title>transformers/models/opt/modeling_opt.py(160):_forward (993,989 us., 1.71%)</title><rect x="1107.2" y="213" width="20.3" height="15.0" fill="rgb(211,38,26)" rx="2" ry="2" />
<text  x="1110.25" y="223.5" ></text>
</g>
<g >
<title>nn.Module:_OPTDecoder (12,127 us., 0.02%)</title><rect x="1008.1" y="133" width="0.2" height="15.0" fill="rgb(240,93,41)" rx="2" ry="2" />
<text  x="1011.09" y="143.5" ></text>
</g>
<g >
<title>nn.Module:_OPTForCausalLM (772,475 us., 1.33%)</title><rect x="1091.3" y="85" width="15.8" height="15.0" fill="rgb(233,173,54)" rx="2" ry="2" />
<text  x="1094.34" y="95.5" ></text>
</g>
<g >
<title>torch/autograd/grad_mode.py(27):_decorate_context (1,315,110 us., 2.27%)</title><rect x="1147.7" y="85" width="26.7" height="15.0" fill="rgb(231,62,8)" rx="2" ry="2" />
<text  x="1150.66" y="95.5" >t..</text>
</g>
<g >
<title>nn.Module:_OPTDecoder (9,650 us., 0.02%)</title><rect x="1107.1" y="149" width="0.1" height="15.0" fill="rgb(246,17,0)" rx="2" ry="2" />
<text  x="1110.05" y="159.5" ></text>
</g>
<g >
<title>nn.Module:_OPTForCausalLM (1,315,110 us., 2.27%)</title><rect x="1147.7" y="117" width="26.7" height="15.0" fill="rgb(241,6,38)" rx="2" ry="2" />
<text  x="1150.66" y="127.5" >n..</text>
</g>
<g >
<title>&lt;built-in_method_relu_of_type_object_at_0x7f8fabeca9c0&gt; (991,574 us., 1.71%)</title><rect x="1127.5" y="229" width="20.1" height="15.0" fill="rgb(209,88,15)" rx="2" ry="2" />
<text  x="1130.47" y="239.5" ></text>
</g>
<g >
<title>nn.Module:_OPTAttention (993,989 us., 1.71%)</title><rect x="1107.2" y="197" width="20.3" height="15.0" fill="rgb(248,127,3)" rx="2" ry="2" />
<text  x="1110.25" y="207.5" ></text>
</g>
<g >
<title>profiling/utils.py(18):_profile_model (838,320 us., 1.45%)</title><rect x="1038.7" y="69" width="17.0" height="15.0" fill="rgb(208,99,24)" rx="2" ry="2" />
<text  x="1041.68" y="79.5" ></text>
</g>
<g >
<title>transformers/models/opt/modeling_opt.py(160):_forward (15,203,183 us., 26.21%)</title><rect x="10.0" y="181" width="309.3" height="15.0" fill="rgb(233,125,16)" rx="2" ry="2" />
<text  x="13.00" y="191.5" >transformers/models/opt/modeling_opt.py(1..</text>
</g>
<g >
<title>torch/autograd/grad_mode.py(27):_decorate_context (12,127 us., 0.02%)</title><rect x="1008.1" y="69" width="0.2" height="15.0" fill="rgb(252,75,36)" rx="2" ry="2" />
<text  x="1011.09" y="79.5" ></text>
</g>
<g >
<title>transformers/models/opt/modeling_opt.py(298):_forward (1,315,110 us., 2.27%)</title><rect x="1147.7" y="197" width="26.7" height="15.0" fill="rgb(227,100,28)" rx="2" ry="2" />
<text  x="1150.66" y="207.5" >t..</text>
</g>
<g >
<title>transformers/models/opt/modeling_opt.py(114):_forward (12,127 us., 0.02%)</title><rect x="1008.1" y="181" width="0.2" height="15.0" fill="rgb(209,130,37)" rx="2" ry="2" />
<text  x="1011.09" y="191.5" ></text>
</g>
<g >
<title>transformers/models/opt/modeling_opt.py(840):_forward (9,650 us., 0.02%)</title><rect x="1107.1" y="133" width="0.1" height="15.0" fill="rgb(230,18,41)" rx="2" ry="2" />
<text  x="1110.05" y="143.5" ></text>
</g>
<g >
<title>transformers/models/opt/modeling_opt.py(160):_forward (838,320 us., 1.45%)</title><rect x="1038.7" y="197" width="17.0" height="15.0" fill="rgb(236,76,46)" rx="2" ry="2" />
<text  x="1041.68" y="207.5" ></text>
</g>
<g >
<title>nn.Module:_OPTDecoderLayer (755,787 us., 1.30%)</title><rect x="1174.4" y="213" width="15.4" height="15.0" fill="rgb(244,122,29)" rx="2" ry="2" />
<text  x="1177.42" y="223.5" ></text>
</g>
<g >
<title>profiling/utils.py(18):_profile_model (9,472 us., 0.02%)</title><rect x="1189.8" y="165" width="0.2" height="15.0" fill="rgb(218,183,12)" rx="2" ry="2" />
<text  x="1192.81" y="175.5" ></text>
</g>
<g >
<title>transformers/models/opt/modeling_opt.py(840):_forward (1,315,110 us., 2.27%)</title><rect x="1147.7" y="133" width="26.7" height="15.0" fill="rgb(252,91,13)" rx="2" ry="2" />
<text  x="1150.66" y="143.5" >t..</text>
</g>
<g >
<title>transformers/models/opt/modeling_opt.py(553):_forward (31,269,861 us., 53.91%)</title><rect x="319.3" y="149" width="636.1" height="15.0" fill="rgb(224,105,20)" rx="2" ry="2" />
<text  x="322.28" y="159.5" >transformers/models/opt/modeling_opt.py(553):_forward</text>
</g>
<g >
<title>all (58,004,242 us., 100%)</title><rect x="10.0" y="245" width="1180.0" height="15.0" fill="rgb(227,76,3)" rx="2" ry="2" />
<text  x="13.00" y="255.5" ></text>
</g>
<g >
<title>transformers/models/opt/modeling_opt.py(553):_forward (993,989 us., 1.71%)</title><rect x="1107.2" y="149" width="20.3" height="15.0" fill="rgb(234,141,30)" rx="2" ry="2" />
<text  x="1110.25" y="159.5" ></text>
</g>
<g >
<title>profiling/utils.py(18):_profile_model (844,049 us., 1.46%)</title><rect x="955.4" y="149" width="17.2" height="15.0" fill="rgb(236,130,44)" rx="2" ry="2" />
<text  x="958.42" y="159.5" ></text>
</g>
<g >
<title>&lt;built-in_method_bmm_of_type_object_at_0x7f8fabeca9c0&gt; (1,730,976 us., 2.98%)</title><rect x="972.6" y="229" width="35.2" height="15.0" fill="rgb(248,148,2)" rx="2" ry="2" />
<text  x="975.59" y="239.5" >&lt;b..</text>
</g>
<g >
<title>torch/nn/modules/activation.py(97):_forward (991,574 us., 1.71%)</title><rect x="1127.5" y="197" width="20.1" height="15.0" fill="rgb(228,7,1)" rx="2" ry="2" />
<text  x="1130.47" y="207.5" ></text>
</g>
<g >
<title>profiling/utils.py(18):_profile_model (8,158 us., 0.01%)</title><rect x="1091.1" y="133" width="0.2" height="15.0" fill="rgb(217,199,5)" rx="2" ry="2" />
<text  x="1094.12" y="143.5" ></text>
</g>
<g >
<title>transformers/models/opt/modeling_opt.py(298):_forward (15,203,183 us., 26.21%)</title><rect x="10.0" y="149" width="309.3" height="15.0" fill="rgb(230,150,33)" rx="2" ry="2" />
<text  x="13.00" y="159.5" >transformers/models/opt/modeling_opt.py(2..</text>
</g>
<g >
<title>nn.Module:_OPTForCausalLM (993,989 us., 1.71%)</title><rect x="1107.2" y="101" width="20.3" height="15.0" fill="rgb(233,160,12)" rx="2" ry="2" />
<text  x="1110.25" y="111.5" ></text>
</g>
<g >
<title>transformers/models/opt/modeling_opt.py(840):_forward (12,127 us., 0.02%)</title><rect x="1008.1" y="117" width="0.2" height="15.0" fill="rgb(250,38,53)" rx="2" ry="2" />
<text  x="1011.09" y="127.5" ></text>
</g>
<g >
<title>torch/nn/functional.py(2488):_layer_norm (782,125 us., 1.35%)</title><rect x="1091.3" y="213" width="15.9" height="15.0" fill="rgb(216,19,53)" rx="2" ry="2" />
<text  x="1094.34" y="223.5" ></text>
</g>
<g >
<title>nn.Module:_OPTLearnedPositionalEmbedding (12,127 us., 0.02%)</title><rect x="1008.1" y="165" width="0.2" height="15.0" fill="rgb(253,28,30)" rx="2" ry="2" />
<text  x="1011.09" y="175.5" ></text>
</g>
<g >
<title>profiling/utils.py(18):_profile_model (1,490,856 us., 2.57%)</title><rect x="1008.3" y="69" width="30.4" height="15.0" fill="rgb(215,29,32)" rx="2" ry="2" />
<text  x="1011.34" y="79.5" >pr..</text>
</g>
<g >
<title>nn.Module:_OPTDecoder (772,475 us., 1.33%)</title><rect x="1091.3" y="117" width="15.8" height="15.0" fill="rgb(212,55,15)" rx="2" ry="2" />
<text  x="1094.34" y="127.5" ></text>
</g>
<g >
<title>transformers/models/opt/modeling_opt.py(840):_forward (993,989 us., 1.71%)</title><rect x="1107.2" y="117" width="20.3" height="15.0" fill="rgb(210,46,52)" rx="2" ry="2" />
<text  x="1110.25" y="127.5" ></text>
</g>
<g >
<title>transformers/models/opt/modeling_opt.py(160):_forward (1,490,856 us., 2.57%)</title><rect x="1008.3" y="197" width="30.4" height="15.0" fill="rgb(237,147,26)" rx="2" ry="2" />
<text  x="1011.34" y="207.5" >tr..</text>
</g>
<g >
<title>nn.Module:_OPTForCausalLM (755,787 us., 1.30%)</title><rect x="1174.4" y="149" width="15.4" height="15.0" fill="rgb(211,134,25)" rx="2" ry="2" />
<text  x="1177.42" y="159.5" ></text>
</g>
<g >
<title>torch/nn/modules/linear.py(113):_forward (47,317,093 us., 81.58%)</title><rect x="10.0" y="213" width="962.6" height="15.0" fill="rgb(237,131,16)" rx="2" ry="2" />
<text  x="13.00" y="223.5" >torch/nn/modules/linear.py(113):_forward</text>
</g>
<g >
<title>nn.Module:_OPTDecoder (1,315,110 us., 2.27%)</title><rect x="1147.7" y="149" width="26.7" height="15.0" fill="rgb(236,37,38)" rx="2" ry="2" />
<text  x="1150.66" y="159.5" >n..</text>
</g>
<g >
<title>torch/autograd/grad_mode.py(27):_decorate_context (1,730,976 us., 2.98%)</title><rect x="972.6" y="69" width="35.2" height="15.0" fill="rgb(238,73,28)" rx="2" ry="2" />
<text  x="975.59" y="79.5" >to..</text>
</g>
<g >
<title>profiling/utils.py(18):_profile_model (772,475 us., 1.33%)</title><rect x="1091.3" y="69" width="15.8" height="15.0" fill="rgb(246,65,12)" rx="2" ry="2" />
<text  x="1094.34" y="79.5" ></text>
</g>
<g >
<title>torch/autograd/grad_mode.py(27):_decorate_context (31,269,861 us., 53.91%)</title><rect x="319.3" y="69" width="636.1" height="15.0" fill="rgb(249,225,17)" rx="2" ry="2" />
<text  x="322.28" y="79.5" >torch/autograd/grad_mode.py(27):_decorate_context</text>
</g>
<g >
<title>nn.Module:_OPTForCausalLM (1,490,856 us., 2.57%)</title><rect x="1008.3" y="85" width="30.4" height="15.0" fill="rgb(215,72,50)" rx="2" ry="2" />
<text  x="1011.34" y="95.5" >nn..</text>
</g>
<g >
<title>transformers/models/opt/modeling_opt.py(160):_forward (1,315,110 us., 2.27%)</title><rect x="1147.7" y="229" width="26.7" height="15.0" fill="rgb(221,178,9)" rx="2" ry="2" />
<text  x="1150.66" y="239.5" >t..</text>
</g>
<g >
<title>nn.Module:_OPTAttention (1,490,856 us., 2.57%)</title><rect x="1008.3" y="181" width="30.4" height="15.0" fill="rgb(221,225,51)" rx="2" ry="2" />
<text  x="1011.34" y="191.5" >nn..</text>
</g>
<g >
<title>profiling/utils.py(18):_profile_model (991,574 us., 1.71%)</title><rect x="1127.5" y="69" width="20.1" height="15.0" fill="rgb(208,58,28)" rx="2" ry="2" />
<text  x="1130.47" y="79.5" ></text>
</g>
<g >
<title>torch/autograd/grad_mode.py(27):_decorate_context (1,739,410 us., 3.00%)</title><rect x="1055.7" y="69" width="35.4" height="15.0" fill="rgb(224,218,9)" rx="2" ry="2" />
<text  x="1058.73" y="79.5" >to..</text>
</g>
<g >
<title>nn.Module:_OPTDecoder (991,574 us., 1.71%)</title><rect x="1127.5" y="117" width="20.1" height="15.0" fill="rgb(236,166,2)" rx="2" ry="2" />
<text  x="1130.47" y="127.5" ></text>
</g>
<g >
<title>nn.Module:_ReLU (991,574 us., 1.71%)</title><rect x="1127.5" y="181" width="20.1" height="15.0" fill="rgb(223,119,12)" rx="2" ry="2" />
<text  x="1130.47" y="191.5" ></text>
</g>
<g >
<title>nn.Module:_OPTForCausalLM (1,739,410 us., 3.00%)</title><rect x="1055.7" y="101" width="35.4" height="15.0" fill="rgb(206,76,47)" rx="2" ry="2" />
<text  x="1058.73" y="111.5" >nn..</text>
</g>
</g>
</svg>
