<?xml version="1.0" standalone="no"?>
<!DOCTYPE svg PUBLIC "-//W3C//DTD SVG 1.1//EN" "http://www.w3.org/Graphics/SVG/1.1/DTD/svg11.dtd">
<svg version="1.1" width="1200" height="294" onload="init(evt)" viewBox="0 0 1200 294" xmlns="http://www.w3.org/2000/svg" xmlns:xlink="http://www.w3.org/1999/xlink">
<!-- Flame graph stack visualization. See https://github.com/brendangregg/FlameGraph for latest version, and http://www.brendangregg.com/flamegraphs.html for examples. -->
<!-- NOTES:  -->
<defs>
	<linearGradient id="background" y1="0" y2="1" x1="0" x2="0" >
		<stop stop-color="#eeeeee" offset="5%" />
		<stop stop-color="#eeeeb0" offset="95%" />
	</linearGradient>
</defs>
<style type="text/css">
	text { font-family:Verdana; font-size:12px; fill:rgb(0,0,0); }
	#search, #ignorecase { opacity:0.1; cursor:pointer; }
	#search:hover, #search.show, #ignorecase:hover, #ignorecase.show { opacity:1; }
	#subtitle { text-anchor:middle; font-color:rgb(160,160,160); }
	#title { text-anchor:middle; font-size:17px}
	#unzoom { cursor:pointer; }
	#frames > *:hover { stroke:black; stroke-width:0.5; cursor:pointer; }
	.hide { display:none; }
	.parent { opacity:0.5; }
</style>
<script type="text/ecmascript">
<![CDATA[
	"use strict";
	var details, searchbtn, unzoombtn, matchedtxt, svg, searching, currentSearchTerm, ignorecase, ignorecaseBtn;
	function init(evt) {
		details = document.getElementById("details").firstChild;
		searchbtn = document.getElementById("search");
		ignorecaseBtn = document.getElementById("ignorecase");
		unzoombtn = document.getElementById("unzoom");
		matchedtxt = document.getElementById("matched");
		svg = document.getElementsByTagName("svg")[0];
		searching = 0;
		currentSearchTerm = null;

		// use GET parameters to restore a flamegraphs state.
		var params = get_params();
		if (params.x && params.y)
			zoom(find_group(document.querySelector('[x="' + params.x + '"][y="' + params.y + '"]')));
                if (params.s) search(params.s);
	}

	// event listeners
	window.addEventListener("click", function(e) {
		var target = find_group(e.target);
		if (target) {
			if (target.nodeName == "a") {
				if (e.ctrlKey === false) return;
				e.preventDefault();
			}
			if (target.classList.contains("parent")) unzoom(true);
			zoom(target);
			if (!document.querySelector('.parent')) {
				// we have basically done a clearzoom so clear the url
				var params = get_params();
				if (params.x) delete params.x;
				if (params.y) delete params.y;
				history.replaceState(null, null, parse_params(params));
				unzoombtn.classList.add("hide");
				return;
			}

			// set parameters for zoom state
			var el = target.querySelector("rect");
			if (el && el.attributes && el.attributes.y && el.attributes._orig_x) {
				var params = get_params()
				params.x = el.attributes._orig_x.value;
				params.y = el.attributes.y.value;
				history.replaceState(null, null, parse_params(params));
			}
		}
		else if (e.target.id == "unzoom") clearzoom();
		else if (e.target.id == "search") search_prompt();
		else if (e.target.id == "ignorecase") toggle_ignorecase();
	}, false)

	// mouse-over for info
	// show
	window.addEventListener("mouseover", function(e) {
		var target = find_group(e.target);
		if (target) details.nodeValue = "Function: " + g_to_text(target);
	}, false)

	// clear
	window.addEventListener("mouseout", function(e) {
		var target = find_group(e.target);
		if (target) details.nodeValue = ' ';
	}, false)

	// ctrl-F for search
	// ctrl-I to toggle case-sensitive search
	window.addEventListener("keydown",function (e) {
		if (e.keyCode === 114 || (e.ctrlKey && e.keyCode === 70)) {
			e.preventDefault();
			search_prompt();
		}
		else if (e.ctrlKey && e.keyCode === 73) {
			e.preventDefault();
			toggle_ignorecase();
		}
	}, false)

	// functions
	function get_params() {
		var params = {};
		var paramsarr = window.location.search.substr(1).split('&');
		for (var i = 0; i < paramsarr.length; ++i) {
			var tmp = paramsarr[i].split("=");
			if (!tmp[0] || !tmp[1]) continue;
			params[tmp[0]]  = decodeURIComponent(tmp[1]);
		}
		return params;
	}
	function parse_params(params) {
		var uri = "?";
		for (var key in params) {
			uri += key + '=' + encodeURIComponent(params[key]) + '&';
		}
		if (uri.slice(-1) == "&")
			uri = uri.substring(0, uri.length - 1);
		if (uri == '?')
			uri = window.location.href.split('?')[0];
		return uri;
	}
	function find_child(node, selector) {
		var children = node.querySelectorAll(selector);
		if (children.length) return children[0];
	}
	function find_group(node) {
		var parent = node.parentElement;
		if (!parent) return;
		if (parent.id == "frames") return node;
		return find_group(parent);
	}
	function orig_save(e, attr, val) {
		if (e.attributes["_orig_" + attr] != undefined) return;
		if (e.attributes[attr] == undefined) return;
		if (val == undefined) val = e.attributes[attr].value;
		e.setAttribute("_orig_" + attr, val);
	}
	function orig_load(e, attr) {
		if (e.attributes["_orig_"+attr] == undefined) return;
		e.attributes[attr].value = e.attributes["_orig_" + attr].value;
		e.removeAttribute("_orig_"+attr);
	}
	function g_to_text(e) {
		var text = find_child(e, "title").firstChild.nodeValue;
		return (text)
	}
	function g_to_func(e) {
		var func = g_to_text(e);
		// if there's any manipulation we want to do to the function
		// name before it's searched, do it here before returning.
		return (func);
	}
	function update_text(e) {
		var r = find_child(e, "rect");
		var t = find_child(e, "text");
		var w = parseFloat(r.attributes.width.value) -3;
		var txt = find_child(e, "title").textContent.replace(/\([^(]*\)$/,"");
		t.attributes.x.value = parseFloat(r.attributes.x.value) + 3;

		// Smaller than this size won't fit anything
		if (w < 2 * 12 * 0.59) {
			t.textContent = "";
			return;
		}

		t.textContent = txt;
		var sl = t.getSubStringLength(0, txt.length);
		// check if only whitespace or if we can fit the entire string into width w
		if (/^ *$/.test(txt) || sl < w)
			return;

		// this isn't perfect, but gives a good starting point
		// and avoids calling getSubStringLength too often
		var start = Math.floor((w/sl) * txt.length);
		for (var x = start; x > 0; x = x-2) {
			if (t.getSubStringLength(0, x + 2) <= w) {
				t.textContent = txt.substring(0, x) + "..";
				return;
			}
		}
		t.textContent = "";
	}

	// zoom
	function zoom_reset(e) {
		if (e.attributes != undefined) {
			orig_load(e, "x");
			orig_load(e, "width");
		}
		if (e.childNodes == undefined) return;
		for (var i = 0, c = e.childNodes; i < c.length; i++) {
			zoom_reset(c[i]);
		}
	}
	function zoom_child(e, x, ratio) {
		if (e.attributes != undefined) {
			if (e.attributes.x != undefined) {
				orig_save(e, "x");
				e.attributes.x.value = (parseFloat(e.attributes.x.value) - x - 10) * ratio + 10;
				if (e.tagName == "text")
					e.attributes.x.value = find_child(e.parentNode, "rect[x]").attributes.x.value + 3;
			}
			if (e.attributes.width != undefined) {
				orig_save(e, "width");
				e.attributes.width.value = parseFloat(e.attributes.width.value) * ratio;
			}
		}

		if (e.childNodes == undefined) return;
		for (var i = 0, c = e.childNodes; i < c.length; i++) {
			zoom_child(c[i], x - 10, ratio);
		}
	}
	function zoom_parent(e) {
		if (e.attributes) {
			if (e.attributes.x != undefined) {
				orig_save(e, "x");
				e.attributes.x.value = 10;
			}
			if (e.attributes.width != undefined) {
				orig_save(e, "width");
				e.attributes.width.value = parseInt(svg.width.baseVal.value) - (10 * 2);
			}
		}
		if (e.childNodes == undefined) return;
		for (var i = 0, c = e.childNodes; i < c.length; i++) {
			zoom_parent(c[i]);
		}
	}
	function zoom(node) {
		var attr = find_child(node, "rect").attributes;
		var width = parseFloat(attr.width.value);
		var xmin = parseFloat(attr.x.value);
		var xmax = parseFloat(xmin + width);
		var ymin = parseFloat(attr.y.value);
		var ratio = (svg.width.baseVal.value - 2 * 10) / width;

		// XXX: Workaround for JavaScript float issues (fix me)
		var fudge = 0.0001;

		unzoombtn.classList.remove("hide");

		var el = document.getElementById("frames").children;
		for (var i = 0; i < el.length; i++) {
			var e = el[i];
			var a = find_child(e, "rect").attributes;
			var ex = parseFloat(a.x.value);
			var ew = parseFloat(a.width.value);
			var upstack;
			// Is it an ancestor
			if (0 == 0) {
				upstack = parseFloat(a.y.value) > ymin;
			} else {
				upstack = parseFloat(a.y.value) < ymin;
			}
			if (upstack) {
				// Direct ancestor
				if (ex <= xmin && (ex+ew+fudge) >= xmax) {
					e.classList.add("parent");
					zoom_parent(e);
					update_text(e);
				}
				// not in current path
				else
					e.classList.add("hide");
			}
			// Children maybe
			else {
				// no common path
				if (ex < xmin || ex + fudge >= xmax) {
					e.classList.add("hide");
				}
				else {
					zoom_child(e, xmin, ratio);
					update_text(e);
				}
			}
		}
		search();
	}
	function unzoom(dont_update_text) {
		unzoombtn.classList.add("hide");
		var el = document.getElementById("frames").children;
		for(var i = 0; i < el.length; i++) {
			el[i].classList.remove("parent");
			el[i].classList.remove("hide");
			zoom_reset(el[i]);
			if(!dont_update_text) update_text(el[i]);
		}
		search();
	}
	function clearzoom() {
		unzoom();

		// remove zoom state
		var params = get_params();
		if (params.x) delete params.x;
		if (params.y) delete params.y;
		history.replaceState(null, null, parse_params(params));
	}

	// search
	function toggle_ignorecase() {
		ignorecase = !ignorecase;
		if (ignorecase) {
			ignorecaseBtn.classList.add("show");
		} else {
			ignorecaseBtn.classList.remove("show");
		}
		reset_search();
		search();
	}
	function reset_search() {
		var el = document.querySelectorAll("#frames rect");
		for (var i = 0; i < el.length; i++) {
			orig_load(el[i], "fill")
		}
		var params = get_params();
		delete params.s;
		history.replaceState(null, null, parse_params(params));
	}
	function search_prompt() {
		if (!searching) {
			var term = prompt("Enter a search term (regexp " +
			    "allowed, eg: ^ext4_)"
			    + (ignorecase ? ", ignoring case" : "")
			    + "\nPress Ctrl-i to toggle case sensitivity", "");
			if (term != null) search(term);
		} else {
			reset_search();
			searching = 0;
			currentSearchTerm = null;
			searchbtn.classList.remove("show");
			searchbtn.firstChild.nodeValue = "Search"
			matchedtxt.classList.add("hide");
			matchedtxt.firstChild.nodeValue = ""
		}
	}
	function search(term) {
		if (term) currentSearchTerm = term;

		var re = new RegExp(currentSearchTerm, ignorecase ? 'i' : '');
		var el = document.getElementById("frames").children;
		var matches = new Object();
		var maxwidth = 0;
		for (var i = 0; i < el.length; i++) {
			var e = el[i];
			var func = g_to_func(e);
			var rect = find_child(e, "rect");
			if (func == null || rect == null)
				continue;

			// Save max width. Only works as we have a root frame
			var w = parseFloat(rect.attributes.width.value);
			if (w > maxwidth)
				maxwidth = w;

			if (func.match(re)) {
				// highlight
				var x = parseFloat(rect.attributes.x.value);
				orig_save(rect, "fill");
				rect.attributes.fill.value = "rgb(230,0,230)";

				// remember matches
				if (matches[x] == undefined) {
					matches[x] = w;
				} else {
					if (w > matches[x]) {
						// overwrite with parent
						matches[x] = w;
					}
				}
				searching = 1;
			}
		}
		if (!searching)
			return;
		var params = get_params();
		params.s = currentSearchTerm;
		history.replaceState(null, null, parse_params(params));

		searchbtn.classList.add("show");
		searchbtn.firstChild.nodeValue = "Reset Search";

		// calculate percent matched, excluding vertical overlap
		var count = 0;
		var lastx = -1;
		var lastw = 0;
		var keys = Array();
		for (k in matches) {
			if (matches.hasOwnProperty(k))
				keys.push(k);
		}
		// sort the matched frames by their x location
		// ascending, then width descending
		keys.sort(function(a, b){
			return a - b;
		});
		// Step through frames saving only the biggest bottom-up frames
		// thanks to the sort order. This relies on the tree property
		// where children are always smaller than their parents.
		var fudge = 0.0001;	// JavaScript floating point
		for (var k in keys) {
			var x = parseFloat(keys[k]);
			var w = matches[keys[k]];
			if (x >= lastx + lastw - fudge) {
				count += w;
				lastx = x;
				lastw = w;
			}
		}
		// display matched percent
		matchedtxt.classList.remove("hide");
		var pct = 100 * count / maxwidth;
		if (pct != 100) pct = pct.toFixed(1)
		matchedtxt.firstChild.nodeValue = "Matched: " + pct + "%";
	}
]]>
</script>
<rect x="0.0" y="0" width="1200.0" height="294.0" fill="url(#background)"  />
<text id="title" x="600.00" y="24" >CUDA Time</text>
<text id="details" x="10.00" y="277" > </text>
<text id="unzoom" x="10.00" y="24" class="hide">Reset Zoom</text>
<text id="search" x="1090.00" y="24" >Search</text>
<text id="ignorecase" x="1174.00" y="24" >ic</text>
<text id="matched" x="1090.00" y="277" > </text>
<g id="frames">
<g >
<title>nn.Module:_OPTDecoder (4,682 us., 0.02%)</title><rect x="1125.0" y="149" width="0.2" height="15.0" fill="rgb(236,55,19)" rx="2" ry="2" />
<text  x="1128.01" y="159.5" ></text>
</g>
<g >
<title>transformers/models/opt/modeling_opt.py(840):_forward (382,885 us., 1.36%)</title><rect x="1052.7" y="101" width="16.0" height="15.0" fill="rgb(206,165,47)" rx="2" ry="2" />
<text  x="1055.66" y="111.5" ></text>
</g>
<g >
<title>torch/nn/modules/normalization.py(188):_forward (380,474 us., 1.35%)</title><rect x="1109.2" y="197" width="16.0" height="15.0" fill="rgb(220,145,21)" rx="2" ry="2" />
<text  x="1112.23" y="207.5" ></text>
</g>
<g >
<title>nn.Module:_LayerNorm (380,474 us., 1.35%)</title><rect x="1109.2" y="181" width="16.0" height="15.0" fill="rgb(235,206,6)" rx="2" ry="2" />
<text  x="1112.23" y="191.5" ></text>
</g>
<g >
<title>transformers/models/opt/modeling_opt.py(298):_forward (435,697 us., 1.55%)</title><rect x="1068.8" y="165" width="18.3" height="15.0" fill="rgb(237,103,48)" rx="2" ry="2" />
<text  x="1071.76" y="175.5" ></text>
</g>
<g >
<title>&lt;built-in_method_bmm_of_type_object_at_0x7fa69c3c69c0&gt; (578,800 us., 2.06%)</title><rect x="1027.8" y="229" width="24.3" height="15.0" fill="rgb(207,129,8)" rx="2" ry="2" />
<text  x="1030.79" y="239.5" >&lt;..</text>
</g>
<g >
<title>transformers/models/opt/modeling_opt.py(298):_forward (494,161 us., 1.76%)</title><rect x="1136.0" y="165" width="20.8" height="15.0" fill="rgb(247,117,53)" rx="2" ry="2" />
<text  x="1139.00" y="175.5" ></text>
</g>
<g >
<title>transformers/models/opt/modeling_opt.py(160):_forward (382,885 us., 1.36%)</title><rect x="1052.7" y="197" width="16.0" height="15.0" fill="rgb(215,74,52)" rx="2" ry="2" />
<text  x="1055.66" y="207.5" ></text>
</g>
<g >
<title>nn.Module:_OPTDecoder (8,363,829 us., 29.77%)</title><rect x="10.0" y="101" width="351.3" height="15.0" fill="rgb(236,224,14)" rx="2" ry="2" />
<text  x="13.00" y="111.5" >nn.Module:_OPTDecoder</text>
</g>
<g >
<title>nn.Module:_OPTAttention (435,697 us., 1.55%)</title><rect x="1068.8" y="181" width="18.3" height="15.0" fill="rgb(209,187,32)" rx="2" ry="2" />
<text  x="1071.76" y="191.5" ></text>
</g>
<g >
<title>nn.Module:_OPTForCausalLM (524,477 us., 1.87%)</title><rect x="1087.1" y="101" width="22.0" height="15.0" fill="rgb(234,173,0)" rx="2" ry="2" />
<text  x="1090.06" y="111.5" >n..</text>
</g>
<g >
<title>transformers/models/opt/modeling_opt.py(840):_forward (6,054 us., 0.02%)</title><rect x="1052.4" y="117" width="0.3" height="15.0" fill="rgb(208,98,23)" rx="2" ry="2" />
<text  x="1055.41" y="127.5" ></text>
</g>
<g >
<title>torch/autograd/grad_mode.py(27):_decorate_context (8,363,829 us., 29.77%)</title><rect x="10.0" y="37" width="351.3" height="15.0" fill="rgb(236,10,21)" rx="2" ry="2" />
<text  x="13.00" y="47.5" >torch/autograd/grad_mode.py(27):_decorate_context</text>
</g>
<g >
<title>profiling/utils.py(18):_profile_model (578,800 us., 2.06%)</title><rect x="1027.8" y="85" width="24.3" height="15.0" fill="rgb(239,43,29)" rx="2" ry="2" />
<text  x="1030.79" y="95.5" >p..</text>
</g>
<g >
<title>nn.Module:_OPTDecoder (404,380 us., 1.44%)</title><rect x="1156.8" y="149" width="17.0" height="15.0" fill="rgb(234,182,28)" rx="2" ry="2" />
<text  x="1159.79" y="159.5" ></text>
</g>
<g >
<title>nn.Module:_ReLU (494,161 us., 1.76%)</title><rect x="1136.0" y="181" width="20.8" height="15.0" fill="rgb(219,16,39)" rx="2" ry="2" />
<text  x="1139.00" y="191.5" ></text>
</g>
<g >
<title>torch/autograd/grad_mode.py(27):_decorate_context (4,682 us., 0.02%)</title><rect x="1125.0" y="85" width="0.2" height="15.0" fill="rgb(253,41,14)" rx="2" ry="2" />
<text  x="1128.01" y="95.5" ></text>
</g>
<g >
<title>torch/nn/modules/linear.py(113):_forward (24,234,586 us., 86.25%)</title><rect x="10.0" y="213" width="1017.8" height="15.0" fill="rgb(207,175,45)" rx="2" ry="2" />
<text  x="13.00" y="223.5" >torch/nn/modules/linear.py(113):_forward</text>
</g>
<g >
<title>&lt;built-in_method_encode_of_str_object_at_0x7fa5a7ebd4b0&gt; (1,346,979 us., 4.79%)</title><rect x="1052.7" y="229" width="56.5" height="15.0" fill="rgb(234,130,21)" rx="2" ry="2" />
<text  x="1055.66" y="239.5" >&lt;buil..</text>
</g>
<g >
<title>transformers/models/opt/modeling_opt.py(298):_forward (375,792 us., 1.34%)</title><rect x="1109.2" y="165" width="15.8" height="15.0" fill="rgb(246,33,9)" rx="2" ry="2" />
<text  x="1112.23" y="175.5" ></text>
</g>
<g >
<title>nn.Module:_OPTDecoder (524,477 us., 1.87%)</title><rect x="1087.1" y="133" width="22.0" height="15.0" fill="rgb(234,207,12)" rx="2" ry="2" />
<text  x="1090.06" y="143.5" >n..</text>
</g>
<g >
<title>transformers/models/opt/modeling_opt.py(298):_forward (404,380 us., 1.44%)</title><rect x="1156.8" y="197" width="17.0" height="15.0" fill="rgb(209,217,36)" rx="2" ry="2" />
<text  x="1159.79" y="207.5" ></text>
</g>
<g >
<title>torch/autograd/grad_mode.py(27):_decorate_context (6,290 us., 0.02%)</title><rect x="1052.1" y="85" width="0.3" height="15.0" fill="rgb(218,176,26)" rx="2" ry="2" />
<text  x="1055.14" y="95.5" ></text>
</g>
<g >
<title>torch/nn/modules/activation.py(97):_forward (494,161 us., 1.76%)</title><rect x="1136.0" y="197" width="20.8" height="15.0" fill="rgb(254,130,49)" rx="2" ry="2" />
<text  x="1139.00" y="207.5" ></text>
</g>
<g >
<title>torch/autograd/grad_mode.py(27):_decorate_context (404,380 us., 1.44%)</title><rect x="1156.8" y="85" width="17.0" height="15.0" fill="rgb(209,135,4)" rx="2" ry="2" />
<text  x="1159.79" y="95.5" ></text>
</g>
<g >
<title>nn.Module:_OPTDecoder (494,161 us., 1.76%)</title><rect x="1136.0" y="117" width="20.8" height="15.0" fill="rgb(230,217,14)" rx="2" ry="2" />
<text  x="1139.00" y="127.5" ></text>
</g>
<g >
<title>nn.Module:_OPTDecoder (6,290 us., 0.02%)</title><rect x="1052.1" y="149" width="0.3" height="15.0" fill="rgb(231,59,30)" rx="2" ry="2" />
<text  x="1055.14" y="159.5" ></text>
</g>
<g >
<title>transformers/models/opt/modeling_opt.py(553):_forward (375,792 us., 1.34%)</title><rect x="1109.2" y="133" width="15.8" height="15.0" fill="rgb(233,227,9)" rx="2" ry="2" />
<text  x="1112.23" y="143.5" ></text>
</g>
<g >
<title>nn.Module:_OPTDecoderLayer (578,800 us., 2.06%)</title><rect x="1027.8" y="165" width="24.3" height="15.0" fill="rgb(231,193,25)" rx="2" ry="2" />
<text  x="1030.79" y="175.5" >n..</text>
</g>
<g >
<title>transformers/models/opt/modeling_opt.py(840):_forward (8,363,829 us., 29.77%)</title><rect x="10.0" y="85" width="351.3" height="15.0" fill="rgb(254,18,32)" rx="2" ry="2" />
<text  x="13.00" y="95.5" >transformers/models/opt/modeling_opt.py(840):_f..</text>
</g>
<g >
<title>nn.Module:_OPTDecoderLayer (256,751 us., 0.91%)</title><rect x="1125.2" y="165" width="10.8" height="15.0" fill="rgb(216,228,38)" rx="2" ry="2" />
<text  x="1128.21" y="175.5" ></text>
</g>
<g >
<title>torch/nn/functional.py(2488):_layer_norm (380,474 us., 1.35%)</title><rect x="1109.2" y="213" width="16.0" height="15.0" fill="rgb(216,189,16)" rx="2" ry="2" />
<text  x="1112.23" y="223.5" ></text>
</g>
<g >
<title>torch/autograd/grad_mode.py(27):_decorate_context (15,421,078 us., 54.89%)</title><rect x="361.3" y="69" width="647.6" height="15.0" fill="rgb(248,177,23)" rx="2" ry="2" />
<text  x="364.26" y="79.5" >torch/autograd/grad_mode.py(27):_decorate_context</text>
</g>
<g >
<title>torch/autograd/grad_mode.py(27):_decorate_context (494,161 us., 1.76%)</title><rect x="1136.0" y="53" width="20.8" height="15.0" fill="rgb(224,103,40)" rx="2" ry="2" />
<text  x="1139.00" y="63.5" ></text>
</g>
<g >
<title>nn.Module:_OPTForCausalLM (404,380 us., 1.44%)</title><rect x="1156.8" y="117" width="17.0" height="15.0" fill="rgb(250,45,53)" rx="2" ry="2" />
<text  x="1159.79" y="127.5" ></text>
</g>
<g >
<title>nn.Module:_OPTLearnedPositionalEmbedding (6,054 us., 0.02%)</title><rect x="1052.4" y="165" width="0.3" height="15.0" fill="rgb(225,115,18)" rx="2" ry="2" />
<text  x="1055.41" y="175.5" ></text>
</g>
<g >
<title>nn.Module:_OPTForCausalLM (435,697 us., 1.55%)</title><rect x="1068.8" y="85" width="18.3" height="15.0" fill="rgb(244,159,5)" rx="2" ry="2" />
<text  x="1071.76" y="95.5" ></text>
</g>
<g >
<title>transformers/models/opt/modeling_opt.py(553):_forward (435,697 us., 1.55%)</title><rect x="1068.8" y="133" width="18.3" height="15.0" fill="rgb(252,116,32)" rx="2" ry="2" />
<text  x="1071.76" y="143.5" ></text>
</g>
<g >
<title>transformers/models/opt/modeling_opt.py(553):_forward (494,161 us., 1.76%)</title><rect x="1136.0" y="133" width="20.8" height="15.0" fill="rgb(243,193,35)" rx="2" ry="2" />
<text  x="1139.00" y="143.5" ></text>
</g>
<g >
<title>nn.Module:_OPTAttention (578,800 us., 2.06%)</title><rect x="1027.8" y="197" width="24.3" height="15.0" fill="rgb(232,206,35)" rx="2" ry="2" />
<text  x="1030.79" y="207.5" >n..</text>
</g>
<g >
<title>torch/autograd/grad_mode.py(27):_decorate_context (381,131 us., 1.36%)</title><rect x="1173.8" y="117" width="16.0" height="15.0" fill="rgb(230,97,15)" rx="2" ry="2" />
<text  x="1176.78" y="127.5" ></text>
</g>
<g >
<title>transformers/models/opt/modeling_opt.py(160):_forward (524,477 us., 1.87%)</title><rect x="1087.1" y="213" width="22.0" height="15.0" fill="rgb(230,63,0)" rx="2" ry="2" />
<text  x="1090.06" y="223.5" >t..</text>
</g>
<g >
<title>torch/autograd/grad_mode.py(27):_decorate_context (256,751 us., 0.91%)</title><rect x="1125.2" y="69" width="10.8" height="15.0" fill="rgb(245,118,49)" rx="2" ry="2" />
<text  x="1128.21" y="79.5" ></text>
</g>
<g >
<title>nn.Module:_OPTForCausalLM (578,800 us., 2.06%)</title><rect x="1027.8" y="101" width="24.3" height="15.0" fill="rgb(220,117,19)" rx="2" ry="2" />
<text  x="1030.79" y="111.5" >n..</text>
</g>
<g >
<title>nn.Module:_OPTForCausalLM (6,054 us., 0.02%)</title><rect x="1052.4" y="101" width="0.3" height="15.0" fill="rgb(211,37,5)" rx="2" ry="2" />
<text  x="1055.41" y="111.5" ></text>
</g>
<g >
<title>nn.Module:_OPTAttention (256,751 us., 0.91%)</title><rect x="1125.2" y="197" width="10.8" height="15.0" fill="rgb(209,30,32)" rx="2" ry="2" />
<text  x="1128.21" y="207.5" ></text>
</g>
<g >
<title>transformers/models/opt/modeling_opt.py(553):_forward (578,800 us., 2.06%)</title><rect x="1027.8" y="149" width="24.3" height="15.0" fill="rgb(234,161,22)" rx="2" ry="2" />
<text  x="1030.79" y="159.5" >t..</text>
</g>
<g >
<title>nn.Module:_OPTDecoder (435,697 us., 1.55%)</title><rect x="1068.8" y="117" width="18.3" height="15.0" fill="rgb(212,82,0)" rx="2" ry="2" />
<text  x="1071.76" y="127.5" ></text>
</g>
<g >
<title>nn.Module:_OPTDecoderLayer (381,131 us., 1.36%)</title><rect x="1173.8" y="213" width="16.0" height="15.0" fill="rgb(253,84,43)" rx="2" ry="2" />
<text  x="1176.78" y="223.5" ></text>
</g>
<g >
<title>nn.Module:_OPTDecoderLayer (435,697 us., 1.55%)</title><rect x="1068.8" y="149" width="18.3" height="15.0" fill="rgb(222,9,35)" rx="2" ry="2" />
<text  x="1071.76" y="159.5" ></text>
</g>
<g >
<title>nn.Module:_OPTAttention (8,363,829 us., 29.77%)</title><rect x="10.0" y="165" width="351.3" height="15.0" fill="rgb(232,88,7)" rx="2" ry="2" />
<text  x="13.00" y="175.5" >nn.Module:_OPTAttention</text>
</g>
<g >
<title>transformers/models/opt/modeling_opt.py(298):_forward (256,751 us., 0.91%)</title><rect x="1125.2" y="181" width="10.8" height="15.0" fill="rgb(253,190,32)" rx="2" ry="2" />
<text  x="1128.21" y="191.5" ></text>
</g>
<g >
<title>profiling/utils.py(18):_profile_model (6,054 us., 0.02%)</title><rect x="1052.4" y="85" width="0.3" height="15.0" fill="rgb(234,227,26)" rx="2" ry="2" />
<text  x="1055.41" y="95.5" ></text>
</g>
<g >
<title>profiling/utils.py(18):_profile_model (6,290 us., 0.02%)</title><rect x="1052.1" y="101" width="0.3" height="15.0" fill="rgb(234,185,7)" rx="2" ry="2" />
<text  x="1055.14" y="111.5" ></text>
</g>
<g >
<title>nn.Module:_OPTForCausalLM (381,131 us., 1.36%)</title><rect x="1173.8" y="149" width="16.0" height="15.0" fill="rgb(242,184,16)" rx="2" ry="2" />
<text  x="1176.78" y="159.5" ></text>
</g>
<g >
<title>&lt;built-in_method_layer_norm_of_type_object_at_0x7fa69c3c69c0&gt; (380,474 us., 1.35%)</title><rect x="1109.2" y="229" width="16.0" height="15.0" fill="rgb(253,136,33)" rx="2" ry="2" />
<text  x="1112.23" y="239.5" ></text>
</g>
<g >
<title>nn.Module:_OPTAttention (382,885 us., 1.36%)</title><rect x="1052.7" y="181" width="16.0" height="15.0" fill="rgb(232,183,50)" rx="2" ry="2" />
<text  x="1055.66" y="191.5" ></text>
</g>
<g >
<title>transformers/models/opt/modeling_opt.py(553):_forward (382,885 us., 1.36%)</title><rect x="1052.7" y="133" width="16.0" height="15.0" fill="rgb(223,219,54)" rx="2" ry="2" />
<text  x="1055.66" y="143.5" ></text>
</g>
<g >
<title>nn.Module:_OPTForCausalLM (15,421,078 us., 54.89%)</title><rect x="361.3" y="101" width="647.6" height="15.0" fill="rgb(251,72,45)" rx="2" ry="2" />
<text  x="364.26" y="111.5" >nn.Module:_OPTForCausalLM</text>
</g>
<g >
<title>transformers/models/opt/modeling_opt.py(553):_forward (6,054 us., 0.02%)</title><rect x="1052.4" y="149" width="0.3" height="15.0" fill="rgb(213,115,23)" rx="2" ry="2" />
<text  x="1055.41" y="159.5" ></text>
</g>
<g >
<title>transformers/models/opt/modeling_opt.py(553):_forward (4,868 us., 0.02%)</title><rect x="1189.8" y="229" width="0.2" height="15.0" fill="rgb(221,227,43)" rx="2" ry="2" />
<text  x="1192.80" y="239.5" ></text>
</g>
<g >
<title>transformers/models/opt/modeling_opt.py(553):_forward (6,290 us., 0.02%)</title><rect x="1052.1" y="165" width="0.3" height="15.0" fill="rgb(243,91,14)" rx="2" ry="2" />
<text  x="1055.14" y="175.5" ></text>
</g>
<g >
<title>nn.Module:_OPTDecoderLayer (404,380 us., 1.44%)</title><rect x="1156.8" y="181" width="17.0" height="15.0" fill="rgb(212,83,51)" rx="2" ry="2" />
<text  x="1159.79" y="191.5" ></text>
</g>
<g >
<title>nn.Module:_OPTDecoder (6,054 us., 0.02%)</title><rect x="1052.4" y="133" width="0.3" height="15.0" fill="rgb(222,0,19)" rx="2" ry="2" />
<text  x="1055.41" y="143.5" ></text>
</g>
<g >
<title>transformers/models/opt/modeling_opt.py(157):__shape (435,697 us., 1.55%)</title><rect x="1068.8" y="213" width="18.3" height="15.0" fill="rgb(213,78,2)" rx="2" ry="2" />
<text  x="1071.76" y="223.5" ></text>
</g>
<g >
<title>transformers/models/opt/modeling_opt.py(553):_forward (4,682 us., 0.02%)</title><rect x="1125.0" y="165" width="0.2" height="15.0" fill="rgb(244,201,27)" rx="2" ry="2" />
<text  x="1128.01" y="175.5" ></text>
</g>
<g >
<title>nn.Module:_OPTForCausalLM (8,363,829 us., 29.77%)</title><rect x="10.0" y="69" width="351.3" height="15.0" fill="rgb(243,0,7)" rx="2" ry="2" />
<text  x="13.00" y="79.5" >nn.Module:_OPTForCausalLM</text>
</g>
<g >
<title>nn.Module:_OPTForCausalLM (375,792 us., 1.34%)</title><rect x="1109.2" y="85" width="15.8" height="15.0" fill="rgb(228,64,6)" rx="2" ry="2" />
<text  x="1112.23" y="95.5" ></text>
</g>
<g >
<title>transformers/models/opt/modeling_opt.py(160):_forward (8,363,829 us., 29.77%)</title><rect x="10.0" y="181" width="351.3" height="15.0" fill="rgb(227,171,38)" rx="2" ry="2" />
<text  x="13.00" y="191.5" >transformers/models/opt/modeling_opt.py(160):_f..</text>
</g>
<g >
<title>transformers/models/opt/modeling_opt.py(840):_forward (6,290 us., 0.02%)</title><rect x="1052.1" y="133" width="0.3" height="15.0" fill="rgb(213,132,54)" rx="2" ry="2" />
<text  x="1055.14" y="143.5" ></text>
</g>
<g >
<title>&lt;built-in_function_linear&gt; (24,234,586 us., 86.25%)</title><rect x="10.0" y="229" width="1017.8" height="15.0" fill="rgb(228,170,51)" rx="2" ry="2" />
<text  x="13.00" y="239.5" >&lt;built-in_function_linear&gt;</text>
</g>
<g >
<title>transformers/models/opt/modeling_opt.py(553):_forward (524,477 us., 1.87%)</title><rect x="1087.1" y="149" width="22.0" height="15.0" fill="rgb(222,126,37)" rx="2" ry="2" />
<text  x="1090.06" y="159.5" >t..</text>
</g>
<g >
<title>profiling/utils.py(18):_profile_model (375,792 us., 1.34%)</title><rect x="1109.2" y="69" width="15.8" height="15.0" fill="rgb(227,72,3)" rx="2" ry="2" />
<text  x="1112.23" y="79.5" ></text>
</g>
<g >
<title>torch/nn/functional.py(1804):_softmax (382,885 us., 1.36%)</title><rect x="1052.7" y="213" width="16.0" height="15.0" fill="rgb(250,225,20)" rx="2" ry="2" />
<text  x="1055.66" y="223.5" ></text>
</g>
<g >
<title>transformers/models/opt/modeling_opt.py(840):_forward (494,161 us., 1.76%)</title><rect x="1136.0" y="101" width="20.8" height="15.0" fill="rgb(212,65,36)" rx="2" ry="2" />
<text  x="1139.00" y="111.5" ></text>
</g>
<g >
<title>nn.Module:_OPTForCausalLM (494,161 us., 1.76%)</title><rect x="1136.0" y="85" width="20.8" height="15.0" fill="rgb(245,198,23)" rx="2" ry="2" />
<text  x="1139.00" y="95.5" ></text>
</g>
<g >
<title>torch/autograd/grad_mode.py(27):_decorate_context (449,679 us., 1.60%)</title><rect x="1008.9" y="133" width="18.9" height="15.0" fill="rgb(226,215,15)" rx="2" ry="2" />
<text  x="1011.90" y="143.5" ></text>
</g>
<g >
<title>nn.Module:_OPTDecoderLayer (524,477 us., 1.87%)</title><rect x="1087.1" y="165" width="22.0" height="15.0" fill="rgb(218,98,31)" rx="2" ry="2" />
<text  x="1090.06" y="175.5" >n..</text>
</g>
<g >
<title>torch/autograd/grad_mode.py(27):_decorate_context (6,054 us., 0.02%)</title><rect x="1052.4" y="69" width="0.3" height="15.0" fill="rgb(213,53,38)" rx="2" ry="2" />
<text  x="1055.41" y="79.5" ></text>
</g>
<g >
<title>transformers/models/opt/modeling_opt.py(553):_forward (15,421,078 us., 54.89%)</title><rect x="361.3" y="149" width="647.6" height="15.0" fill="rgb(206,216,52)" rx="2" ry="2" />
<text  x="364.26" y="159.5" >transformers/models/opt/modeling_opt.py(553):_forward</text>
</g>
<g >
<title>transformers/models/opt/modeling_opt.py(298):_forward (15,421,078 us., 54.89%)</title><rect x="361.3" y="181" width="647.6" height="15.0" fill="rgb(219,203,9)" rx="2" ry="2" />
<text  x="364.26" y="191.5" >transformers/models/opt/modeling_opt.py(298):_forward</text>
</g>
<g >
<title>torch/autograd/grad_mode.py(27):_decorate_context (382,885 us., 1.36%)</title><rect x="1052.7" y="53" width="16.0" height="15.0" fill="rgb(225,201,22)" rx="2" ry="2" />
<text  x="1055.66" y="63.5" ></text>
</g>
<g >
<title>transformers/models/opt/modeling_opt.py(840):_forward (4,682 us., 0.02%)</title><rect x="1125.0" y="133" width="0.2" height="15.0" fill="rgb(232,212,12)" rx="2" ry="2" />
<text  x="1128.01" y="143.5" ></text>
</g>
<g >
<title>torch/nn/functional.py(1446):_relu (494,161 us., 1.76%)</title><rect x="1136.0" y="213" width="20.8" height="15.0" fill="rgb(229,134,36)" rx="2" ry="2" />
<text  x="1139.00" y="223.5" ></text>
</g>
<g >
<title>nn.Module:_OPTDecoderLayer (494,161 us., 1.76%)</title><rect x="1136.0" y="149" width="20.8" height="15.0" fill="rgb(249,178,12)" rx="2" ry="2" />
<text  x="1139.00" y="159.5" ></text>
</g>
<g >
<title>transformers/models/opt/modeling_opt.py(840):_forward (4,868 us., 0.02%)</title><rect x="1189.8" y="197" width="0.2" height="15.0" fill="rgb(248,83,10)" rx="2" ry="2" />
<text  x="1192.80" y="207.5" ></text>
</g>
<g >
<title>torch/autograd/grad_mode.py(27):_decorate_context (435,697 us., 1.55%)</title><rect x="1068.8" y="53" width="18.3" height="15.0" fill="rgb(252,13,28)" rx="2" ry="2" />
<text  x="1071.76" y="63.5" ></text>
</g>
<g >
<title>transformers/models/opt/modeling_opt.py(298):_forward (578,800 us., 2.06%)</title><rect x="1027.8" y="181" width="24.3" height="15.0" fill="rgb(232,224,34)" rx="2" ry="2" />
<text  x="1030.79" y="191.5" >t..</text>
</g>
<g >
<title>nn.Module:_OPTForCausalLM (382,885 us., 1.36%)</title><rect x="1052.7" y="85" width="16.0" height="15.0" fill="rgb(218,69,31)" rx="2" ry="2" />
<text  x="1055.66" y="95.5" ></text>
</g>
<g >
<title>nn.Module:_OPTDecoder (381,131 us., 1.36%)</title><rect x="1173.8" y="181" width="16.0" height="15.0" fill="rgb(219,222,24)" rx="2" ry="2" />
<text  x="1176.78" y="191.5" ></text>
</g>
<g >
<title>transformers/models/opt/modeling_opt.py(298):_forward (381,131 us., 1.36%)</title><rect x="1173.8" y="229" width="16.0" height="15.0" fill="rgb(240,207,17)" rx="2" ry="2" />
<text  x="1176.78" y="239.5" ></text>
</g>
<g >
<title>transformers/models/opt/modeling_opt.py(160):_forward (404,380 us., 1.44%)</title><rect x="1156.8" y="229" width="17.0" height="15.0" fill="rgb(252,144,38)" rx="2" ry="2" />
<text  x="1159.79" y="239.5" ></text>
</g>
<g >
<title>transformers/models/opt/modeling_opt.py(298):_forward (382,885 us., 1.36%)</title><rect x="1052.7" y="165" width="16.0" height="15.0" fill="rgb(230,153,0)" rx="2" ry="2" />
<text  x="1055.66" y="175.5" ></text>
</g>
<g >
<title>&lt;built-in_method_relu_of_type_object_at_0x7fa69c3c69c0&gt; (494,161 us., 1.76%)</title><rect x="1136.0" y="229" width="20.8" height="15.0" fill="rgb(232,122,12)" rx="2" ry="2" />
<text  x="1139.00" y="239.5" ></text>
</g>
<g >
<title>profiling/utils.py(18):_profile_model (256,751 us., 0.91%)</title><rect x="1125.2" y="85" width="10.8" height="15.0" fill="rgb(245,23,7)" rx="2" ry="2" />
<text  x="1128.21" y="95.5" ></text>
</g>
<g >
<title>transformers/models/opt/modeling_opt.py(840):_forward (435,697 us., 1.55%)</title><rect x="1068.8" y="101" width="18.3" height="15.0" fill="rgb(236,207,17)" rx="2" ry="2" />
<text  x="1071.76" y="111.5" ></text>
</g>
<g >
<title>transformers/models/opt/modeling_opt.py(840):_forward (15,421,078 us., 54.89%)</title><rect x="361.3" y="117" width="647.6" height="15.0" fill="rgb(246,9,23)" rx="2" ry="2" />
<text  x="364.26" y="127.5" >transformers/models/opt/modeling_opt.py(840):_forward</text>
</g>
<g >
<title>torch/nn/modules/sparse.py(157):_forward (12,344 us., 0.04%)</title><rect x="1052.1" y="197" width="0.6" height="15.0" fill="rgb(214,49,12)" rx="2" ry="2" />
<text  x="1055.14" y="207.5" ></text>
</g>
<g >
<title>transformers/models/opt/modeling_opt.py(298):_forward (8,363,829 us., 29.77%)</title><rect x="10.0" y="149" width="351.3" height="15.0" fill="rgb(214,224,20)" rx="2" ry="2" />
<text  x="13.00" y="159.5" >transformers/models/opt/modeling_opt.py(298):_f..</text>
</g>
<g >
<title>transformers/models/opt/modeling_opt.py(840):_forward (524,477 us., 1.87%)</title><rect x="1087.1" y="117" width="22.0" height="15.0" fill="rgb(223,152,13)" rx="2" ry="2" />
<text  x="1090.06" y="127.5" >t..</text>
</g>
<g >
<title>transformers/models/opt/modeling_opt.py(840):_forward (256,751 us., 0.91%)</title><rect x="1125.2" y="117" width="10.8" height="15.0" fill="rgb(215,56,38)" rx="2" ry="2" />
<text  x="1128.21" y="127.5" ></text>
</g>
<g >
<title>nn.Module:_OPTDecoder (4,868 us., 0.02%)</title><rect x="1189.8" y="213" width="0.2" height="15.0" fill="rgb(228,76,45)" rx="2" ry="2" />
<text  x="1192.80" y="223.5" ></text>
</g>
<g >
<title>profiling/utils.py(18):_profile_model (8,363,829 us., 29.77%)</title><rect x="10.0" y="53" width="351.3" height="15.0" fill="rgb(216,140,8)" rx="2" ry="2" />
<text  x="13.00" y="63.5" >profiling/utils.py(18):_profile_model</text>
</g>
<g >
<title>nn.Module:_OPTAttention (524,477 us., 1.87%)</title><rect x="1087.1" y="197" width="22.0" height="15.0" fill="rgb(226,155,45)" rx="2" ry="2" />
<text  x="1090.06" y="207.5" >n..</text>
</g>
<g >
<title>profiling/utils.py(18):_profile_model (15,421,078 us., 54.89%)</title><rect x="361.3" y="85" width="647.6" height="15.0" fill="rgb(235,128,36)" rx="2" ry="2" />
<text  x="364.26" y="95.5" >profiling/utils.py(18):_profile_model</text>
</g>
<g >
<title>profiling/utils.py(18):_profile_model (404,380 us., 1.44%)</title><rect x="1156.8" y="101" width="17.0" height="15.0" fill="rgb(229,159,51)" rx="2" ry="2" />
<text  x="1159.79" y="111.5" ></text>
</g>
<g >
<title>profiling/utils.py(18):_profile_model (494,161 us., 1.76%)</title><rect x="1136.0" y="69" width="20.8" height="15.0" fill="rgb(252,43,51)" rx="2" ry="2" />
<text  x="1139.00" y="79.5" ></text>
</g>
<g >
<title>nn.Module:_OPTAttention (404,380 us., 1.44%)</title><rect x="1156.8" y="213" width="17.0" height="15.0" fill="rgb(226,220,22)" rx="2" ry="2" />
<text  x="1159.79" y="223.5" ></text>
</g>
<g >
<title>transformers/models/opt/modeling_opt.py(553):_forward (8,363,829 us., 29.77%)</title><rect x="10.0" y="117" width="351.3" height="15.0" fill="rgb(207,199,39)" rx="2" ry="2" />
<text  x="13.00" y="127.5" >transformers/models/opt/modeling_opt.py(553):_f..</text>
</g>
<g >
<title>nn.Module:_OPTDecoder (375,792 us., 1.34%)</title><rect x="1109.2" y="117" width="15.8" height="15.0" fill="rgb(253,184,3)" rx="2" ry="2" />
<text  x="1112.23" y="127.5" ></text>
</g>
<g >
<title>nn.Module:_OPTDecoder (382,885 us., 1.36%)</title><rect x="1052.7" y="117" width="16.0" height="15.0" fill="rgb(254,52,20)" rx="2" ry="2" />
<text  x="1055.66" y="127.5" ></text>
</g>
<g >
<title>nn.Module:_OPTForCausalLM (449,679 us., 1.60%)</title><rect x="1008.9" y="165" width="18.9" height="15.0" fill="rgb(209,20,22)" rx="2" ry="2" />
<text  x="1011.90" y="175.5" ></text>
</g>
<g >
<title>nn.Module:_OPTDecoder (256,751 us., 0.91%)</title><rect x="1125.2" y="133" width="10.8" height="15.0" fill="rgb(241,124,28)" rx="2" ry="2" />
<text  x="1128.21" y="143.5" ></text>
</g>
<g >
<title>nn.Module:_OPTForCausalLM (4,868 us., 0.02%)</title><rect x="1189.8" y="181" width="0.2" height="15.0" fill="rgb(244,211,15)" rx="2" ry="2" />
<text  x="1192.80" y="191.5" ></text>
</g>
<g >
<title>nn.Module:_OPTForCausalLM (6,290 us., 0.02%)</title><rect x="1052.1" y="117" width="0.3" height="15.0" fill="rgb(243,11,27)" rx="2" ry="2" />
<text  x="1055.14" y="127.5" ></text>
</g>
<g >
<title>profiling/utils.py(18):_profile_model (524,477 us., 1.87%)</title><rect x="1087.1" y="85" width="22.0" height="15.0" fill="rgb(231,113,47)" rx="2" ry="2" />
<text  x="1090.06" y="95.5" >p..</text>
</g>
<g >
<title>nn.Module:_OPTForCausalLM (4,682 us., 0.02%)</title><rect x="1125.0" y="117" width="0.2" height="15.0" fill="rgb(239,45,3)" rx="2" ry="2" />
<text  x="1128.01" y="127.5" ></text>
</g>
<g >
<title>&lt;built-in_method_embedding_of_type_object_at_0x7fa69c3c69c0&gt; (12,344 us., 0.04%)</title><rect x="1052.1" y="229" width="0.6" height="15.0" fill="rgb(249,226,49)" rx="2" ry="2" />
<text  x="1055.14" y="239.5" ></text>
</g>
<g >
<title>torch/autograd/grad_mode.py(27):_decorate_context (578,800 us., 2.06%)</title><rect x="1027.8" y="69" width="24.3" height="15.0" fill="rgb(222,42,8)" rx="2" ry="2" />
<text  x="1030.79" y="79.5" >t..</text>
</g>
<g >
<title>profiling/utils.py(18):_profile_model (382,885 us., 1.36%)</title><rect x="1052.7" y="69" width="16.0" height="15.0" fill="rgb(220,60,22)" rx="2" ry="2" />
<text  x="1055.66" y="79.5" ></text>
</g>
<g >
<title>transformers/models/opt/modeling_opt.py(553):_forward (404,380 us., 1.44%)</title><rect x="1156.8" y="165" width="17.0" height="15.0" fill="rgb(235,180,36)" rx="2" ry="2" />
<text  x="1159.79" y="175.5" ></text>
</g>
<g >
<title>&lt;built-in_method_max_of_type_object_at_0x7fa69c3c69c0&gt; (256,751 us., 0.91%)</title><rect x="1125.2" y="229" width="10.8" height="15.0" fill="rgb(212,54,21)" rx="2" ry="2" />
<text  x="1128.21" y="239.5" ></text>
</g>
<g >
<title>nn.Module:_OPTDecoderLayer (8,363,829 us., 29.77%)</title><rect x="10.0" y="133" width="351.3" height="15.0" fill="rgb(212,201,24)" rx="2" ry="2" />
<text  x="13.00" y="143.5" >nn.Module:_OPTDecoderLayer</text>
</g>
<g >
<title>profiling/utils.py(18):_profile_model (435,697 us., 1.55%)</title><rect x="1068.8" y="69" width="18.3" height="15.0" fill="rgb(221,93,10)" rx="2" ry="2" />
<text  x="1071.76" y="79.5" ></text>
</g>
<g >
<title>profiling/utils.py(18):_profile_model (449,679 us., 1.60%)</title><rect x="1008.9" y="149" width="18.9" height="15.0" fill="rgb(224,217,31)" rx="2" ry="2" />
<text  x="1011.90" y="159.5" ></text>
</g>
<g >
<title>transformers/models/opt/modeling_opt.py(840):_forward (381,131 us., 1.36%)</title><rect x="1173.8" y="165" width="16.0" height="15.0" fill="rgb(236,193,22)" rx="2" ry="2" />
<text  x="1176.78" y="175.5" ></text>
</g>
<g >
<title>transformers/models/opt/modeling_opt.py(114):_forward (6,054 us., 0.02%)</title><rect x="1052.4" y="181" width="0.3" height="15.0" fill="rgb(221,132,11)" rx="2" ry="2" />
<text  x="1055.41" y="191.5" ></text>
</g>
<g >
<title>nn.Module:_Linear (24,234,586 us., 86.25%)</title><rect x="10.0" y="197" width="1017.8" height="15.0" fill="rgb(229,216,45)" rx="2" ry="2" />
<text  x="13.00" y="207.5" >nn.Module:_Linear</text>
</g>
<g >
<title>all (28,096,969 us., 100%)</title><rect x="10.0" y="245" width="1180.0" height="15.0" fill="rgb(205,103,23)" rx="2" ry="2" />
<text  x="13.00" y="255.5" ></text>
</g>
<g >
<title>transformers/models/opt/modeling_opt.py(840):_forward (578,800 us., 2.06%)</title><rect x="1027.8" y="117" width="24.3" height="15.0" fill="rgb(248,86,43)" rx="2" ry="2" />
<text  x="1030.79" y="127.5" >t..</text>
</g>
<g >
<title>nn.Module:_OPTForCausalLM (256,751 us., 0.91%)</title><rect x="1125.2" y="101" width="10.8" height="15.0" fill="rgb(252,198,1)" rx="2" ry="2" />
<text  x="1128.21" y="111.5" ></text>
</g>
<g >
<title>nn.Module:_Embedding (6,290 us., 0.02%)</title><rect x="1052.1" y="181" width="0.3" height="15.0" fill="rgb(207,80,0)" rx="2" ry="2" />
<text  x="1055.14" y="191.5" ></text>
</g>
<g >
<title>torch/autograd/grad_mode.py(27):_decorate_context (4,868 us., 0.02%)</title><rect x="1189.8" y="149" width="0.2" height="15.0" fill="rgb(237,162,10)" rx="2" ry="2" />
<text  x="1192.80" y="159.5" ></text>
</g>
<g >
<title>transformers/models/opt/modeling_opt.py(840):_forward (375,792 us., 1.34%)</title><rect x="1109.2" y="101" width="15.8" height="15.0" fill="rgb(225,207,6)" rx="2" ry="2" />
<text  x="1112.23" y="111.5" ></text>
</g>
<g >
<title>nn.Module:_OPTDecoderLayer (382,885 us., 1.36%)</title><rect x="1052.7" y="149" width="16.0" height="15.0" fill="rgb(232,30,54)" rx="2" ry="2" />
<text  x="1055.66" y="159.5" ></text>
</g>
<g >
<title>transformers/models/opt/modeling_opt.py(160):_forward (578,800 us., 2.06%)</title><rect x="1027.8" y="213" width="24.3" height="15.0" fill="rgb(228,38,6)" rx="2" ry="2" />
<text  x="1030.79" y="223.5" >t..</text>
</g>
<g >
<title>torch/nn/functional.py(2099):_embedding (12,344 us., 0.04%)</title><rect x="1052.1" y="213" width="0.6" height="15.0" fill="rgb(227,50,10)" rx="2" ry="2" />
<text  x="1055.14" y="223.5" ></text>
</g>
<g >
<title>transformers/models/opt/modeling_opt.py(840):_forward (404,380 us., 1.44%)</title><rect x="1156.8" y="133" width="17.0" height="15.0" fill="rgb(245,199,38)" rx="2" ry="2" />
<text  x="1159.79" y="143.5" ></text>
</g>
<g >
<title>torch/autograd/grad_mode.py(27):_decorate_context (375,792 us., 1.34%)</title><rect x="1109.2" y="53" width="15.8" height="15.0" fill="rgb(245,33,2)" rx="2" ry="2" />
<text  x="1112.23" y="63.5" ></text>
</g>
<g >
<title>transformers/models/opt/modeling_opt.py(553):_forward (381,131 us., 1.36%)</title><rect x="1173.8" y="197" width="16.0" height="15.0" fill="rgb(226,168,9)" rx="2" ry="2" />
<text  x="1176.78" y="207.5" ></text>
</g>
<g >
<title>transformers/models/opt/modeling_opt.py(160):_forward (435,697 us., 1.55%)</title><rect x="1068.8" y="197" width="18.3" height="15.0" fill="rgb(253,166,42)" rx="2" ry="2" />
<text  x="1071.76" y="207.5" ></text>
</g>
<g >
<title>nn.Module:_OPTDecoder (578,800 us., 2.06%)</title><rect x="1027.8" y="133" width="24.3" height="15.0" fill="rgb(219,70,33)" rx="2" ry="2" />
<text  x="1030.79" y="143.5" >n..</text>
</g>
<g >
<title>nn.Module:_OPTDecoder (15,421,078 us., 54.89%)</title><rect x="361.3" y="133" width="647.6" height="15.0" fill="rgb(208,187,26)" rx="2" ry="2" />
<text  x="364.26" y="143.5" >nn.Module:_OPTDecoder</text>
</g>
<g >
<title>transformers/models/opt/modeling_opt.py(160):_forward (256,751 us., 0.91%)</title><rect x="1125.2" y="213" width="10.8" height="15.0" fill="rgb(245,124,35)" rx="2" ry="2" />
<text  x="1128.21" y="223.5" ></text>
</g>
<g >
<title>profiling/utils.py(18):_profile_model (4,682 us., 0.02%)</title><rect x="1125.0" y="101" width="0.2" height="15.0" fill="rgb(242,177,2)" rx="2" ry="2" />
<text  x="1128.01" y="111.5" ></text>
</g>
<g >
<title>transformers/models/opt/modeling_opt.py(553):_forward (256,751 us., 0.91%)</title><rect x="1125.2" y="149" width="10.8" height="15.0" fill="rgb(224,208,29)" rx="2" ry="2" />
<text  x="1128.21" y="159.5" ></text>
</g>
<g >
<title>torch/autograd/grad_mode.py(27):_decorate_context (524,477 us., 1.87%)</title><rect x="1087.1" y="69" width="22.0" height="15.0" fill="rgb(216,8,12)" rx="2" ry="2" />
<text  x="1090.06" y="79.5" >t..</text>
</g>
<g >
<title>transformers/models/opt/modeling_opt.py(298):_forward (524,477 us., 1.87%)</title><rect x="1087.1" y="181" width="22.0" height="15.0" fill="rgb(236,187,14)" rx="2" ry="2" />
<text  x="1090.06" y="191.5" >t..</text>
</g>
<g >
<title>profiling/utils.py(18):_profile_model (4,868 us., 0.02%)</title><rect x="1189.8" y="165" width="0.2" height="15.0" fill="rgb(222,186,33)" rx="2" ry="2" />
<text  x="1192.80" y="175.5" ></text>
</g>
<g >
<title>nn.Module:_OPTDecoderLayer (15,421,078 us., 54.89%)</title><rect x="361.3" y="165" width="647.6" height="15.0" fill="rgb(206,176,38)" rx="2" ry="2" />
<text  x="364.26" y="175.5" >nn.Module:_OPTDecoderLayer</text>
</g>
<g >
<title>transformers/models/opt/modeling_opt.py(840):_forward (449,679 us., 1.60%)</title><rect x="1008.9" y="181" width="18.9" height="15.0" fill="rgb(249,27,26)" rx="2" ry="2" />
<text  x="1011.90" y="191.5" ></text>
</g>
<g >
<title>profiling/utils.py(18):_profile_model (381,131 us., 1.36%)</title><rect x="1173.8" y="133" width="16.0" height="15.0" fill="rgb(214,44,4)" rx="2" ry="2" />
<text  x="1176.78" y="143.5" ></text>
</g>
<g >
<title>nn.Module:_OPTDecoderLayer (375,792 us., 1.34%)</title><rect x="1109.2" y="149" width="15.8" height="15.0" fill="rgb(228,78,34)" rx="2" ry="2" />
<text  x="1112.23" y="159.5" ></text>
</g>
</g>
</svg>
